<svg width="18" height="30" viewBox="0 0 18 30" fill="none" xmlns="http://www.w3.org/2000/svg">
<path d="M0.853796 13.8294L14.2042 0.479264C14.513 0.170243 14.9251 0 15.3647 0C15.8042 0 16.2164 0.170243 16.5251 0.479264L17.5083 1.46218C18.148 2.10267 18.148 3.14363 17.5083 3.78314L6.29766 14.9938L17.5207 26.2169C17.8295 26.5259 18 26.9378 18 27.3771C18 27.8168 17.8295 28.2288 17.5207 28.5381L16.5376 29.5207C16.2286 29.8298 15.8166 30 15.3771 30C14.9376 30 14.5254 29.8298 14.2166 29.5207L0.853796 16.1584C0.544287 15.8484 0.374289 15.4345 0.375265 14.9945C0.374289 14.5528 0.544287 14.1392 0.853796 13.8294Z" fill="white"/>
</svg>
