<svg width="135" height="135" viewBox="0 0 135 135" fill="none" xmlns="http://www.w3.org/2000/svg">
<g opacity="0.5">
<path d="M7.554 14.8922C9.55744 14.8922 11.4788 14.1076 12.8955 12.711C14.3121 11.3144 15.108 9.42023 15.108 7.44513C15.1075 5.47038 14.3114 3.57669 12.8948 2.18051C11.4782 0.784333 9.5571 -6.92132e-08 7.554 0C5.5509 -6.92132e-08 3.62981 0.784333 2.21322 2.18051C0.79663 3.57669 0.000530341 5.47038 0 7.44513C0 9.42023 0.795865 11.3144 2.21251 12.711C3.62916 14.1076 5.55055 14.8922 7.554 14.8922V14.8922Z" fill="white" fill-opacity="0.3"/>
<path d="M31.225 14.8922C33.2285 14.8922 35.1499 14.1076 36.5665 12.711C37.9832 11.3144 38.779 9.42023 38.779 7.44513C38.7785 5.47038 37.9824 3.57669 36.5658 2.18051C35.1492 0.784333 33.2281 -6.92132e-08 31.225 0C29.2219 -6.92132e-08 27.3008 0.784333 25.8842 2.18051C24.4677 3.57669 23.6716 5.47038 23.671 7.44513C23.671 9.42023 24.4669 11.3144 25.8835 12.711C27.3002 14.1076 29.2216 14.8922 31.225 14.8922V14.8922Z" fill="white" fill-opacity="0.3"/>
<path d="M54.897 14.8922C56.9005 14.8922 58.8219 14.1076 60.2385 12.711C61.6552 11.3144 62.451 9.42023 62.451 7.44513C62.4505 5.47038 61.6544 3.57669 60.2378 2.18051C58.8212 0.784333 56.9001 -6.92132e-08 54.897 0C52.8939 -6.92132e-08 50.9728 0.784333 49.5562 2.18051C48.1396 3.57669 47.3435 5.47038 47.343 7.44513C47.343 9.42023 48.1389 11.3144 49.5555 12.711C50.9722 14.1076 52.8936 14.8922 54.897 14.8922V14.8922Z" fill="white" fill-opacity="0.3"/>
<path d="M7.554 38.7212C9.55744 38.7212 11.4788 37.9366 12.8955 36.54C14.3121 35.1434 15.108 33.2492 15.108 31.2741C15.1075 29.2994 14.3114 27.4057 12.8948 26.0095C11.4782 24.6133 9.5571 23.829 7.554 23.829C5.5509 23.829 3.62981 24.6133 2.21322 26.0095C0.79663 27.4057 0.000530341 29.2994 0 31.2741C0 33.2492 0.795865 35.1434 2.21251 36.54C3.62916 37.9366 5.55055 38.7212 7.554 38.7212V38.7212Z" fill="white" fill-opacity="0.3"/>
<path d="M31.225 38.7212C33.2285 38.7212 35.1499 37.9366 36.5665 36.54C37.9832 35.1434 38.779 33.2492 38.779 31.2741C38.7785 29.2994 37.9824 27.4057 36.5658 26.0095C35.1492 24.6133 33.2281 23.829 31.225 23.829C29.2219 23.829 27.3008 24.6133 25.8842 26.0095C24.4677 27.4057 23.6716 29.2994 23.671 31.2741C23.671 33.2492 24.4669 35.1434 25.8835 36.54C27.3002 37.9366 29.2216 38.7212 31.225 38.7212V38.7212Z" fill="white" fill-opacity="0.3"/>
<path d="M54.897 38.7212C56.9005 38.7212 58.8219 37.9366 60.2385 36.54C61.6552 35.1434 62.451 33.2492 62.451 31.2741C62.4505 29.2994 61.6544 27.4057 60.2378 26.0095C58.8212 24.6133 56.9001 23.829 54.897 23.829C52.8939 23.829 50.9728 24.6133 49.5562 26.0095C48.1396 27.4057 47.3435 29.2994 47.343 31.2741C47.343 33.2492 48.1389 35.1434 49.5555 36.54C50.9722 37.9366 52.8936 38.7212 54.897 38.7212V38.7212Z" fill="white" fill-opacity="0.3"/>
<path d="M7.554 62.5512C9.55744 62.5512 11.4788 61.7666 12.8955 60.37C14.3121 58.9734 15.108 57.0792 15.108 55.1041C15.1075 53.1293 14.3114 51.2356 12.8948 49.8394C11.4782 48.4433 9.5571 47.6589 7.554 47.6589C5.5509 47.6589 3.62981 48.4433 2.21322 49.8394C0.79663 51.2356 0.000530341 53.1293 0 55.1041C0 57.0792 0.795865 58.9734 2.21251 60.37C3.62916 61.7666 5.55055 62.5512 7.554 62.5512V62.5512Z" fill="white" fill-opacity="0.3"/>
<path d="M31.225 62.5512C33.2285 62.5512 35.1499 61.7666 36.5665 60.37C37.9832 58.9734 38.779 57.0792 38.779 55.1041C38.7785 53.1293 37.9824 51.2356 36.5658 49.8394C35.1492 48.4433 33.2281 47.6589 31.225 47.6589C29.2219 47.6589 27.3008 48.4433 25.8842 49.8394C24.4677 51.2356 23.6716 53.1293 23.671 55.1041C23.671 57.0792 24.4669 58.9734 25.8835 60.37C27.3002 61.7666 29.2216 62.5512 31.225 62.5512V62.5512Z" fill="white" fill-opacity="0.3"/>
<path d="M54.897 62.5512C56.9005 62.5512 58.8219 61.7666 60.2385 60.37C61.6552 58.9734 62.451 57.0792 62.451 55.1041C62.4505 53.1293 61.6544 51.2356 60.2378 49.8394C58.8212 48.4433 56.9001 47.6589 54.897 47.6589C52.8939 47.6589 50.9728 48.4433 49.5562 49.8394C48.1396 51.2356 47.3435 53.1293 47.343 55.1041C47.343 57.0792 48.1389 58.9734 49.5555 60.37C50.9722 61.7666 52.8936 62.5512 54.897 62.5512V62.5512Z" fill="white" fill-opacity="0.3"/>
<path d="M7.554 86.3811C9.55744 86.3811 11.4788 85.5965 12.8955 84.1999C14.3121 82.8033 15.108 80.9091 15.108 78.934C15.1075 76.9592 14.3114 75.0655 12.8948 73.6693C11.4782 72.2732 9.5571 71.4888 7.554 71.4888C5.5509 71.4888 3.62981 72.2732 2.21322 73.6693C0.79663 75.0655 0.000530341 76.9592 0 78.934C0 80.9091 0.795865 82.8033 2.21251 84.1999C3.62916 85.5965 5.55055 86.3811 7.554 86.3811V86.3811Z" fill="white" fill-opacity="0.3"/>
<path d="M31.225 86.3811C33.2285 86.3811 35.1499 85.5965 36.5665 84.1999C37.9832 82.8033 38.779 80.9091 38.779 78.934C38.7785 76.9592 37.9824 75.0655 36.5658 73.6693C35.1492 72.2732 33.2281 71.4888 31.225 71.4888C29.2219 71.4888 27.3008 72.2732 25.8842 73.6693C24.4677 75.0655 23.6716 76.9592 23.671 78.934C23.671 80.9091 24.4669 82.8033 25.8835 84.1999C27.3002 85.5965 29.2216 86.3811 31.225 86.3811V86.3811Z" fill="white" fill-opacity="0.3"/>
<path d="M54.897 86.3811C56.9005 86.3811 58.8219 85.5965 60.2385 84.1999C61.6552 82.8033 62.451 80.9091 62.451 78.934C62.4505 76.9592 61.6544 75.0655 60.2378 73.6693C58.8212 72.2732 56.9001 71.4888 54.897 71.4888C52.8939 71.4888 50.9728 72.2732 49.5562 73.6693C48.1396 75.0655 47.3435 76.9592 47.343 78.934C47.343 80.9091 48.1389 82.8033 49.5555 84.1999C50.9722 85.5965 52.8936 86.3811 54.897 86.3811V86.3811Z" fill="white" fill-opacity="0.3"/>
<path d="M7.554 110.209C9.55744 110.209 11.4788 109.424 12.8955 108.028C14.3121 106.631 15.108 104.737 15.108 102.762C15.1075 100.787 14.3114 98.8935 12.8948 97.4973C11.4782 96.1012 9.5571 95.3168 7.554 95.3168C5.5509 95.3168 3.62981 96.1012 2.21322 97.4973C0.79663 98.8935 0.000530341 100.787 0 102.762C0 104.737 0.795865 106.631 2.21251 108.028C3.62916 109.424 5.55055 110.209 7.554 110.209V110.209Z" fill="white" fill-opacity="0.3"/>
<path d="M31.225 110.209C33.2285 110.209 35.1499 109.424 36.5665 108.028C37.9832 106.631 38.779 104.737 38.779 102.762C38.7785 100.787 37.9824 98.8935 36.5658 97.4973C35.1492 96.1012 33.2281 95.3168 31.225 95.3168C29.2219 95.3168 27.3008 96.1012 25.8842 97.4973C24.4677 98.8935 23.6716 100.787 23.671 102.762C23.671 104.737 24.4669 106.631 25.8835 108.028C27.3002 109.424 29.2216 110.209 31.225 110.209V110.209Z" fill="white" fill-opacity="0.3"/>
<path d="M54.897 110.209C56.9005 110.209 58.8219 109.424 60.2385 108.028C61.6552 106.631 62.451 104.737 62.451 102.762C62.4505 100.787 61.6544 98.8935 60.2378 97.4973C58.8212 96.1012 56.9001 95.3168 54.897 95.3168C52.8939 95.3168 50.9728 96.1012 49.5562 97.4973C48.1396 98.8935 47.3435 100.787 47.343 102.762C47.343 104.737 48.1389 106.631 49.5555 108.028C50.9722 109.424 52.8936 110.209 54.897 110.209V110.209Z" fill="white" fill-opacity="0.3"/>
<path d="M7.554 134.04C9.55744 134.04 11.4788 133.255 12.8955 131.859C14.3121 130.462 15.108 128.568 15.108 126.593C15.1075 124.618 14.3114 122.724 12.8948 121.328C11.4782 119.932 9.5571 119.148 7.554 119.148C5.5509 119.148 3.62981 119.932 2.21322 121.328C0.79663 122.724 0.000530341 124.618 0 126.593C0 128.568 0.795865 130.462 2.21251 131.859C3.62916 133.255 5.55055 134.04 7.554 134.04V134.04Z" fill="white" fill-opacity="0.3"/>
<path d="M31.225 134.04C33.2285 134.04 35.1499 133.255 36.5665 131.859C37.9832 130.462 38.779 128.568 38.779 126.593C38.7785 124.618 37.9824 122.724 36.5658 121.328C35.1492 119.932 33.2281 119.148 31.225 119.148C29.2219 119.148 27.3008 119.932 25.8842 121.328C24.4677 122.724 23.6716 124.618 23.671 126.593C23.671 128.568 24.4669 130.462 25.8835 131.859C27.3002 133.255 29.2216 134.04 31.225 134.04V134.04Z" fill="white" fill-opacity="0.3"/>
<path d="M54.897 134.04C56.9005 134.04 58.8219 133.255 60.2385 131.859C61.6552 130.462 62.451 128.568 62.451 126.593C62.4505 124.618 61.6544 122.724 60.2378 121.328C58.8212 119.932 56.9001 119.148 54.897 119.148C52.8939 119.148 50.9728 119.932 49.5562 121.328C48.1396 122.724 47.3435 124.618 47.343 126.593C47.343 128.568 48.1389 130.462 49.5555 131.859C50.9722 133.255 52.8936 134.04 54.897 134.04V134.04Z" fill="white" fill-opacity="0.3"/>
</g>
<g opacity="0.5">
<path d="M79.554 14.8922C81.5574 14.8922 83.4788 14.1076 84.8955 12.711C86.3121 11.3144 87.108 9.42023 87.108 7.44513C87.1075 5.47038 86.3114 3.57669 84.8948 2.18051C83.4782 0.784333 81.5571 -6.92132e-08 79.554 0C77.5509 -6.92132e-08 75.6298 0.784333 74.2132 2.18051C72.7966 3.57669 72.0005 5.47038 72 7.44513C72 9.42023 72.7959 11.3144 74.2125 12.711C75.6292 14.1076 77.5506 14.8922 79.554 14.8922V14.8922Z" fill="white" fill-opacity="0.3"/>
<path d="M103.225 14.8922C105.228 14.8922 107.15 14.1076 108.567 12.711C109.983 11.3144 110.779 9.42023 110.779 7.44513C110.778 5.47038 109.982 3.57669 108.566 2.18051C107.149 0.784333 105.228 -6.92132e-08 103.225 0C101.222 -6.92132e-08 99.3008 0.784333 97.8842 2.18051C96.4677 3.57669 95.6716 5.47038 95.671 7.44513C95.671 9.42023 96.4669 11.3144 97.8835 12.711C99.3002 14.1076 101.222 14.8922 103.225 14.8922V14.8922Z" fill="white" fill-opacity="0.3"/>
<path d="M126.897 14.8922C128.9 14.8922 130.822 14.1076 132.239 12.711C133.655 11.3144 134.451 9.42023 134.451 7.44513C134.45 5.47038 133.654 3.57669 132.238 2.18051C130.821 0.784333 128.9 -6.92132e-08 126.897 0C124.894 -6.92132e-08 122.973 0.784333 121.556 2.18051C120.14 3.57669 119.344 5.47038 119.343 7.44513C119.343 9.42023 120.139 11.3144 121.556 12.711C122.972 14.1076 124.894 14.8922 126.897 14.8922V14.8922Z" fill="white" fill-opacity="0.3"/>
<path d="M79.554 38.7212C81.5574 38.7212 83.4788 37.9366 84.8955 36.54C86.3121 35.1434 87.108 33.2492 87.108 31.2741C87.1075 29.2994 86.3114 27.4057 84.8948 26.0095C83.4782 24.6133 81.5571 23.829 79.554 23.829C77.5509 23.829 75.6298 24.6133 74.2132 26.0095C72.7966 27.4057 72.0005 29.2994 72 31.2741C72 33.2492 72.7959 35.1434 74.2125 36.54C75.6292 37.9366 77.5506 38.7212 79.554 38.7212V38.7212Z" fill="white" fill-opacity="0.3"/>
<path d="M103.225 38.7212C105.228 38.7212 107.15 37.9366 108.567 36.54C109.983 35.1434 110.779 33.2492 110.779 31.2741C110.778 29.2994 109.982 27.4057 108.566 26.0095C107.149 24.6133 105.228 23.829 103.225 23.829C101.222 23.829 99.3008 24.6133 97.8842 26.0095C96.4677 27.4057 95.6716 29.2994 95.671 31.2741C95.671 33.2492 96.4669 35.1434 97.8835 36.54C99.3002 37.9366 101.222 38.7212 103.225 38.7212V38.7212Z" fill="white" fill-opacity="0.3"/>
<path d="M126.897 38.7212C128.9 38.7212 130.822 37.9366 132.239 36.54C133.655 35.1434 134.451 33.2492 134.451 31.2741C134.45 29.2994 133.654 27.4057 132.238 26.0095C130.821 24.6133 128.9 23.829 126.897 23.829C124.894 23.829 122.973 24.6133 121.556 26.0095C120.14 27.4057 119.344 29.2994 119.343 31.2741C119.343 33.2492 120.139 35.1434 121.556 36.54C122.972 37.9366 124.894 38.7212 126.897 38.7212V38.7212Z" fill="white" fill-opacity="0.3"/>
<path d="M79.554 62.5512C81.5574 62.5512 83.4788 61.7666 84.8955 60.37C86.3121 58.9734 87.108 57.0792 87.108 55.1041C87.1075 53.1293 86.3114 51.2356 84.8948 49.8394C83.4782 48.4433 81.5571 47.6589 79.554 47.6589C77.5509 47.6589 75.6298 48.4433 74.2132 49.8394C72.7966 51.2356 72.0005 53.1293 72 55.1041C72 57.0792 72.7959 58.9734 74.2125 60.37C75.6292 61.7666 77.5506 62.5512 79.554 62.5512V62.5512Z" fill="white" fill-opacity="0.3"/>
<path d="M103.225 62.5512C105.228 62.5512 107.15 61.7666 108.567 60.37C109.983 58.9734 110.779 57.0792 110.779 55.1041C110.778 53.1293 109.982 51.2356 108.566 49.8394C107.149 48.4433 105.228 47.6589 103.225 47.6589C101.222 47.6589 99.3008 48.4433 97.8842 49.8394C96.4677 51.2356 95.6716 53.1293 95.671 55.1041C95.671 57.0792 96.4669 58.9734 97.8835 60.37C99.3002 61.7666 101.222 62.5512 103.225 62.5512V62.5512Z" fill="white" fill-opacity="0.3"/>
<path d="M126.897 62.5512C128.9 62.5512 130.822 61.7666 132.239 60.37C133.655 58.9734 134.451 57.0792 134.451 55.1041C134.45 53.1293 133.654 51.2356 132.238 49.8394C130.821 48.4433 128.9 47.6589 126.897 47.6589C124.894 47.6589 122.973 48.4433 121.556 49.8394C120.14 51.2356 119.344 53.1293 119.343 55.1041C119.343 57.0792 120.139 58.9734 121.556 60.37C122.972 61.7666 124.894 62.5512 126.897 62.5512V62.5512Z" fill="white" fill-opacity="0.3"/>
<path d="M79.554 86.3811C81.5574 86.3811 83.4788 85.5965 84.8955 84.1999C86.3121 82.8033 87.108 80.9091 87.108 78.934C87.1075 76.9592 86.3114 75.0655 84.8948 73.6693C83.4782 72.2732 81.5571 71.4888 79.554 71.4888C77.5509 71.4888 75.6298 72.2732 74.2132 73.6693C72.7966 75.0655 72.0005 76.9592 72 78.934C72 80.9091 72.7959 82.8033 74.2125 84.1999C75.6292 85.5965 77.5506 86.3811 79.554 86.3811V86.3811Z" fill="white" fill-opacity="0.3"/>
<path d="M103.225 86.3811C105.228 86.3811 107.15 85.5965 108.567 84.1999C109.983 82.8033 110.779 80.9091 110.779 78.934C110.778 76.9592 109.982 75.0655 108.566 73.6693C107.149 72.2732 105.228 71.4888 103.225 71.4888C101.222 71.4888 99.3008 72.2732 97.8842 73.6693C96.4677 75.0655 95.6716 76.9592 95.671 78.934C95.671 80.9091 96.4669 82.8033 97.8835 84.1999C99.3002 85.5965 101.222 86.3811 103.225 86.3811V86.3811Z" fill="white" fill-opacity="0.3"/>
<path d="M126.897 86.3811C128.9 86.3811 130.822 85.5965 132.239 84.1999C133.655 82.8033 134.451 80.9091 134.451 78.934C134.45 76.9592 133.654 75.0655 132.238 73.6693C130.821 72.2732 128.9 71.4888 126.897 71.4888C124.894 71.4888 122.973 72.2732 121.556 73.6693C120.14 75.0655 119.344 76.9592 119.343 78.934C119.343 80.9091 120.139 82.8033 121.556 84.1999C122.972 85.5965 124.894 86.3811 126.897 86.3811V86.3811Z" fill="white" fill-opacity="0.3"/>
<path d="M79.554 110.209C81.5574 110.209 83.4788 109.424 84.8955 108.028C86.3121 106.631 87.108 104.737 87.108 102.762C87.1075 100.787 86.3114 98.8935 84.8948 97.4973C83.4782 96.1012 81.5571 95.3168 79.554 95.3168C77.5509 95.3168 75.6298 96.1012 74.2132 97.4973C72.7966 98.8935 72.0005 100.787 72 102.762C72 104.737 72.7959 106.631 74.2125 108.028C75.6292 109.424 77.5506 110.209 79.554 110.209V110.209Z" fill="white" fill-opacity="0.3"/>
<path d="M103.225 110.209C105.228 110.209 107.15 109.424 108.567 108.028C109.983 106.631 110.779 104.737 110.779 102.762C110.778 100.787 109.982 98.8935 108.566 97.4973C107.149 96.1012 105.228 95.3168 103.225 95.3168C101.222 95.3168 99.3008 96.1012 97.8842 97.4973C96.4677 98.8935 95.6716 100.787 95.671 102.762C95.671 104.737 96.4669 106.631 97.8835 108.028C99.3002 109.424 101.222 110.209 103.225 110.209V110.209Z" fill="white" fill-opacity="0.3"/>
<path d="M126.897 110.209C128.9 110.209 130.822 109.424 132.239 108.028C133.655 106.631 134.451 104.737 134.451 102.762C134.45 100.787 133.654 98.8935 132.238 97.4973C130.821 96.1012 128.9 95.3168 126.897 95.3168C124.894 95.3168 122.973 96.1012 121.556 97.4973C120.14 98.8935 119.344 100.787 119.343 102.762C119.343 104.737 120.139 106.631 121.556 108.028C122.972 109.424 124.894 110.209 126.897 110.209V110.209Z" fill="white" fill-opacity="0.3"/>
<path d="M79.554 134.04C81.5574 134.04 83.4788 133.255 84.8955 131.859C86.3121 130.462 87.108 128.568 87.108 126.593C87.1075 124.618 86.3114 122.724 84.8948 121.328C83.4782 119.932 81.5571 119.148 79.554 119.148C77.5509 119.148 75.6298 119.932 74.2132 121.328C72.7966 122.724 72.0005 124.618 72 126.593C72 128.568 72.7959 130.462 74.2125 131.859C75.6292 133.255 77.5506 134.04 79.554 134.04V134.04Z" fill="white" fill-opacity="0.3"/>
<path d="M103.225 134.04C105.228 134.04 107.15 133.255 108.567 131.859C109.983 130.462 110.779 128.568 110.779 126.593C110.778 124.618 109.982 122.724 108.566 121.328C107.149 119.932 105.228 119.148 103.225 119.148C101.222 119.148 99.3008 119.932 97.8842 121.328C96.4677 122.724 95.6716 124.618 95.671 126.593C95.671 128.568 96.4669 130.462 97.8835 131.859C99.3002 133.255 101.222 134.04 103.225 134.04V134.04Z" fill="white" fill-opacity="0.3"/>
<path d="M126.897 134.04C128.9 134.04 130.822 133.255 132.239 131.859C133.655 130.462 134.451 128.568 134.451 126.593C134.45 124.618 133.654 122.724 132.238 121.328C130.821 119.932 128.9 119.148 126.897 119.148C124.894 119.148 122.973 119.932 121.556 121.328C120.14 122.724 119.344 124.618 119.343 126.593C119.343 128.568 120.139 130.462 121.556 131.859C122.972 133.255 124.894 134.04 126.897 134.04V134.04Z" fill="white" fill-opacity="0.3"/>
</g>
</svg>
