<svg width="30" height="22" viewBox="0 0 30 22" fill="none" xmlns="http://www.w3.org/2000/svg">
<path d="M17.031 14.3196C16.3049 14.8036 15.4615 15.0595 14.592 15.0595C13.7225 15.0595 12.8792 14.8036 12.1531 14.3196L0.194313 6.34681C0.127965 6.30258 0.063327 6.25647 0 6.20904V19.2733C0 20.7711 1.21553 21.9599 2.68658 21.9599H26.4974C27.9952 21.9599 29.1839 20.7443 29.1839 19.2733V6.20898C29.1205 6.25652 29.0558 6.30275 28.9892 6.34704L17.031 14.3196Z" fill="#F5AA36"/>
<path d="M1.14285 4.9238L13.1016 12.8966C13.5543 13.1984 14.0731 13.3493 14.5919 13.3493C15.1108 13.3493 15.6297 13.1984 16.0824 12.8966L28.0412 4.9238C28.7568 4.44699 29.184 3.64899 29.184 2.78772C29.184 1.3068 27.9792 0.102051 26.4983 0.102051H2.68567C1.20481 0.102108 0 1.30686 0 2.78915C0 3.64899 0.427272 4.44699 1.14285 4.9238Z" fill="#F5AA36"/>
</svg>
