<svg width="260" height="13" viewBox="0 0 260 13" fill="none" xmlns="http://www.w3.org/2000/svg">
<path d="M121.628 5.68015L121.098 6.21069L121.628 6.7409V6.90534H5.3565C5.26666 6.90534 5.17763 6.92307 5.09463 6.95745C5.01163 6.99183 4.93627 7.04218 4.87274 7.10571C4.80921 7.16923 4.75871 7.24476 4.72432 7.32776C4.68994 7.41076 4.67237 7.49946 4.67237 7.58931V7.72202C4.67237 7.90347 4.60014 8.07732 4.47184 8.20562C4.34354 8.33392 4.16953 8.40599 3.98808 8.40599H0.684129C0.502683 8.40599 0.328668 8.33392 0.200367 8.20562C0.0720658 8.07732 0 7.90347 0 7.72202V4.67249C0 4.49105 0.0720658 4.31719 0.200367 4.18889C0.328668 4.06059 0.502683 3.98853 0.684129 3.98853H3.98808C4.16953 3.98853 4.34354 4.06059 4.47184 4.18889C4.60014 4.31719 4.67237 4.49105 4.67237 4.67249V4.80521C4.67237 4.89505 4.68994 4.98407 4.72432 5.06708C4.75871 5.15008 4.80921 5.22528 4.87274 5.28881C4.93627 5.35234 5.01163 5.40268 5.09463 5.43706C5.17763 5.47144 5.26666 5.48917 5.3565 5.48917H121.623L121.628 5.68015Z" fill="#F5AA36"/>
<path d="M259.591 4.65133V7.70086C259.591 7.8823 259.519 8.05616 259.391 8.18446C259.263 8.31276 259.089 8.38483 258.907 8.38483H255.603C255.422 8.38483 255.248 8.31276 255.12 8.18446C254.991 8.05616 254.919 7.8823 254.919 7.70086V7.56814C254.919 7.3867 254.847 7.21285 254.719 7.08454C254.591 6.95624 254.416 6.88418 254.235 6.88418H138.09V6.54462L138.488 6.1468L138.09 5.74898V5.4787H254.235C254.416 5.4787 254.591 5.40663 254.719 5.27833C254.847 5.15003 254.919 4.97585 254.919 4.7944V4.65133C254.919 4.46989 254.991 4.29603 255.12 4.16773C255.248 4.03943 255.422 3.96704 255.603 3.96704H258.907C259.089 3.96704 259.263 4.03943 259.391 4.16773C259.519 4.29603 259.591 4.46989 259.591 4.65133Z" fill="#F5AA36"/>
<path d="M134.844 1.70786C134.716 1.58026 134.543 1.50879 134.362 1.50879C134.181 1.50879 134.007 1.58026 133.879 1.70786L132.818 2.76861L129.812 5.77573L129.398 6.19977L133.8 10.6017C133.863 10.6657 133.939 10.7166 134.022 10.7512C134.106 10.7859 134.195 10.8037 134.285 10.8037C134.375 10.8037 134.464 10.7859 134.548 10.7512C134.631 10.7166 134.707 10.6657 134.77 10.6017L138.483 6.88924L138.737 6.63482C138.865 6.50661 138.937 6.33307 138.937 6.15219C138.937 5.97131 138.865 5.79777 138.737 5.66956L134.844 1.70786ZM133.253 9.22276L132.548 8.51743L130.687 6.66654C130.623 6.60296 130.572 6.52744 130.537 6.44416C130.503 6.36088 130.485 6.27152 130.485 6.18132C130.485 6.09112 130.503 6.00176 130.537 5.91848C130.572 5.8352 130.623 5.75969 130.687 5.6961L132.537 3.84522L133.243 3.13989L133.901 2.48214C134.029 2.35454 134.202 2.28307 134.383 2.28307C134.564 2.28307 134.738 2.35454 134.866 2.48214L138.493 6.10979L138.096 6.50761L134.807 9.80638C134.744 9.87036 134.668 9.92095 134.585 9.9556C134.502 9.99025 134.412 10.008 134.322 10.008C134.232 10.008 134.142 9.99025 134.059 9.9556C133.976 9.92095 133.9 9.87036 133.837 9.80638L133.253 9.22276Z" fill="#F5AA36"/>
<path d="M133.222 3.14522L132.835 2.75808L130.278 0.201863C130.215 0.137884 130.139 0.0869643 130.056 0.0523165C129.972 0.0176686 129.883 -0.00012207 129.793 -0.00012207C129.703 -0.00012207 129.614 0.0176686 129.53 0.0523165C129.447 0.0869643 129.371 0.137884 129.308 0.201863L126.396 3.11317L123.882 5.63767C123.755 5.76587 123.683 5.93941 123.683 6.1203C123.683 6.30118 123.755 6.47472 123.882 6.60293L129.387 12.108C129.451 12.172 129.526 12.2226 129.61 12.2572C129.693 12.2919 129.782 12.3097 129.872 12.3097C129.963 12.3097 130.052 12.2919 130.135 12.2572C130.219 12.2226 130.294 12.172 130.358 12.108L132.845 9.62073L133.232 9.23359L135.789 6.67705C135.853 6.61347 135.903 6.53795 135.938 6.45467C135.973 6.37139 135.99 6.28203 135.99 6.19183C135.99 6.10163 135.973 6.0126 135.938 5.92932C135.903 5.84604 135.853 5.7702 135.789 5.70662L133.222 3.14522ZM130.358 10.6973C130.294 10.7613 130.219 10.8119 130.135 10.8466C130.052 10.8812 129.963 10.899 129.872 10.899C129.782 10.899 129.693 10.8812 129.61 10.8466C129.526 10.8119 129.451 10.7613 129.387 10.6973L127.499 8.80923L127.112 8.42209L125.293 6.60293C125.166 6.47472 125.094 6.30118 125.094 6.1203C125.094 5.93941 125.166 5.76587 125.293 5.63767L127.102 3.81883L127.489 3.43137L129.308 1.61252C129.371 1.54855 129.447 1.49763 129.53 1.46298C129.614 1.42833 129.703 1.41054 129.793 1.41054C129.883 1.41054 129.972 1.42833 130.056 1.46298C130.139 1.49763 130.215 1.54855 130.278 1.61252L132.522 3.85573L134.383 5.70662C134.447 5.7702 134.498 5.84604 134.532 5.92932C134.567 6.0126 134.585 6.10163 134.585 6.19183C134.585 6.28203 134.567 6.37139 134.532 6.45467C134.498 6.53795 134.447 6.61347 134.383 6.67705L130.358 10.6973Z" fill="#F5AA36"/>
<path d="M129.822 5.75965L127.483 3.42096L126.778 2.71563L125.771 1.70797C125.707 1.64399 125.631 1.59307 125.548 1.55842C125.465 1.52377 125.375 1.50598 125.285 1.50598C125.195 1.50598 125.106 1.52377 125.022 1.55842C124.939 1.59307 124.863 1.64399 124.8 1.70797L121.088 5.42042L120.833 5.67485C120.705 5.80305 120.634 5.97659 120.634 6.15747C120.634 6.33836 120.705 6.5119 120.833 6.6401L121.019 6.82558L124.731 10.538C124.859 10.6656 125.033 10.7374 125.213 10.7374C125.394 10.7374 125.568 10.6656 125.696 10.538L126.757 9.47729L127.462 8.77196L129.727 6.50739L130.14 6.08335L129.822 5.75965ZM125.712 9.81166C125.584 9.93926 125.41 10.0107 125.229 10.0107C125.048 10.0107 124.875 9.93926 124.747 9.81166L121.119 6.18402L121.65 5.6538L124.832 2.47156C124.895 2.40758 124.971 2.35699 125.054 2.32234C125.137 2.28769 125.227 2.2699 125.317 2.2699C125.407 2.2699 125.497 2.28769 125.58 2.32234C125.663 2.35699 125.739 2.40758 125.802 2.47156L127.128 3.79742L128.958 5.61658C129.022 5.68016 129.072 5.75568 129.107 5.83896C129.142 5.92224 129.16 6.0116 129.16 6.1018C129.16 6.192 129.142 6.28136 129.107 6.36464C129.072 6.44792 129.022 6.52343 128.958 6.58702L125.712 9.81166Z" fill="#F5AA36"/>
</svg>
