<svg xmlns="http://www.w3.org/2000/svg" version="1.1" xmlns:xlink="http://www.w3.org/1999/xlink" width="512" height="512" x="0" y="0" viewBox="0 0 510 510" style="enable-background:new 0 0 512 512" xml:space="preserve"><g><path d="M150 122.865c0-16.542-13.458-30-30-30s-30 13.458-30 30v15h60z" fill="#000000" opacity="1" data-original="#000000"></path><path d="M0 272.865h71.459L180 327.135v-54.271h60v-270H0zm60-150c0-33.084 26.916-60 60-60s60 26.916 60 60v90h-30v-45H90v45H60zM270 182.865v270h60v54.271l108.541-54.271H510v-270zm180 210h-75c-24.814 0-45-20.186-45-45 0-20.723 14.084-38.209 33.181-43.414A44.756 44.756 0 0 1 360 287.865c0-24.813 20.186-45 45-45h30v30h-30c-8.272 0-15 6.729-15 15 0 8.272 6.728 15 15 15h30v30h-60c-8.272 0-15 6.729-15 15 0 8.272 6.728 15 15 15h75zM135 378.711l21.68 14.454 16.64-24.961L120 332.657l-53.32 35.547 16.64 24.961L105 378.711v89.154h105v-30h-75zM375 109.837l-21.68-14.453-16.64 24.962L390 155.893l53.32-35.547-16.64-24.962L405 109.837V20.685H300v30h75z" fill="#000000" opacity="1" data-original="#000000"></path></g></svg>