<svg width="23" height="32" viewBox="0 0 23 32" fill="none" xmlns="http://www.w3.org/2000/svg">
<path d="M11.2246 0.494629C5.03533 0.494629 0 5.52996 0 11.7192C0 19.4002 10.0449 30.6764 10.4726 31.1527C10.8743 31.6001 11.5757 31.5993 11.9766 31.1527C12.4043 30.6764 22.4492 19.4002 22.4492 11.7192C22.4491 5.52996 17.4138 0.494629 11.2246 0.494629ZM11.2246 17.3666C8.11063 17.3666 5.57729 14.8332 5.57729 11.7192C5.57729 8.6052 8.11069 6.07186 11.2246 6.07186C14.3385 6.07186 16.8719 8.60526 16.8719 11.7192C16.8719 14.8332 14.3385 17.3666 11.2246 17.3666Z" fill="#F5AA36"/>
</svg>
