<svg width="883" height="898" viewBox="0 0 883 898" fill="none" xmlns="http://www.w3.org/2000/svg">
<g clip-path="url(#clip0_182_2002)">
<path d="M236.839 793.127V864.955H181.023C172.419 865.755 163.817 863.404 156.797 858.336C154.583 856.07 152.881 853.351 151.804 850.364C150.728 847.377 150.302 844.193 150.557 841.026C150.735 833.918 152.26 826.911 155.051 820.379H168.368C165.775 826.059 164.414 832.229 164.376 838.479C164.376 851.49 171.084 857.995 184.501 857.995H223.007V793.113L236.839 793.127ZM212.721 836.967H179.67V829.899H185.855C184.035 828.64 182.53 826.972 181.459 825.029C180.388 823.086 179.779 820.919 179.681 818.699C179.582 816.479 179.997 814.266 180.892 812.235C181.787 810.203 183.139 808.408 184.84 806.991C189.229 803.776 194.593 802.197 200.012 802.524C203.458 802.577 206.896 802.882 210.298 803.437V809.429C208.257 809.058 206.187 808.867 204.113 808.857C197.409 808.857 194.057 811.967 194.057 818.186C193.951 819.879 194.249 821.573 194.925 823.126C195.6 824.68 196.634 826.05 197.941 827.121C200.826 829.109 204.291 830.068 207.781 829.845H212.734L212.721 836.967Z" fill="#F9F9F9"/>
<path d="M306.325 858.009V864.968H248.127V858.009H286.848V793.127H300.735V858.009H306.325ZM265.911 857.382C265.316 856.747 264.773 856.063 264.287 855.339L262.041 851.949C261.083 850.372 260.237 848.728 259.509 847.032C258.635 844.931 257.884 842.78 257.263 840.59C256.507 837.914 255.964 835.181 255.638 832.418C255.179 829.157 254.953 825.866 254.962 822.572V804.363H269.849V823.198C269.819 827.848 270.063 832.496 270.581 837.117C270.885 840.464 271.391 843.788 272.096 847.072C272.587 849.267 273.243 851.421 274.059 853.515C274.477 854.726 275.002 855.898 275.629 857.015L276.305 858.036H266.52L265.911 857.382Z" fill="#F9F9F9"/>
<path d="M358.311 830.39C362.95 835.667 365.343 842.566 364.976 849.601C364.609 856.637 361.51 863.246 356.348 868.005C351.149 871.743 344.852 873.614 338.469 873.317C334.527 873.662 330.558 873.088 326.873 871.638C323.187 870.188 319.884 867.9 317.22 864.955H300.749V857.995H313.512C312.465 854.592 311.954 851.044 311.996 847.482C311.924 844.304 312.477 841.143 313.625 838.182C314.772 835.22 316.491 832.517 318.682 830.227C324.086 825.212 331.177 822.441 338.529 822.471C345.88 822.501 352.947 825.33 358.311 830.39ZM350.61 848.599C350.741 844.18 350.076 839.772 348.647 835.592C348.026 833.364 346.697 831.401 344.865 830.004C343.032 828.606 340.796 827.851 338.496 827.851C336.197 827.851 333.961 828.606 332.128 830.004C330.296 831.401 328.967 833.364 328.346 835.592C326.945 839.802 326.299 844.228 326.437 848.665C326.437 861.667 330.466 868.174 338.524 868.183C346.581 868.192 350.641 861.685 350.704 848.665" fill="#F9F9F9"/>
<path d="M428.798 793.127V864.955H376.19V857.996H414.911V793.114L428.798 793.127ZM403.394 798.67H377.935V792.909H382.213C380.845 791.907 379.74 790.585 378.995 789.057C378.25 787.528 377.886 785.841 377.935 784.139C377.891 782.545 378.202 780.96 378.843 779.501C379.485 778.043 380.441 776.747 381.644 775.708C384.822 773.155 388.832 771.882 392.891 772.14C395.734 772.184 398.569 772.43 401.377 772.875V777.846C399.69 777.523 397.978 777.355 396.261 777.343C391.353 777.343 388.898 779.612 388.898 784.152C388.898 789.999 392.363 792.923 399.293 792.923H403.353L403.394 798.67ZM394.014 857.383C393.415 856.747 392.867 856.064 392.377 855.34L390.13 851.948C389.17 850.373 388.324 848.73 387.599 847.032C386.723 844.932 385.973 842.78 385.353 840.59C384.597 837.914 384.054 835.182 383.729 832.419C383.269 829.157 383.042 825.866 383.051 822.572V804.363H397.94V823.199C397.91 827.849 398.154 832.496 398.671 837.117C398.975 840.463 399.481 843.788 400.187 847.073C400.677 849.267 401.333 851.421 402.148 853.515C402.566 854.732 403.091 855.908 403.719 857.029L404.395 858.05H394.61L394.014 857.383Z" fill="#F9F9F9"/>
<path d="M453.931 793.127H440.045V864.955H453.931V793.127Z" fill="#F9F9F9"/>
<path d="M495.793 857.669C491.587 852.843 489.43 846.55 489.784 840.141C489.712 836.963 490.266 833.802 491.413 830.841C492.561 827.879 494.279 825.176 496.47 822.886C501.875 817.874 508.966 815.105 516.316 815.135C523.667 815.165 530.734 817.992 536.099 823.049C540.488 827.626 542.892 833.768 542.784 840.127C543.056 843.871 542.407 847.624 540.897 851.056C539.386 854.488 537.06 857.494 534.123 859.807C528.878 863.433 522.601 865.24 516.243 864.955C512.515 865.239 508.77 864.736 505.246 863.479C501.722 862.222 498.498 860.239 495.78 857.655M501.843 807.373C501.136 806.72 500.574 805.924 500.196 805.036C499.818 804.149 499.633 803.19 499.651 802.225C499.635 801.239 499.827 800.261 500.214 799.355C500.601 798.448 501.175 797.635 501.897 796.968C503.457 795.525 505.517 794.752 507.636 794.816C508.686 794.778 509.733 794.948 510.718 795.317C511.702 795.686 512.605 796.248 513.374 796.968C514.068 797.651 514.616 798.47 514.984 799.374C515.351 800.278 515.532 801.248 515.513 802.225C515.539 803.199 515.356 804.169 514.978 805.066C514.6 805.964 514.034 806.769 513.32 807.428C511.704 808.761 509.679 809.489 507.589 809.489C505.499 809.489 503.473 808.761 501.856 807.428M525.69 854.264C527.682 850.252 528.614 845.791 528.397 841.312C528.528 836.893 527.864 832.486 526.436 828.305C525.814 826.078 524.486 824.116 522.653 822.719C520.82 821.321 518.584 820.564 516.285 820.564C513.985 820.564 511.748 821.321 509.916 822.719C508.083 824.116 506.755 826.078 506.134 828.305C504.735 832.511 504.089 836.934 504.225 841.367C504.002 845.882 504.934 850.379 506.932 854.427C507.887 856.096 509.264 857.48 510.923 858.438C512.582 859.397 514.463 859.896 516.376 859.885C518.289 859.874 520.166 859.353 521.814 858.375C523.462 857.397 524.822 855.998 525.758 854.319M519.357 807.482C518.65 806.829 518.088 806.033 517.71 805.145C517.332 804.257 517.145 803.299 517.164 802.334C517.147 801.347 517.34 800.369 517.727 799.463C518.114 798.556 518.688 797.743 519.411 797.077C520.971 795.634 523.031 794.861 525.149 794.925C526.199 794.887 527.247 795.057 528.231 795.426C529.216 795.795 530.119 796.357 530.888 797.077C531.582 797.76 532.13 798.579 532.497 799.483C532.865 800.387 533.045 801.357 533.027 802.334C533.053 803.308 532.87 804.277 532.492 805.175C532.113 806.073 531.548 806.878 530.834 807.537C529.218 808.872 527.193 809.602 525.102 809.602C523.012 809.602 520.985 808.872 519.37 807.537" fill="#F9F9F9"/>
<path d="M548.469 884.553C550.741 883.689 552.926 882.607 554.993 881.324C556.664 880.27 558.244 879.077 559.717 877.756C563.449 874 565.724 869.024 566.132 863.728C566.394 861.386 566.542 859.521 566.578 858.132C566.578 857.079 566.578 855.004 566.578 851.908V816.334H580.411V850.614C580.411 853.629 580.339 856.061 580.194 857.913C580.139 862.37 579.065 866.755 577.056 870.727C575.047 874.7 572.157 878.152 568.609 880.82C566.277 882.375 563.813 883.72 561.246 884.839C558.014 886.19 554.69 887.305 551.298 888.175L548.469 884.553Z" fill="#F9F9F9"/>
<path d="M605.531 793.127H591.644V864.955H605.531V793.127Z" fill="#F9F9F9"/>
<path d="M616.764 857.996H639.772C649.364 857.996 654.159 851.998 654.159 840.004C654.159 828.846 649.364 823.266 639.772 823.266H622.354V815.095H640.341C647.94 814.481 655.505 816.648 661.644 821.196C666.106 826.434 668.559 833.106 668.559 840.004C668.559 846.903 666.106 853.574 661.644 858.812C655.508 863.367 647.942 865.538 640.341 864.927H616.737L616.764 857.996Z" fill="#F9F9F9"/>
<path d="M732.443 793.127V864.955H679.834V857.995H718.557V793.113L732.443 793.127ZM701.639 891.376H705.698V897.205H680.24V891.376H684.518C683.15 890.373 682.046 889.052 681.301 887.523C680.556 885.995 680.191 884.307 680.24 882.605C680.195 881.011 680.506 879.426 681.147 877.967C681.789 876.509 682.746 875.213 683.949 874.174C687.128 871.621 691.136 870.349 695.196 870.607C698.038 870.65 700.875 870.896 703.683 871.342V876.286C701.996 875.961 700.283 875.793 698.566 875.782C693.649 875.782 691.195 878.052 691.204 882.592C691.204 888.439 694.668 891.362 701.598 891.362M697.605 857.314C697.005 856.679 696.457 855.995 695.967 855.271L693.72 851.88C692.762 850.304 691.916 848.66 691.189 846.963C690.314 844.863 689.565 842.712 688.944 840.522C688.188 837.846 687.645 835.113 687.32 832.35C686.86 829.088 686.633 825.798 686.643 822.504V804.294H701.53V823.13C701.5 827.78 701.745 832.428 702.262 837.049C702.568 840.395 703.074 843.719 703.777 847.004C704.269 849.198 704.925 851.352 705.74 853.446C706.156 854.659 706.681 855.83 707.309 856.947L707.987 857.968H698.201L697.605 857.314Z" fill="#F9F9F9"/>
<path d="M420.664 605.032L419.31 606.394L420.664 607.756V608.178H123.935C123.706 608.178 123.478 608.224 123.267 608.312C123.055 608.4 122.862 608.529 122.7 608.693C122.538 608.856 122.409 609.05 122.322 609.263C122.234 609.476 122.189 609.704 122.189 609.934V610.275C122.189 610.741 122.005 611.188 121.677 611.517C121.35 611.847 120.906 612.032 120.443 612.032H112.011C111.548 612.032 111.104 611.847 110.776 611.517C110.449 611.188 110.265 610.741 110.265 610.275V602.444C110.265 601.978 110.449 601.532 110.776 601.202C111.104 600.873 111.548 600.688 112.011 600.688H120.443C120.906 600.688 121.35 600.873 121.677 601.202C122.005 601.532 122.189 601.978 122.189 602.444V602.785C122.189 603.016 122.234 603.244 122.322 603.457C122.409 603.671 122.538 603.864 122.7 604.027C122.862 604.19 123.055 604.319 123.267 604.407C123.478 604.496 123.706 604.541 123.935 604.541H420.65L420.664 605.032Z" fill="#F9F9F9"/>
<path d="M772.749 602.39V610.221C772.749 610.687 772.565 611.133 772.237 611.463C771.91 611.792 771.465 611.977 771.002 611.977H762.57C762.107 611.977 761.664 611.792 761.336 611.463C761.009 611.133 760.825 610.687 760.825 610.221V609.88C760.825 609.414 760.641 608.968 760.314 608.638C759.986 608.309 759.542 608.124 759.079 608.124H462.675V607.252L463.689 606.23L462.675 605.208V604.514H759.079C759.542 604.514 759.986 604.329 760.314 604C760.641 603.67 760.825 603.223 760.825 602.757V602.39C760.825 601.924 761.009 601.477 761.336 601.148C761.664 600.818 762.107 600.632 762.57 600.632H771.002C771.465 600.632 771.91 600.818 772.237 601.148C772.565 601.477 772.749 601.924 772.749 602.39Z" fill="#F9F9F9"/>
<path d="M454.392 594.831C454.064 594.503 453.621 594.32 453.16 594.32C452.698 594.32 452.255 594.503 451.928 594.831L449.221 597.555L441.548 605.277L440.492 606.366L451.726 617.67C451.888 617.835 452.081 617.965 452.293 618.054C452.506 618.143 452.734 618.189 452.964 618.189C453.194 618.189 453.421 618.143 453.634 618.054C453.847 617.965 454.04 617.835 454.202 617.67L463.677 608.137L464.326 607.483C464.652 607.154 464.835 606.709 464.835 606.244C464.835 605.779 464.652 605.334 464.326 605.005L454.392 594.831ZM450.331 614.129L448.531 612.318L443.781 607.565C443.617 607.402 443.488 607.208 443.4 606.994C443.311 606.78 443.265 606.55 443.265 606.319C443.265 606.087 443.311 605.858 443.4 605.644C443.488 605.43 443.617 605.236 443.781 605.073L448.504 600.32L450.304 598.508L451.983 596.819C452.31 596.492 452.753 596.308 453.214 596.308C453.676 596.308 454.119 596.492 454.446 596.819L463.703 606.135L462.689 607.157L454.297 615.628C454.134 615.792 453.942 615.922 453.729 616.011C453.516 616.1 453.288 616.146 453.058 616.146C452.828 616.146 452.6 616.1 452.387 616.011C452.175 615.922 451.982 615.792 451.82 615.628L450.331 614.129Z" fill="#F9F9F9"/>
<path d="M450.25 598.522L449.262 597.528L442.739 590.963C442.576 590.799 442.383 590.668 442.17 590.579C441.958 590.49 441.73 590.445 441.5 590.445C441.269 590.445 441.042 590.49 440.83 590.579C440.617 590.668 440.424 590.799 440.261 590.963L432.831 598.44L426.415 604.923C426.09 605.252 425.907 605.697 425.907 606.162C425.907 606.627 426.09 607.072 426.415 607.401L440.464 621.538C440.627 621.703 440.819 621.833 441.032 621.922C441.245 622.011 441.473 622.056 441.703 622.056C441.933 622.056 442.161 622.011 442.374 621.922C442.586 621.833 442.779 621.703 442.941 621.538L449.289 615.151L450.277 614.157L456.801 607.592C456.964 607.428 457.093 607.235 457.182 607.021C457.27 606.807 457.316 606.577 457.316 606.346C457.316 606.114 457.27 605.885 457.182 605.672C457.093 605.458 456.964 605.263 456.801 605.1L450.25 598.522ZM442.941 617.916C442.779 618.08 442.586 618.21 442.374 618.299C442.161 618.388 441.933 618.434 441.703 618.434C441.473 618.434 441.245 618.388 441.032 618.299C440.819 618.21 440.627 618.08 440.464 617.916L435.646 613.067L434.658 612.073L430.016 607.401C429.691 607.072 429.507 606.627 429.507 606.162C429.507 605.697 429.691 605.252 430.016 604.923L434.632 600.252L435.62 599.257L440.261 594.586C440.424 594.422 440.617 594.291 440.83 594.202C441.042 594.113 441.269 594.067 441.5 594.067C441.73 594.067 441.958 594.113 442.17 594.202C442.383 594.291 442.576 594.422 442.739 594.586L448.463 600.347L453.214 605.1C453.377 605.263 453.507 605.458 453.595 605.672C453.683 605.885 453.729 606.114 453.729 606.346C453.729 606.577 453.683 606.807 453.595 607.021C453.507 607.235 453.377 607.428 453.214 607.592L442.941 617.916Z" fill="#F9F9F9"/>
<path d="M441.574 605.236L435.606 599.23L433.806 597.419L431.234 594.831C431.072 594.667 430.879 594.536 430.666 594.447C430.454 594.358 430.226 594.312 429.995 594.312C429.765 594.312 429.538 594.358 429.325 594.447C429.113 594.536 428.919 594.667 428.757 594.831L419.284 604.365L418.634 605.018C418.308 605.347 418.125 605.793 418.125 606.257C418.125 606.722 418.308 607.168 418.634 607.497L419.108 607.973L428.581 617.507C428.908 617.834 429.351 618.019 429.813 618.019C430.274 618.019 430.717 617.834 431.044 617.507L433.752 614.783L435.552 612.971L441.331 607.156L442.387 606.067L441.574 605.236ZM431.085 615.641C430.758 615.969 430.315 616.153 429.853 616.153C429.392 616.153 428.949 615.969 428.622 615.641L419.365 606.326L420.718 604.964L428.839 596.792C429.001 596.628 429.194 596.498 429.406 596.409C429.619 596.32 429.847 596.274 430.077 596.274C430.307 596.274 430.535 596.32 430.748 596.409C430.96 596.498 431.153 596.628 431.315 596.792L434.699 600.197L439.368 604.868C439.531 605.032 439.661 605.226 439.75 605.44C439.838 605.653 439.884 605.883 439.884 606.114C439.884 606.346 439.838 606.576 439.75 606.789C439.661 607.003 439.531 607.197 439.368 607.361L431.085 615.641Z" fill="#F9F9F9"/>
<path d="M232.549 710.772V735.586C221.545 742.116 208.922 745.362 196.155 744.943C189.619 745.053 183.128 743.839 177.068 741.373C171.009 738.907 165.504 735.24 160.882 730.589C156.26 725.939 152.616 720.399 150.165 714.301C147.715 708.203 146.509 701.672 146.618 695.096C146.325 682.696 150.817 670.664 159.151 661.525C163.388 657.124 168.487 653.658 174.125 651.346C179.764 649.035 185.818 647.928 191.904 648.096C197.934 647.498 204.021 648.184 209.77 650.11C215.518 652.037 220.798 655.16 225.267 659.277C227.048 661.937 228.094 665.025 228.299 668.226C228.628 671.606 228.764 675.003 228.705 678.399H224.644C224.375 674.918 223.422 671.524 221.839 668.416C220.256 665.308 218.075 662.548 215.424 660.295C212.772 658.042 209.702 656.342 206.392 655.293C203.081 654.244 199.597 653.867 196.141 654.184C191.514 653.953 186.911 654.984 182.818 657.168C178.725 659.351 175.294 662.608 172.889 666.591C167.862 675.204 165.405 685.09 165.81 695.069C164.715 707.287 167.857 719.51 174.702 729.662C177.272 732.839 180.553 735.36 184.277 737.017C188.001 738.674 192.062 739.42 196.127 739.195C202.44 739.471 208.733 738.287 214.521 735.736V711.126C214.376 708.974 214.741 706.819 215.586 704.837C216.43 702.855 217.73 701.104 219.379 699.727C225.788 695.372 233.522 693.442 241.21 694.279V697.738C235.147 697.738 232.521 702.628 232.521 710.758" fill="#F9F9F9"/>
<path d="M320.915 691.636V650.779H338.7V727.468C338.7 735.64 340.053 741.305 348.404 741.305H349.621V745.391H333.245C331.451 745.662 329.618 745.469 327.92 744.827C326.222 744.186 324.714 743.119 323.54 741.728C321.295 737.341 320.382 732.387 320.915 727.482V697.71H283.709V745.378H265.925V668.878C265.925 660.544 264.571 655.041 256.22 655.041H254.867V650.765H271.446C273.286 650.546 275.152 650.785 276.879 651.459C278.606 652.133 280.142 653.223 281.354 654.632C283.415 659.077 284.251 663.997 283.776 668.878V691.663L320.915 691.636Z" fill="#F9F9F9"/>
<path d="M409.864 650.752L440.6 727.646C443.835 735.817 448.72 740.87 454.96 741.483V744.942C452.769 745.439 450.533 745.713 448.288 745.76C443.317 745.83 438.401 744.714 433.941 742.504C430.873 741.111 428.144 739.06 425.945 736.496C423.745 733.932 422.127 730.917 421.205 727.659L417.971 716.873H381.563L370.234 745.555H362.953L403.556 650.752H409.864ZM400.389 674.558L384.419 710.771H415.548L400.389 674.558Z" fill="#F9F9F9"/>
<path d="M494.143 666.005L512.738 694.279L539.428 650.697H548.321L517.192 701.756V745.337H499.394V705.474L474.937 668.852C472.563 665.098 469.705 661.677 466.438 658.678C463.775 656.051 460.397 654.279 456.733 653.585V650.738H471.689C476.641 650.845 481.411 652.636 485.223 655.818C488.718 658.7 491.721 662.136 494.115 665.991" fill="#F9F9F9"/>
<path d="M606.776 650.752L637.512 727.646C640.747 735.817 645.633 740.87 651.859 741.483V744.942C649.667 745.439 647.432 745.713 645.186 745.76C640.211 745.832 635.29 744.717 630.827 742.504C627.759 741.111 625.029 739.06 622.83 736.496C620.63 733.932 619.013 730.917 618.09 727.659L614.855 716.873H578.462L567.133 745.555H559.852L600.455 650.752H606.776ZM597.301 674.558L581.331 710.771H612.46L597.301 674.558Z" fill="#F9F9F9"/>
<path d="M671.89 650.752H736.381V657.058H707.675V744.738H689.877V657.058H679.97C670.266 657.058 664.202 661.334 664.202 673.537H660.141V661.933C660.009 659.183 660.791 656.466 662.362 654.211C663.593 652.972 665.08 652.02 666.717 651.422C668.354 650.824 670.101 650.596 671.835 650.752" fill="#F9F9F9"/>
<path d="M457.802 34.3047C441.416 38.2905 424.9 42.1266 408.253 45.8129C391.606 49.4992 375.089 53.0492 358.703 56.4631C347.416 58.7239 337.391 60.9938 328.63 63.2727C319.869 65.5517 311.54 67.8215 303.645 70.0823C295.381 72.081 287.302 74.7922 279.5 78.1858C274.806 80.321 270.395 83.0386 266.371 86.2755L262.987 82.0129C265.605 77.5167 268.579 73.2401 271.879 69.2244C274.77 65.4872 278.036 62.0597 281.625 58.9963C286.979 54.9937 292.646 51.4321 298.57 48.3461C303.65 45.7856 309.862 43.089 317.207 40.2562C326.816 37.4234 338.546 34.1549 352.396 30.4505C366.246 26.746 379.659 23.1959 392.634 19.8001C408.434 15.8324 423.682 12.1371 438.38 8.71416C448.973 6.4406 459.437 3.59461 469.726 0.188538L471.418 2.7489L457.802 34.3047Z" fill="#F9F9F9"/>
<path d="M293.345 295.385C284.115 305.15 275.507 315.296 267.048 325.279L257.304 336.747C247.829 328.439 238.599 319.818 229.815 310.789C206.937 289.36 189.88 262.404 180.265 232.478C173.408 206.062 175.67 178.086 186.681 153.133C190.294 144.961 203.288 121.536 198.862 143.272C195.931 156.515 196.694 170.316 201.068 183.149C208.106 200.912 218.369 217.201 231.331 231.184C250.685 253.847 271.41 275.289 293.387 295.385" fill="#F9F9F9"/>
<path d="M553.153 440.13C552.784 467.786 542.014 494.275 523.012 514.26C510.395 526.072 496.45 536.36 481.461 544.917C477.806 547.246 474.166 549.561 470.566 551.985C467.38 554.844 463.879 557.326 460.131 559.38C452.538 561.9 457.315 544.481 457.234 540.436C455.159 519.802 446.239 500.472 431.911 485.564C402.71 452.757 370.033 423.26 334.463 397.597C335.058 396.821 335.627 396.045 336.25 395.282C338.957 392.15 341.663 389.018 344.37 385.912C351.597 377.741 357.904 370.931 363.684 364.966C363.705 364.925 363.738 364.892 363.779 364.87C365.295 363.426 366.823 361.997 368.38 360.594C395.437 378.328 420.959 398.329 444.674 420.383C468.467 442.55 486.295 470.418 496.497 501.39C504.46 500.917 512.19 498.508 519.026 494.372C525.861 490.235 531.599 484.493 535.747 477.638C542.625 466.428 547.691 454.191 550.757 441.383C550.852 441.084 550.933 440.77 551.014 440.471C551.704 438.019 552.367 435.554 553.03 433.117C553.125 435.459 553.166 437.815 553.125 440.171" fill="#F9F9F9"/>
<path d="M559.338 524.515C558.468 523.779 557.461 523.224 556.376 522.882C555.291 522.541 554.149 522.42 553.017 522.526L528.547 524.774C527.416 524.878 526.316 525.205 525.31 525.738C524.305 526.27 523.413 526.997 522.687 527.876C521.96 528.755 521.413 529.769 521.076 530.861C520.739 531.952 520.62 533.1 520.724 534.239L522.957 558.876C523.156 561.037 524.148 563.045 525.74 564.508C527.332 565.971 529.409 566.785 531.565 566.789H532.363L556.834 564.542C557.973 564.44 559.081 564.111 560.092 563.575C561.104 563.04 562 562.307 562.729 561.421C563.458 560.534 564.004 559.511 564.338 558.41C564.671 557.309 564.784 556.153 564.67 555.008L562.438 530.385C562.336 529.246 562.01 528.138 561.48 527.126C560.951 526.114 560.227 525.217 559.351 524.487" fill="#F9F9F9"/>
<path d="M598.75 490.317C598.646 489.178 598.321 488.072 597.792 487.06C597.263 486.048 596.541 485.151 595.668 484.42C594.794 483.689 593.786 483.139 592.701 482.8C591.616 482.461 590.475 482.34 589.343 482.445L564.86 484.693C563.729 484.797 562.628 485.125 561.623 485.657C560.617 486.189 559.726 486.915 558.999 487.794C558.273 488.673 557.726 489.688 557.389 490.78C557.052 491.872 556.933 493.02 557.037 494.158L559.27 518.781C559.466 520.943 560.457 522.952 562.05 524.416C563.642 525.88 565.721 526.693 567.878 526.694H568.677L593.147 524.447C594.279 524.345 595.381 524.018 596.388 523.486C597.395 522.955 598.288 522.229 599.016 521.35C599.744 520.471 600.293 519.455 600.63 518.362C600.968 517.27 601.087 516.121 600.983 514.982L598.75 490.317Z" fill="#F9F9F9"/>
<path d="M457.68 84.9409C457.577 83.8024 457.251 82.6957 456.722 81.6838C456.193 80.672 455.472 79.7748 454.598 79.0438C453.725 78.3127 452.717 77.7621 451.632 77.4232C450.547 77.0844 449.405 76.964 448.274 77.0689L423.804 79.3162C422.672 79.4205 421.573 79.748 420.567 80.2802C419.562 80.8124 418.67 81.5388 417.944 82.4178C417.217 83.2968 416.67 84.3113 416.333 85.4032C415.996 86.4952 415.877 87.643 415.981 88.7815L418.215 113.405C418.413 115.565 419.405 117.574 420.997 119.037C422.589 120.5 424.666 121.314 426.822 121.318H427.62L452.104 119.071C453.241 118.965 454.346 118.634 455.356 118.097C456.365 117.56 457.259 116.827 457.986 115.941C458.713 115.055 459.259 114.033 459.592 112.934C459.925 111.835 460.039 110.681 459.927 109.537L457.68 84.9409Z" fill="#F9F9F9"/>
<path d="M764.465 425.19C762.34 426.021 760.257 424.032 758.782 422.289C748.988 410.666 737.343 400.762 724.323 392.98C715.126 386.671 704.183 383.449 693.057 383.774C689.241 384.009 685.577 385.363 682.515 387.669C674.665 394.111 671.688 416.95 680.959 422.888C684.502 424.836 688.401 426.037 692.421 426.416C695.235 427.329 698.222 427.566 701.143 427.11C704.064 426.653 706.839 425.516 709.245 423.787C711.262 421.731 712.453 418.639 715.147 417.631C716.404 417.341 717.705 417.312 718.973 417.547C720.241 417.781 721.449 418.273 722.522 418.993C742.569 429.313 760.125 443.929 773.953 461.812C775.374 463.664 777.35 465.762 779.597 465.176C781.844 464.591 782.589 461.444 782.602 458.952C782.738 428.581 765.169 400.28 765.101 369.909C764.848 367.829 765.077 365.719 765.767 363.741C766.457 361.764 767.591 359.974 769.081 358.51C770.829 357.558 772.77 357.018 774.756 356.933C776.743 356.849 778.721 357.22 780.544 358.02C784.188 359.651 788.184 360.321 792.157 359.968C792.85 359.858 793.5 359.561 794.039 359.109C794.458 358.568 794.761 357.944 794.929 357.278C795.097 356.613 795.126 355.919 795.013 355.241C795.432 349.129 793.915 343.041 790.681 337.85C787.571 334.435 783.593 331.94 779.177 330.632C774.316 328.361 768.848 327.758 763.613 328.916C761.252 329.788 759.103 331.154 757.306 332.924C755.51 334.695 754.107 336.828 753.191 339.185C751.368 343.908 750.451 348.935 750.485 354.002C750.39 369.277 752.478 384.486 756.683 399.164C758.971 407.893 761.665 416.542 764.344 425.122" fill="#F9F9F9"/>
<path d="M354.345 457.372C347.609 455.933 340.585 456.896 334.476 460.096C322.92 464.883 312.101 471.303 302.346 479.163L302.264 479.231C300.748 480.471 299.138 482.2 299.639 484.079L316.327 479.694C319.409 478.329 322.783 477.761 326.139 478.042C329.496 478.323 332.729 479.443 335.546 481.301C336.8 482.644 337.745 484.247 338.316 485.998C338.886 487.749 339.068 489.605 338.848 491.434C338.379 495.092 337.108 498.6 335.126 501.703C328.845 511.252 320.726 519.439 311.251 525.782C293.297 538.653 274.605 550.449 255.273 561.11C252.904 562.472 250.279 564.161 249.86 566.871C254.168 564.881 258.637 563.263 263.218 562.036C267.919 560.22 272.561 558.227 277.145 556.057C286.037 551.972 294.74 547.491 303.374 542.806C321.859 533.523 338.74 521.309 353.37 506.633C360.535 499.837 365.417 490.964 367.338 481.246C368.155 476.385 367.318 471.39 364.963 467.067C362.607 462.744 358.87 459.348 354.358 457.427" fill="#F9F9F9"/>
<path d="M882.526 367.758C882.174 362.923 881.674 358.102 880.957 353.321C875.989 319.777 859.301 284.531 827.833 272.369C807.362 265.553 785.085 266.804 765.494 275.869C746.134 284.94 727.99 296.434 711.492 310.08C676.952 336.297 641.627 359.11 607.101 385.367C598.98 343.951 613.286 304.81 629.527 265.886C645.768 226.962 665.149 188.256 669.44 146.309C670.483 140.552 669.84 134.613 667.586 129.217C666.365 126.574 664.209 124.482 661.54 123.349C658.871 122.216 655.878 122.123 653.145 123.088C650.088 125.041 647.743 127.936 646.458 131.342C635.049 154.603 627.51 179.704 615.329 202.57C604.346 226.359 584.719 245.007 560.488 254.677C528.005 265.15 493.465 250.237 462.783 235.392C479.214 194.916 522.199 171.668 544.49 134.12C558.768 109.814 563.59 81.0459 558.024 53.3717C557.803 51.4491 557.031 49.6325 555.805 48.1418C554.339 47.0375 552.512 46.5333 550.691 46.7304C548.871 46.9275 547.192 47.8114 545.993 49.2042C543.702 52.0961 542.08 55.4641 541.242 59.0645C526.733 102.986 483.261 129.666 456.219 167.133C440.803 188.502 431.22 219.172 446.744 240.472C447.791 241.908 448.93 243.273 450.155 244.558C467.259 252.557 481.224 266.067 489.838 282.951L497.418 298.354C498.242 299.287 499.148 300.144 500.125 300.915C504.6 304.039 509.776 305.995 515.188 306.607C535.216 310.166 555.766 309.414 575.484 304.401C573.902 317.715 573.843 331.168 575.308 344.496C576.201 358.434 578.037 372.294 580.803 385.98C581.507 389.449 582.27 392.903 583.091 396.344L582.129 396.794C571.65 402.178 560.312 405.663 548.632 407.09C538.428 376.124 520.6 348.26 496.809 326.096C490.691 320.05 484.316 314.329 477.752 308.814L472.866 308.664H470.159C450.302 309.174 430.897 314.731 413.748 324.816C417.619 327.912 421.458 331.058 425.266 334.254L425.36 334.186C446.649 351.368 466.293 370.518 484.032 391.387C498.364 406.298 507.286 425.633 509.355 446.273C509.423 450.358 504.645 467.723 512.251 465.217C515.999 463.155 519.5 460.669 522.686 457.808C526.287 455.384 529.927 453.055 533.514 450.726C537.398 448.261 543.529 445.033 550.648 441.397L553.031 440.185C564.318 434.451 577.636 427.805 588.423 421.54L589.899 420.668C595.017 436.417 601.389 451.725 608.954 466.443C633.154 513.47 672.661 563.902 729.831 566.435C746.809 566.284 763.59 562.757 779.208 556.056C794.826 549.354 808.974 539.612 820.836 527.389C842.048 506.923 858.553 482.035 869.193 454.471C879.834 426.906 884.352 397.333 882.432 367.826M858.881 352.545C857.101 378.948 849.994 404.71 837.994 428.259C825.994 451.807 809.352 472.649 789.085 489.514C767.388 508.922 739.602 520.038 710.585 520.92C697.071 519.59 684.018 515.261 672.367 508.243C660.717 501.224 650.758 491.692 643.21 480.334C628.246 457.914 617.027 433.182 609.997 407.117C610.985 406.586 611.973 406.082 612.974 405.538C646.011 387.313 678.115 367.426 709.164 345.953C736.49 327.554 765.914 301.01 798.883 294.377C808.134 292.019 817.856 292.317 826.947 295.237C836.038 298.157 844.133 303.582 850.314 310.897C857.835 323.38 860.869 338.082 858.909 352.545" fill="#F9F9F9"/>
<path d="M360.341 343.761C370.655 333.708 381.833 324.593 393.743 316.522C417.112 300.049 444.942 291.188 473.475 291.136C467.017 279.542 457.578 269.909 446.148 263.247C434.718 256.586 421.717 253.141 408.509 253.274C381.965 253.976 356.385 263.436 335.708 280.2C315.218 296.896 296.609 315.804 280.217 336.583L192.243 440.253C183.445 450.617 174.648 460.981 165.093 470.637C154.026 481.81 141.996 491.973 129.145 501.008C114.313 511.997 97.6336 520.204 79.9071 525.237C66.7424 528.632 53.0422 529.386 39.588 527.457C30.4358 526.113 21.5156 523.486 13.0874 519.653C4.39832 515.703 -6.23959 509.874 4.53382 521.845C20.5102 536.871 39.3452 548.486 59.9032 555.989C85.3155 567.268 113.756 569.632 140.663 562.703C167.643 552.885 191.715 536.356 210.636 514.655C253.946 470.665 290.571 420.573 331.404 374.254C340.675 363.74 350.203 353.389 360.327 343.706" fill="#F9F9F9"/>
<path d="M132.272 398.592C131.401 397.858 130.394 397.304 129.309 396.965C128.224 396.626 127.082 396.508 125.951 396.617L101.481 398.864C100.349 398.967 99.2474 399.293 98.2403 399.825C97.2332 400.356 96.34 401.082 95.6121 401.961C94.8842 402.84 94.3359 403.856 93.9984 404.949C93.6608 406.041 93.5406 407.19 93.6448 408.329L95.8781 432.954C96.0739 435.115 97.0653 437.125 98.6578 438.589C100.25 440.053 102.329 440.865 104.486 440.866H105.284L129.755 438.619C130.894 438.516 132.001 438.188 133.013 437.652C134.025 437.116 134.921 436.384 135.65 435.497C136.378 434.611 136.925 433.588 137.258 432.487C137.592 431.387 137.705 430.231 137.591 429.086L135.398 404.53C135.297 403.39 134.972 402.283 134.443 401.27C133.913 400.258 133.189 399.362 132.313 398.633" fill="#F9F9F9"/>
<path d="M171.698 364.38C171.594 363.242 171.269 362.135 170.74 361.123C170.211 360.111 169.489 359.214 168.616 358.483C167.742 357.752 166.734 357.201 165.649 356.862C164.564 356.523 163.423 356.403 162.292 356.508L137.822 358.756C136.69 358.86 135.59 359.187 134.585 359.719C133.579 360.252 132.687 360.978 131.961 361.857C131.234 362.736 130.687 363.75 130.35 364.842C130.014 365.934 129.894 367.082 129.999 368.221L132.232 392.845C132.431 395.005 133.423 397.013 135.015 398.476C136.606 399.94 138.683 400.753 140.84 400.757H141.638L166.108 398.511C168.394 398.3 170.504 397.184 171.973 395.409C173.443 393.634 174.151 391.346 173.945 389.045L171.698 364.38Z" fill="#F9F9F9"/>
<path d="M388.371 237.463C368.079 241.317 348.84 249.495 331.946 261.446C312.478 246.214 293.976 229.771 276.549 212.213C253.231 190.371 235.848 162.894 226.052 132.39C219.061 105.467 221.366 76.9518 232.59 51.5193C236.271 43.1434 249.521 19.3235 244.973 41.4956C241.98 54.9912 242.758 69.057 247.22 82.1353C254.405 100.23 264.864 116.827 278.065 131.083C311.633 169.758 348.547 205.357 388.371 237.463Z" fill="#F9F9F9"/>
</g>
<defs>
<clipPath id="clip0_182_2002">
<rect width="883" height="896.976" fill="white" transform="translate(0 0.215759)"/>
</clipPath>
</defs>
</svg>
