<svg width="102" height="103" viewBox="0 0 102 103" fill="none" xmlns="http://www.w3.org/2000/svg">
<g clip-path="url(#clip0_182_2659)">
<path d="M27.155 90.9108V99.1463H20.7553C19.7688 99.238 18.7826 98.9685 17.9776 98.3874C17.7239 98.1275 17.5287 97.8158 17.4052 97.4734C17.2818 97.1309 17.233 96.7658 17.2623 96.4027C17.2827 95.5878 17.4575 94.7843 17.7775 94.0355H19.3044C19.0071 94.6866 18.851 95.3941 18.8466 96.1107C18.8466 97.6024 19.6158 98.3483 21.1542 98.3483H25.5691V90.9093L27.155 90.9108ZM24.3897 95.9373H20.6002V95.1269H21.3094C21.1007 94.9825 20.9282 94.7914 20.8053 94.5686C20.6825 94.3458 20.6127 94.0974 20.6014 93.8428C20.5901 93.5883 20.6377 93.3346 20.7403 93.1016C20.843 92.8687 20.9979 92.6629 21.193 92.5004C21.6962 92.1318 22.3112 91.9508 22.9325 91.9883C23.3277 91.9943 23.7218 92.0293 24.1119 92.0929V92.78C23.8779 92.7374 23.6406 92.7155 23.4027 92.7144C22.6341 92.7144 22.2497 93.071 22.2497 93.784C22.2377 93.9781 22.2718 94.1723 22.3492 94.3504C22.4267 94.5286 22.5452 94.6856 22.6951 94.8084C23.0259 95.0363 23.4231 95.1463 23.8233 95.1207H24.3912L24.3897 95.9373Z" fill="white"/>
<path d="M35.1219 98.3499V99.1478H28.4492V98.3499H32.8889V90.9108H34.481V98.3499H35.1219ZM30.4882 98.278C30.42 98.2051 30.3577 98.1268 30.302 98.0438L30.0445 97.655C29.9347 97.4742 29.8377 97.2858 29.7543 97.0913C29.654 96.8504 29.5679 96.6039 29.4967 96.3527C29.4101 96.0459 29.3478 95.7326 29.3105 95.4158C29.2578 95.0418 29.2319 94.6646 29.2329 94.2869V92.1991H30.9398V94.3586C30.9363 94.8918 30.9643 95.4247 31.0237 95.9546C31.0586 96.3382 31.1166 96.7193 31.1975 97.0959C31.2537 97.3475 31.329 97.5945 31.4225 97.8346C31.4704 97.9735 31.5306 98.1079 31.6025 98.2359L31.68 98.353H30.5581L30.4882 98.278Z" fill="white"/>
<path d="M41.0824 95.1832C41.6143 95.7882 41.8887 96.5793 41.8467 97.3859C41.8046 98.1926 41.4493 98.9503 40.8574 99.496C40.2613 99.9246 39.5393 100.139 38.8075 100.105C38.3554 100.145 37.9004 100.079 37.4779 99.9125C37.0553 99.7462 36.6765 99.4839 36.3711 99.1462H34.4826V98.3483H35.9459C35.826 97.9581 35.7673 97.5514 35.7721 97.1429C35.7639 96.7785 35.8274 96.4162 35.9589 96.0766C36.0905 95.7371 36.2876 95.4271 36.5388 95.1645C37.1584 94.5895 37.9714 94.2718 38.8143 94.2753C39.6572 94.2788 40.4675 94.6031 41.0824 95.1832ZM40.1995 97.271C40.2145 96.7643 40.1382 96.259 39.9744 95.7796C39.9032 95.5242 39.7508 95.2992 39.5407 95.139C39.3306 94.9787 39.0742 94.8921 38.8106 94.8921C38.5469 94.8921 38.2905 94.9787 38.0804 95.139C37.8703 95.2992 37.718 95.5242 37.6467 95.7796C37.4861 96.2623 37.4121 96.7698 37.4279 97.2786C37.4279 98.7693 37.8899 99.5154 38.8137 99.5164C39.7375 99.5175 40.203 98.7714 40.2103 97.2786" fill="white"/>
<path d="M49.1641 90.9109V99.1463H43.1323V98.3483H47.572V90.9094L49.1641 90.9109ZM46.2515 91.5464H43.3325V90.8859H43.8229C43.6661 90.771 43.5394 90.6194 43.454 90.4442C43.3685 90.269 43.3268 90.0754 43.3325 89.8803C43.3274 89.6976 43.363 89.5158 43.4365 89.3486C43.5101 89.1814 43.6198 89.0329 43.7576 88.9137C44.1221 88.621 44.5818 88.4751 45.0473 88.5046C45.3732 88.5096 45.6982 88.5378 46.0202 88.5889V89.1589C45.8268 89.1218 45.6305 89.1025 45.4336 89.1011C44.8708 89.1011 44.5894 89.3614 44.5894 89.8819C44.5894 90.5523 44.9867 90.8875 45.7812 90.8875H46.2467L46.2515 91.5464ZM45.176 98.2781C45.1072 98.2052 45.0445 98.1269 44.9883 98.0438L44.7306 97.655C44.6206 97.4744 44.5236 97.286 44.4404 97.0913C44.34 96.8505 44.2541 96.6039 44.1829 96.3527C44.0962 96.0459 44.034 95.7326 43.9967 95.4159C43.944 95.0419 43.918 94.6646 43.919 94.2869V92.1992H45.6261V94.3587C45.6226 94.8919 45.6506 95.4247 45.7099 95.9545C45.7447 96.3382 45.8028 96.7194 45.8837 97.096C45.9399 97.3476 46.0151 97.5946 46.1086 97.8346C46.1565 97.9741 46.2167 98.1089 46.2887 98.2375L46.3663 98.3545H45.2443L45.176 98.2781Z" fill="white"/>
<path d="M52.0459 90.9109H50.4537V99.1462H52.0459V90.9109Z" fill="white"/>
<path d="M56.8455 98.3108C56.3632 97.7576 56.1159 97.036 56.1565 96.3012C56.1483 95.9368 56.2118 95.5745 56.3433 95.2349C56.4749 94.8954 56.6719 94.5854 56.9231 94.3228C57.5429 93.7482 58.3558 93.4307 59.1986 93.4342C60.0414 93.4377 60.8517 93.7617 61.4668 94.3415C61.97 94.8663 62.2456 95.5706 62.2333 96.2997C62.2644 96.7289 62.1901 97.1592 62.0169 97.5527C61.8437 97.9462 61.577 98.2908 61.2402 98.5561C60.6389 98.9718 59.9192 99.179 59.1902 99.1463C58.7628 99.1788 58.3334 99.1212 57.9293 98.977C57.5253 98.8329 57.1556 98.6055 56.844 98.3093M57.5392 92.5442C57.4581 92.4694 57.3937 92.3781 57.3503 92.2763C57.307 92.1745 57.2857 92.0647 57.2878 91.954C57.286 91.8409 57.308 91.7288 57.3524 91.6249C57.3968 91.521 57.4626 91.4277 57.5453 91.3512C57.7243 91.1858 57.9604 91.0972 58.2033 91.1045C58.3237 91.1001 58.4438 91.1196 58.5567 91.162C58.6696 91.2043 58.7731 91.2687 58.8613 91.3512C58.9409 91.4296 59.0036 91.5234 59.0458 91.6271C59.088 91.7307 59.1087 91.842 59.1065 91.954C59.1095 92.0657 59.0885 92.1768 59.0451 92.2797C59.0018 92.3826 58.9369 92.475 58.8551 92.5505C58.6697 92.7034 58.4376 92.7869 58.1979 92.7869C57.9583 92.7869 57.726 92.7034 57.5407 92.5505M60.2734 97.9205C60.5018 97.4605 60.6087 96.9491 60.5838 96.4355C60.5988 95.9288 60.5226 95.4236 60.3588 94.9442C60.2876 94.6888 60.1353 94.4639 59.9251 94.3037C59.715 94.1434 59.4586 94.0566 59.195 94.0566C58.9313 94.0566 58.6749 94.1434 58.4647 94.3037C58.2546 94.4639 58.1024 94.6888 58.0311 94.9442C57.8708 95.4264 57.7966 95.9335 57.8122 96.4418C57.7867 96.9594 57.8936 97.475 58.1226 97.9392C58.2321 98.1305 58.39 98.2892 58.5802 98.3991C58.7704 98.509 58.9862 98.5662 59.2055 98.5649C59.4248 98.5637 59.64 98.5039 59.8289 98.3918C60.0179 98.2797 60.1739 98.1193 60.2812 97.9267M59.5472 92.5567C59.4661 92.4819 59.4017 92.3905 59.3584 92.2888C59.315 92.187 59.2937 92.0772 59.2958 91.9665C59.2939 91.8534 59.316 91.7412 59.3604 91.6373C59.4048 91.5334 59.4705 91.4402 59.5534 91.3637C59.7323 91.1982 59.9685 91.1097 60.2114 91.117C60.3318 91.1126 60.4518 91.1321 60.5647 91.1745C60.6776 91.2168 60.7812 91.2811 60.8693 91.3637C60.9489 91.4421 61.0117 91.5359 61.0539 91.6396C61.096 91.7432 61.1167 91.8545 61.1146 91.9665C61.1175 92.0782 61.0966 92.1893 61.0532 92.2922C61.0098 92.3951 60.945 92.4875 60.8631 92.563C60.6779 92.7161 60.4457 92.7998 60.206 92.7998C59.9663 92.7998 59.7339 92.7161 59.5487 92.563" fill="white"/>
<path d="M62.8851 101.393C63.1456 101.294 63.3962 101.17 63.6332 101.023C63.8248 100.902 64.0059 100.765 64.1748 100.614C64.6026 100.183 64.8635 99.6128 64.9103 99.0056C64.9403 98.7371 64.9573 98.5233 64.9615 98.364C64.9615 98.2433 64.9615 98.0054 64.9615 97.6504V93.5717H66.5475V97.5021C66.5475 97.8477 66.5392 98.1265 66.5226 98.3389C66.5163 98.8499 66.3932 99.3527 66.1628 99.8081C65.9325 100.264 65.6011 100.659 65.1943 100.965C64.9269 101.144 64.6444 101.298 64.3501 101.426C63.9795 101.581 63.5984 101.709 63.2095 101.809L62.8851 101.393Z" fill="white"/>
<path d="M69.4276 90.9109H67.8354V99.1462H69.4276V90.9109Z" fill="white"/>
<path d="M70.7156 98.3484H73.3536C74.4533 98.3484 75.0032 97.6607 75.0032 96.2856C75.0032 95.0062 74.4533 94.3665 73.3536 94.3665H71.3565V93.4296H73.4188C74.2901 93.3592 75.1575 93.6076 75.8614 94.1291C76.373 94.7297 76.6541 95.4946 76.6541 96.2856C76.6541 97.0765 76.373 97.8414 75.8614 98.442C75.1578 98.9642 74.2903 99.2131 73.4188 99.143H70.7125L70.7156 98.3484Z" fill="white"/>
<path d="M83.9789 90.9108V99.1463H77.9469V98.3483H82.3867V90.9093L83.9789 90.9108ZM80.447 102.176H80.9124V102.844H77.9935V102.176H78.4839C78.3271 102.061 78.2006 101.909 78.1151 101.734C78.0297 101.559 77.9879 101.365 77.9935 101.17C77.9883 100.987 78.0239 100.805 78.0975 100.638C78.1711 100.471 78.2808 100.322 78.4188 100.203C78.7832 99.9106 79.2428 99.7648 79.7082 99.7943C80.0341 99.7992 80.3594 99.8274 80.6813 99.8786V100.445C80.4879 100.408 80.2915 100.389 80.0946 100.388C79.5308 100.388 79.2495 100.648 79.2505 101.168C79.2505 101.839 79.6477 102.174 80.4422 102.174M79.9844 98.2702C79.9156 98.1974 79.8529 98.119 79.7967 98.036L79.539 97.6472C79.4292 97.4664 79.3322 97.278 79.2488 97.0835C79.1485 96.8426 79.0626 96.5961 78.9914 96.3449C78.9047 96.0381 78.8424 95.7248 78.8052 95.408C78.7524 95.034 78.7264 94.6568 78.7275 94.2791V92.1913H80.4345V94.3508C80.431 94.884 80.4591 95.4169 80.5184 95.9467C80.5535 96.3304 80.6115 96.7115 80.6921 97.0881C80.7485 97.3397 80.8238 97.5866 80.9171 97.8268C80.9649 97.9658 81.0251 98.1001 81.0971 98.2281L81.1748 98.3452H80.0528L79.9844 98.2702Z" fill="white"/>
<path d="M48.2315 69.3449L48.0763 69.5011L48.2315 69.6572V69.7056H14.2099C14.1836 69.7056 14.1575 69.7108 14.1332 69.721C14.1089 69.7311 14.0869 69.7459 14.0683 69.7646C14.0497 69.7833 14.0349 69.8056 14.0249 69.83C14.0148 69.8544 14.0097 69.8806 14.0097 69.907V69.9461C14.0097 69.9995 13.9885 70.0507 13.951 70.0885C13.9135 70.1262 13.8625 70.1475 13.8094 70.1475H12.8427C12.7896 70.1475 12.7387 70.1262 12.7011 70.0885C12.6636 70.0507 12.6425 69.9995 12.6425 69.9461V69.0482C12.6425 68.9948 12.6636 68.9436 12.7011 68.9058C12.7387 68.868 12.7896 68.8468 12.8427 68.8468H13.8094C13.8625 68.8468 13.9135 68.868 13.951 68.9058C13.9885 68.9436 14.0097 68.9948 14.0097 69.0482V69.0873C14.0097 69.1137 14.0148 69.1399 14.0249 69.1644C14.0349 69.1888 14.0497 69.211 14.0683 69.2297C14.0869 69.2484 14.1089 69.2632 14.1332 69.2733C14.1575 69.2834 14.1836 69.2887 14.2099 69.2887H48.2299L48.2315 69.3449Z" fill="#F5AA36"/>
<path d="M88.6001 69.042V69.9398C88.6001 69.9933 88.579 70.0445 88.5414 70.0822C88.5039 70.12 88.4529 70.1412 88.3998 70.1412H87.4331C87.38 70.1412 87.3291 70.12 87.2916 70.0822C87.254 70.0445 87.233 69.9933 87.233 69.9398V69.9008C87.233 69.8473 87.2119 69.7962 87.1743 69.7584C87.1368 69.7206 87.0858 69.6994 87.0327 69.6994H53.0483V69.5994L53.1646 69.4823L53.0483 69.3651V69.2856H87.0327C87.0858 69.2856 87.1368 69.2643 87.1743 69.2266C87.2119 69.1888 87.233 69.1375 87.233 69.0841V69.042C87.233 68.9885 87.254 68.9374 87.2916 68.8996C87.3291 68.8618 87.38 68.8405 87.4331 68.8405H88.3998C88.4529 68.8405 88.5039 68.8618 88.5414 68.8996C88.579 68.9374 88.6001 68.9885 88.6001 69.042Z" fill="#F5AA36"/>
<path d="M52.0986 68.1753C52.0611 68.1377 52.0103 68.1167 51.9574 68.1167C51.9045 68.1167 51.8537 68.1377 51.8162 68.1753L51.5058 68.4876L50.626 69.373L50.5049 69.4979L51.793 70.794C51.8116 70.8128 51.8337 70.8278 51.858 70.838C51.8824 70.8482 51.9085 70.8534 51.9349 70.8534C51.9613 70.8534 51.9874 70.8482 52.0118 70.838C52.0361 70.8278 52.0583 70.8128 52.0769 70.794L53.1632 69.7009L53.2376 69.626C53.275 69.5882 53.296 69.5371 53.296 69.4839C53.296 69.4306 53.275 69.3795 53.2376 69.3418L52.0986 68.1753ZM51.6331 70.388L51.4267 70.1803L50.882 69.6353C50.8633 69.6166 50.8485 69.5944 50.8383 69.5698C50.8282 69.5453 50.8229 69.519 50.8229 69.4925C50.8229 69.4659 50.8282 69.4396 50.8383 69.4151C50.8485 69.3905 50.8633 69.3683 50.882 69.3496L51.4236 68.8046L51.63 68.5969L51.8224 68.4033C51.8599 68.3657 51.9107 68.3447 51.9636 68.3447C52.0166 68.3447 52.0673 68.3657 52.1049 68.4033L53.1662 69.4714L53.0499 69.5885L52.0877 70.5598C52.0691 70.5786 52.047 70.5935 52.0226 70.6037C51.9983 70.6139 51.9721 70.6192 51.9457 70.6192C51.9193 70.6192 51.8932 70.6139 51.8688 70.6037C51.8445 70.5935 51.8224 70.5786 51.8038 70.5598L51.6331 70.388Z" fill="#F5AA36"/>
<path d="M51.6238 68.5985L51.5105 68.4845L50.7626 67.7319C50.744 67.7131 50.7218 67.6981 50.6974 67.6879C50.673 67.6777 50.6469 67.6724 50.6205 67.6724C50.5941 67.6724 50.5681 67.6777 50.5437 67.6879C50.5193 67.6981 50.4971 67.7131 50.4785 67.7319L49.6266 68.5891L48.891 69.3324C48.8537 69.3701 48.8328 69.4212 48.8328 69.4745C48.8328 69.5277 48.8537 69.5788 48.891 69.6166L50.5018 71.2375C50.5204 71.2563 50.5425 71.2712 50.5669 71.2814C50.5913 71.2916 50.6174 71.2968 50.6438 71.2968C50.6702 71.2968 50.6963 71.2916 50.7207 71.2814C50.7451 71.2712 50.7672 71.2563 50.7858 71.2375L51.5136 70.5051L51.6268 70.3911L52.3749 69.6384C52.3936 69.6197 52.4084 69.5975 52.4186 69.5729C52.4287 69.5484 52.4339 69.5221 52.4339 69.4955C52.4339 69.469 52.4287 69.4428 52.4186 69.4183C52.4084 69.3937 52.3936 69.3714 52.3749 69.3527L51.6238 68.5985ZM50.7858 70.8221C50.7672 70.841 50.7451 70.8559 50.7207 70.8661C50.6963 70.8763 50.6702 70.8815 50.6438 70.8815C50.6174 70.8815 50.5913 70.8763 50.5669 70.8661C50.5425 70.8559 50.5204 70.841 50.5018 70.8221L49.9494 70.2662L49.8361 70.1522L49.3039 69.6166C49.2665 69.5788 49.2455 69.5277 49.2455 69.4745C49.2455 69.4212 49.2665 69.3701 49.3039 69.3324L49.833 68.7969L49.9463 68.6828L50.4785 68.1472C50.4971 68.1284 50.5193 68.1134 50.5437 68.1032C50.5681 68.093 50.5941 68.0878 50.6205 68.0878C50.6469 68.0878 50.673 68.093 50.6974 68.1032C50.7218 68.1134 50.744 68.1284 50.7626 68.1472L51.4189 68.8077L51.9636 69.3527C51.9824 69.3714 51.9972 69.3937 52.0073 69.4183C52.0174 69.4428 52.0227 69.469 52.0227 69.4955C52.0227 69.5221 52.0174 69.5484 52.0073 69.5729C51.9972 69.5975 51.9824 69.6197 51.9636 69.6384L50.7858 70.8221Z" fill="#F5AA36"/>
<path d="M50.6291 69.3683L49.9447 68.6797L49.7384 68.472L49.4435 68.1753C49.4249 68.1565 49.4027 68.1415 49.3784 68.1313C49.354 68.1211 49.3278 68.1159 49.3014 68.1159C49.275 68.1159 49.249 68.1211 49.2246 68.1313C49.2003 68.1415 49.1781 68.1565 49.1595 68.1753L48.0733 69.2684L47.9987 69.3433C47.9614 69.3811 47.9405 69.4322 47.9405 69.4854C47.9405 69.5387 47.9614 69.5898 47.9987 69.6275L48.0531 69.6821L49.1393 70.7752C49.1768 70.8128 49.2276 70.8339 49.2805 70.8339C49.3334 70.8339 49.3842 70.8128 49.4217 70.7752L49.7321 70.4629L49.9385 70.2552L50.6011 69.5885L50.7222 69.4636L50.6291 69.3683ZM49.4264 70.5614C49.3889 70.5989 49.3381 70.62 49.2852 70.62C49.2322 70.62 49.1814 70.5989 49.1439 70.5614L48.0826 69.4932L48.2377 69.3371L49.1688 68.4002C49.1874 68.3813 49.2095 68.3664 49.2339 68.3562C49.2583 68.346 49.2844 68.3408 49.3108 68.3408C49.3372 68.3408 49.3634 68.346 49.3877 68.3562C49.4121 68.3664 49.4342 68.3813 49.4528 68.4002L49.8407 68.7906L50.3761 69.3262C50.3948 69.3449 50.4097 69.3671 50.4198 69.3917C50.43 69.4162 50.4352 69.4425 50.4352 69.469C50.4352 69.4956 50.43 69.5219 50.4198 69.5464C50.4097 69.571 50.3948 69.5932 50.3761 69.6119L49.4264 70.5614Z" fill="#F5AA36"/>
<path d="M26.6631 81.4684V84.3135C25.4015 85.0623 23.9542 85.4344 22.4903 85.3863C21.741 85.399 20.9967 85.2598 20.302 84.9771C19.6072 84.6943 18.9761 84.2739 18.4461 83.7406C17.9162 83.2074 17.4983 82.5722 17.2173 81.8731C16.9364 81.174 16.7981 80.4252 16.8107 79.6711C16.7771 78.2494 17.2921 76.8699 18.2476 75.8221C18.7334 75.3175 19.318 74.9201 19.9645 74.6551C20.611 74.39 21.3052 74.2631 22.003 74.2824C22.6943 74.2138 23.3922 74.2924 24.0513 74.5133C24.7104 74.7342 25.3159 75.0923 25.8282 75.5644C26.0324 75.8693 26.1523 76.2234 26.1758 76.5904C26.2136 76.9779 26.2291 77.3674 26.2224 77.7568H25.7568C25.726 77.3576 25.6166 76.9685 25.4351 76.6122C25.2537 76.2559 25.0036 75.9393 24.6996 75.681C24.3956 75.4227 24.0436 75.2278 23.664 75.1076C23.2845 74.9873 22.885 74.9441 22.4887 74.9804C21.9582 74.9539 21.4304 75.0721 20.9612 75.3225C20.4919 75.5729 20.0985 75.9462 19.8227 76.403C19.2464 77.3904 18.9647 78.5239 19.0111 79.6681C18.8856 81.069 19.2458 82.4704 20.0306 83.6343C20.3253 83.9986 20.7015 84.2876 21.1285 84.4776C21.5554 84.6675 22.021 84.7532 22.4872 84.7274C23.211 84.7589 23.9324 84.6232 24.5961 84.3307V81.509C24.5795 81.2624 24.6213 81.0153 24.7182 80.788C24.815 80.5608 24.9641 80.36 25.1531 80.2021C25.8879 79.7029 26.7747 79.4815 27.6562 79.5775V79.9741C26.961 79.9741 26.6599 80.5347 26.6599 81.4669" fill="white"/>
<path d="M36.7948 79.2745V74.59H38.8339V83.3828C38.8339 84.3197 38.989 84.9693 39.9465 84.9693H40.0861V85.4377H38.2085C38.0028 85.4688 37.7927 85.4466 37.598 85.3731C37.4032 85.2996 37.2304 85.1773 37.0958 85.0177C36.8383 84.5148 36.7337 83.9467 36.7948 83.3843V79.9709H32.5288V85.4362H30.4898V76.6652C30.4898 75.7096 30.3346 75.0787 29.3771 75.0787H29.222V74.5884H31.1229C31.3338 74.5633 31.5477 74.5907 31.7457 74.668C31.9438 74.7453 32.12 74.8702 32.2589 75.0319C32.4952 75.5415 32.591 76.1056 32.5366 76.6652V79.2776L36.7948 79.2745Z" fill="white"/>
<path d="M46.9932 74.5869L50.5174 83.4032C50.8882 84.3401 51.4484 84.9194 52.1638 84.9896V85.3863C51.9125 85.4432 51.6563 85.4746 51.3988 85.48C50.8289 85.488 50.2652 85.3601 49.7539 85.1068C49.4021 84.947 49.0892 84.7118 48.837 84.4179C48.5848 84.1239 48.3993 83.7782 48.2936 83.4047L47.9228 82.168H43.7484L42.4495 85.4565H41.6147L46.2701 74.5869H46.9932ZM45.907 77.3164L44.0758 81.4684H47.645L45.907 77.3164Z" fill="white"/>
<path d="M56.6563 76.3358L58.7884 79.5774L61.8485 74.5806H62.8681L59.299 80.4347V85.4316H57.2584V80.861L54.4543 76.6621C54.182 76.2317 53.8544 75.8395 53.4798 75.4957C53.1745 75.1945 52.7872 74.9913 52.3671 74.9117V74.5853H54.0819C54.6496 74.5976 55.1966 74.8029 55.6337 75.1678C56.0343 75.4982 56.3787 75.8921 56.6532 76.3342" fill="white"/>
<path d="M69.5703 74.5869L73.0944 83.4032C73.4653 84.3401 74.0255 84.9194 74.7393 84.9896V85.3863C74.4881 85.4433 74.2318 85.4746 73.9743 85.48C73.4039 85.4883 72.8397 85.3604 72.3279 85.1068C71.9762 84.947 71.6632 84.7118 71.411 84.4179C71.1588 84.1239 70.9734 83.7782 70.8676 83.4047L70.4967 82.168H66.324L65.0251 85.4565H64.1902L68.8456 74.5869H69.5703ZM68.484 77.3164L66.6529 81.4684H70.222L68.484 77.3164Z" fill="white"/>
<path d="M77.036 74.5869H84.4304V75.3099H81.139V85.3629H79.0983V75.3099H77.9625C76.8499 75.3099 76.1546 75.8002 76.1546 77.1993H75.689V75.8689C75.6738 75.5535 75.7634 75.242 75.9436 74.9835C76.0847 74.8414 76.2552 74.7323 76.4429 74.6638C76.6306 74.5952 76.8309 74.569 77.0297 74.5869" fill="white"/>
<path d="M52.4896 3.90845C50.6109 4.36546 48.7173 4.80528 46.8085 5.22793C44.8998 5.65058 43.0061 6.05761 41.1274 6.44902C39.8332 6.70823 38.6838 6.96848 37.6793 7.22978C36.6748 7.49107 35.7199 7.75132 34.8147 8.01053C33.8671 8.23969 32.9409 8.55053 32.0463 8.93963C31.508 9.18444 31.0023 9.49602 30.541 9.86715L30.153 9.37842C30.4532 8.86292 30.7941 8.37258 31.1725 7.91216C31.5039 7.48368 31.8784 7.09069 32.2899 6.73946C32.9038 6.28055 33.5536 5.8722 34.2327 5.51836C34.8152 5.2248 35.5275 4.91562 36.3696 4.59083C37.4714 4.26603 38.8162 3.89128 40.4042 3.46655C41.9923 3.04182 43.5301 2.63478 45.0178 2.24545C46.8293 1.79053 48.5775 1.36685 50.2628 0.974389C51.4773 0.713715 52.6771 0.387409 53.8568 -0.00311279L54.0508 0.290444L52.4896 3.90845Z" fill="#F5AA36"/>
<path d="M33.6337 33.8425C32.5754 34.9621 31.5885 36.1254 30.6186 37.27L29.5013 38.5848C28.4151 37.6323 27.3567 36.6438 26.3496 35.6086C23.7265 33.1517 21.7709 30.061 20.6684 26.6299C19.8823 23.6012 20.1416 20.3936 21.404 17.5326C21.8183 16.5957 23.3081 13.9099 22.8007 16.4021C22.4646 17.9204 22.5521 19.5027 23.0535 20.9742C23.8606 23.0107 25.0372 24.8783 26.5234 26.4816C28.7425 29.08 31.1187 31.5384 33.6385 33.8425" fill="white"/>
<path d="M63.4221 50.4382C63.3799 53.6091 62.145 56.6462 59.9663 58.9375C58.5197 60.2918 56.9208 61.4714 55.2022 62.4524C54.7832 62.7195 54.3658 62.9849 53.953 63.2628C53.5878 63.5906 53.1864 63.8752 52.7566 64.1108C51.886 64.3997 52.4338 62.4025 52.4244 61.9387C52.1866 59.573 51.1638 57.3567 49.5211 55.6474C46.173 51.8859 42.4264 48.504 38.3481 45.5616C38.4164 45.4726 38.4816 45.3836 38.553 45.2962C38.8633 44.937 39.1736 44.5779 39.484 44.2219C40.3127 43.285 41.0358 42.5042 41.6984 41.8202C41.7009 41.8156 41.7047 41.8118 41.7093 41.8093C41.8831 41.6438 42.0584 41.4799 42.2369 41.319C45.3391 43.3524 48.2654 45.6455 50.9844 48.1741C53.7124 50.7157 55.7565 53.9109 56.9262 57.4619C57.8392 57.4076 58.7255 57.1315 59.5093 56.6572C60.293 56.1829 60.9509 55.5246 61.4265 54.7386C62.215 53.4534 62.7959 52.0504 63.1474 50.5819C63.1583 50.5475 63.1676 50.5116 63.1769 50.4772C63.256 50.1962 63.3321 49.9136 63.4081 49.6341C63.419 49.9026 63.4236 50.1728 63.419 50.4429" fill="white"/>
<path d="M64.1314 60.1133C64.0316 60.0289 63.9161 59.9652 63.7917 59.9261C63.6673 59.887 63.5364 59.8731 63.4066 59.8853L60.601 60.143C60.4712 60.155 60.3452 60.1925 60.2299 60.2535C60.1146 60.3145 60.0124 60.3978 59.9291 60.4986C59.8458 60.5994 59.783 60.7157 59.7444 60.8409C59.7058 60.966 59.6921 61.0977 59.704 61.2282L59.96 64.053C59.9828 64.3007 60.0966 64.5309 60.2791 64.6987C60.4616 64.8665 60.6998 64.9597 60.9471 64.9602H61.0385L63.8443 64.7026C63.9748 64.6909 64.1018 64.6532 64.2178 64.5917C64.3338 64.5303 64.4366 64.4464 64.5202 64.3447C64.6037 64.2431 64.6664 64.1257 64.7046 63.9995C64.7428 63.8733 64.7558 63.7408 64.7427 63.6095L64.4867 60.7863C64.475 60.6557 64.4377 60.5287 64.3769 60.4126C64.3162 60.2966 64.2333 60.1937 64.1329 60.1101" fill="#F5AA36"/>
<path d="M68.6501 56.1923C68.6383 56.0618 68.6009 55.9349 68.5403 55.8189C68.4796 55.7029 68.3969 55.6 68.2968 55.5162C68.1966 55.4324 68.081 55.3693 67.9565 55.3305C67.8321 55.2916 67.7013 55.2777 67.5716 55.2898L64.7645 55.5475C64.6348 55.5594 64.5086 55.597 64.3933 55.658C64.278 55.719 64.1758 55.8023 64.0925 55.9031C64.0092 56.0038 63.9465 56.1202 63.9079 56.2454C63.8693 56.3706 63.8556 56.5022 63.8675 56.6327L64.1235 59.4559C64.146 59.7037 64.2597 59.9341 64.4423 60.102C64.6249 60.2698 64.8632 60.363 65.1105 60.3631H65.2021L68.0077 60.1055C68.1375 60.0937 68.2639 60.0563 68.3793 59.9953C68.4948 59.9344 68.5972 59.8512 68.6806 59.7504C68.7641 59.6496 68.827 59.5332 68.8657 59.4079C68.9044 59.2826 68.9181 59.1509 68.9062 59.0203L68.6501 56.1923Z" fill="#F5AA36"/>
<path d="M52.4757 9.71411C52.4638 9.58358 52.4265 9.45669 52.3658 9.34067C52.3052 9.22466 52.2225 9.1218 52.1223 9.03798C52.0222 8.95416 51.9066 8.89103 51.7822 8.85218C51.6578 8.81333 51.5269 8.79952 51.3972 8.81156L48.5916 9.06922C48.4618 9.08118 48.3358 9.11873 48.2205 9.17975C48.1052 9.24077 48.003 9.32405 47.9197 9.42483C47.8364 9.52561 47.7736 9.64193 47.735 9.76713C47.6964 9.89232 47.6827 10.0239 47.6946 10.1545L47.9507 12.9777C47.9735 13.2253 48.0872 13.4556 48.2697 13.6234C48.4522 13.7912 48.6904 13.8844 48.9377 13.8849H49.0291L51.8364 13.6272C51.9668 13.6151 52.0934 13.5772 52.2092 13.5156C52.3249 13.454 52.4274 13.37 52.5108 13.2684C52.5941 13.1668 52.6567 13.0497 52.6949 12.9237C52.7331 12.7977 52.7462 12.6653 52.7333 12.5342L52.4757 9.71411Z" fill="#F5AA36"/>
<path d="M87.6503 48.7252C87.4067 48.8205 87.1678 48.5925 86.9987 48.3926C85.8758 47.06 84.5406 45.9244 83.0478 45.0322C81.9934 44.3089 80.7386 43.9394 79.463 43.9767C79.0254 44.0037 78.6053 44.1589 78.2543 44.4233C77.3542 45.1619 77.0129 47.7805 78.0758 48.4613C78.4821 48.6847 78.9292 48.8223 79.3901 48.8658C79.7127 48.9704 80.0552 48.9977 80.3901 48.9453C80.725 48.893 81.0432 48.7626 81.3191 48.5644C81.5503 48.3286 81.6869 47.9742 81.9957 47.8586C82.1398 47.8253 82.289 47.822 82.4344 47.8489C82.5798 47.8757 82.7183 47.9321 82.8413 48.0147C85.1398 49.1979 87.1527 50.8737 88.7382 52.9241C88.9012 53.1365 89.1277 53.377 89.3853 53.3098C89.6429 53.2427 89.7283 52.882 89.7299 52.5962C89.7454 49.114 87.731 45.8692 87.7233 42.387C87.6943 42.1486 87.7205 41.9066 87.7996 41.6799C87.8787 41.4532 88.0088 41.2479 88.1796 41.0801C88.3801 40.9709 88.6025 40.909 88.8303 40.8993C89.058 40.8896 89.2849 40.9322 89.4939 41.0239C89.9116 41.2109 90.3699 41.2877 90.8254 41.2472C90.9048 41.2346 90.9794 41.2006 91.0411 41.1488C91.0893 41.0867 91.124 41.0152 91.1432 40.9389C91.1624 40.8625 91.1658 40.783 91.1529 40.7053C91.2009 40.0045 91.0269 39.3065 90.6562 38.7113C90.2995 38.3198 89.8435 38.0337 89.3372 37.8837C88.7798 37.6233 88.1528 37.5542 87.5526 37.6869C87.282 37.787 87.0355 37.9436 86.8295 38.1466C86.6236 38.3495 86.4627 38.5942 86.3577 38.8643C86.1487 39.4059 86.0435 39.9823 86.0474 40.5632C86.0366 42.3145 86.2759 44.0584 86.7581 45.7412C87.0204 46.7421 87.3293 47.7337 87.6365 48.7174" fill="#F5AA36"/>
<path d="M40.6277 52.415C39.8553 52.2501 39.05 52.3605 38.3496 52.7273C37.0246 53.2762 35.7842 54.0123 34.6657 54.9135L34.6563 54.9213C34.4825 55.0634 34.2979 55.2617 34.3553 55.4771L36.2686 54.9744C36.6221 54.8179 37.0089 54.7527 37.3938 54.7849C37.7786 54.8171 38.1493 54.9456 38.4723 55.1586C38.6161 55.3126 38.7244 55.4964 38.7898 55.6971C38.8553 55.8979 38.8761 56.1107 38.8508 56.3204C38.7971 56.7398 38.6514 57.142 38.4242 57.4977C37.7039 58.5926 36.7731 59.5313 35.6867 60.2585C33.6281 61.7342 31.485 63.0867 29.2685 64.309C28.9969 64.4652 28.6959 64.6589 28.6478 64.9696C29.1418 64.7414 29.6542 64.5559 30.1795 64.4152C30.7184 64.207 31.2507 63.9786 31.7762 63.7298C32.7958 63.2613 33.7936 62.7475 34.7836 62.2104C36.903 61.1461 38.8385 59.7457 40.5159 58.063C41.3374 57.2838 41.8972 56.2664 42.1174 55.1523C42.2111 54.595 42.1151 54.0222 41.8451 53.5266C41.575 53.031 41.1465 52.6415 40.6292 52.4213" fill="#F5AA36"/>
<path d="M101.187 42.1404C101.146 41.586 101.089 41.0332 101.007 40.4852C100.437 36.6392 98.5238 32.598 94.9158 31.2036C92.5687 30.4221 90.0145 30.5655 87.7683 31.6049C85.5486 32.6449 83.4682 33.9628 81.5766 35.5274C77.6164 38.5333 73.5662 41.1488 69.6076 44.1594C68.6765 39.4108 70.3167 34.9231 72.1789 30.4603C74.0411 25.9975 76.2632 21.5597 76.7551 16.7503C76.8748 16.0901 76.8009 15.4092 76.5426 14.7906C76.4025 14.4875 76.1554 14.2477 75.8494 14.1178C75.5433 13.9879 75.2002 13.9773 74.8868 14.0879C74.5364 14.3117 74.2674 14.6437 74.1202 15.0342C72.812 17.7012 71.9477 20.5791 70.551 23.2009C69.2918 25.9284 67.0414 28.0664 64.2631 29.1752C60.5388 30.376 56.5786 28.6661 53.0607 26.9641C54.9446 22.3233 59.8731 19.6578 62.4289 15.3527C64.0659 12.5659 64.6188 9.26753 63.9807 6.09456C63.9553 5.87413 63.8669 5.66585 63.7262 5.49493C63.5581 5.36832 63.3487 5.3105 63.1399 5.3331C62.9312 5.3557 62.7386 5.45705 62.6012 5.61674C62.3386 5.94831 62.1525 6.33446 62.0565 6.74727C60.3929 11.7831 55.4086 14.8421 52.3081 19.1378C50.5406 21.5878 49.4419 25.1043 51.2218 27.5465C51.3418 27.7112 51.4724 27.8677 51.6129 28.015C53.574 28.9321 55.1751 30.4811 56.1628 32.4168L57.0318 34.1829C57.1263 34.2899 57.2302 34.3881 57.3422 34.4765C57.8553 34.8347 58.4487 35.0589 59.0693 35.1292C61.3656 35.5372 63.7218 35.451 65.9826 34.8762C65.8012 36.4028 65.7944 37.9452 65.9624 39.4733C66.0648 41.0713 66.2753 42.6604 66.5924 44.2296C66.6731 44.6273 66.7606 45.0234 66.8547 45.418L66.7445 45.4695C65.543 46.0868 64.243 46.4864 62.9038 46.65C61.7338 43.0995 59.6897 39.9049 56.962 37.3637C56.2606 36.6704 55.5296 36.0146 54.777 35.3822L54.2168 35.365H53.9064C51.6297 35.4235 49.4048 36.0605 47.4385 37.2169C47.8824 37.5719 48.3226 37.9326 48.7591 38.299L48.7699 38.2912C51.2109 40.2612 53.4631 42.4569 55.497 44.8496C57.1403 46.5591 58.1632 48.776 58.4005 51.1424C58.4083 51.6109 57.8605 53.6018 58.7326 53.3145C59.1622 53.0781 59.5636 52.7931 59.929 52.465C60.3418 52.1871 60.7592 51.9201 61.1704 51.653C61.6158 51.3704 62.3187 51.0003 63.135 50.5834L63.4081 50.4444C64.7023 49.787 66.2293 49.025 67.4661 48.3067L67.6353 48.2068C68.2221 50.0125 68.9527 51.7676 69.8201 53.455C72.5947 58.8469 77.1245 64.6292 83.6793 64.9196C85.6259 64.9023 87.5499 64.4979 89.3407 63.7295C91.1314 62.9612 92.7535 61.8442 94.1136 60.4427C96.5456 58.0962 98.438 55.2427 99.658 52.0824C100.878 48.922 101.396 45.5313 101.176 42.1482M98.4757 40.3961C98.2715 43.4234 97.4567 46.3771 96.0808 49.0771C94.705 51.777 92.7969 54.1666 90.4731 56.1002C87.9854 58.3255 84.7996 59.6 81.4726 59.701C79.9232 59.5487 78.4266 59.0522 77.0908 58.2476C75.755 57.4429 74.6131 56.35 73.7477 55.0477C72.032 52.4772 70.7457 49.6415 69.9397 46.6531C70.0529 46.5922 70.1662 46.5344 70.281 46.472C74.0688 44.3824 77.7498 42.1024 81.3097 39.6404C84.4428 37.5308 87.8164 34.4874 91.5966 33.727C92.6572 33.4566 93.7719 33.4907 94.8142 33.8255C95.8565 34.1603 96.7846 34.7823 97.4934 35.6211C98.3557 37.0522 98.7036 38.7379 98.4788 40.3961" fill="white"/>
<path d="M41.3152 39.389C42.4978 38.2364 43.7794 37.1914 45.145 36.266C47.8244 34.3772 51.0153 33.3613 54.2867 33.3553C53.5462 32.026 52.464 30.9215 51.1535 30.1578C49.843 29.394 48.3524 28.999 46.838 29.0143C43.7945 29.0947 40.8617 30.1794 38.4909 32.1014C36.1416 34.0158 34.008 36.1836 32.1285 38.566L22.0418 50.4522C21.0331 51.6405 20.0245 52.8289 18.9289 53.936C17.66 55.217 16.2807 56.3822 14.8073 57.4181C13.1067 58.678 11.1943 59.619 9.16184 60.1961C7.65243 60.5853 6.08162 60.6718 4.53902 60.4506C3.48967 60.2965 2.46692 59.9953 1.50058 59.5558C0.504321 59.103 -0.715377 58.4346 0.519857 59.8072C2.35164 61.53 4.51119 62.8617 6.86828 63.7219C9.78195 65.0151 13.0428 65.2862 16.1279 64.4917C19.2213 63.366 21.9812 61.4709 24.1507 58.9828C29.1164 53.9391 33.3156 48.1959 37.9974 42.8852C39.0604 41.6797 40.1529 40.493 41.3136 39.3827" fill="white"/>
<path d="M15.1657 45.6757C15.0659 45.5914 14.9504 45.528 14.826 45.4891C14.7016 45.4503 14.5707 45.4367 14.441 45.4492L11.6354 45.7068C11.5055 45.7186 11.3793 45.7561 11.2638 45.817C11.1483 45.8779 11.0459 45.9611 10.9625 46.0619C10.879 46.1627 10.8161 46.2792 10.7774 46.4045C10.7387 46.5298 10.7249 46.6614 10.7369 46.7921L10.993 49.6154C11.0154 49.8632 11.1291 50.0936 11.3117 50.2614C11.4943 50.4293 11.7326 50.5224 11.9799 50.5226H12.0714L14.8771 50.2649C15.0077 50.2531 15.1346 50.2155 15.2507 50.154C15.3667 50.0926 15.4694 50.0086 15.553 49.907C15.6365 49.8053 15.6992 49.6881 15.7374 49.5619C15.7757 49.4357 15.7886 49.3032 15.7756 49.1719L15.5242 46.3564C15.5126 46.2258 15.4753 46.0988 15.4146 45.9827C15.3539 45.8667 15.2709 45.7639 15.1704 45.6803" fill="#F5AA36"/>
<path d="M19.6862 41.7531C19.6743 41.6226 19.6369 41.4957 19.5763 41.3797C19.5156 41.2637 19.4329 41.1608 19.3327 41.077C19.2326 40.9932 19.117 40.93 18.9926 40.8912C18.8682 40.8523 18.7374 40.8385 18.6076 40.8506L15.802 41.1083C15.6723 41.1202 15.5462 41.1577 15.4309 41.2187C15.3156 41.2797 15.2134 41.3631 15.1301 41.4639C15.0468 41.5646 14.984 41.6809 14.9454 41.8061C14.9068 41.9313 14.8931 42.0629 14.9051 42.1934L15.1611 45.0167C15.1839 45.2644 15.2977 45.4946 15.4802 45.6624C15.6627 45.8302 15.9008 45.9234 16.1481 45.9239H16.2396L19.0453 45.6663C19.3074 45.6421 19.5492 45.5142 19.7177 45.3107C19.8862 45.1072 19.9675 44.8448 19.9437 44.5811L19.6862 41.7531Z" fill="#F5AA36"/>
<path d="M44.529 27.2014C42.2024 27.6434 39.9965 28.581 38.0596 29.9512C35.8274 28.2049 33.706 26.3196 31.708 24.3064C29.0344 21.8022 27.0413 18.6518 25.9182 15.1544C25.1166 12.0675 25.3809 8.79815 26.6678 5.88219C27.0899 4.92187 28.6091 2.1908 28.0876 4.73294C27.7445 6.28027 27.8336 7.89298 28.3453 9.39246C29.1691 11.4671 30.3682 13.37 31.8818 15.0045C35.7306 19.4387 39.9629 23.5204 44.529 27.2014Z" fill="white"/>
</g>
<defs>
<clipPath id="clip0_182_2659">
<rect width="101.241" height="102.842" fill="white"/>
</clipPath>
</defs>
</svg>
