<svg width="102" height="103" viewBox="0 0 102 103" fill="none" xmlns="http://www.w3.org/2000/svg">
<g clip-path="url(#clip0_187_2098)">
<path d="M27.1549 90.9108V99.1463H20.7552C19.7687 99.238 18.7825 98.9685 17.9775 98.3874C17.7238 98.1275 17.5286 97.8158 17.4051 97.4734C17.2817 97.1309 17.2329 96.7658 17.2621 96.4027C17.2825 95.5878 17.4574 94.7843 17.7773 94.0355H19.3043C19.007 94.6866 18.8509 95.3941 18.8465 96.1107C18.8465 97.6024 19.6157 98.3483 21.1541 98.3483H25.5689V90.9093L27.1549 90.9108ZM24.3895 95.9373H20.6001V95.1269H21.3092C21.1006 94.9825 20.9281 94.7914 20.8052 94.5686C20.6824 94.3458 20.6126 94.0974 20.6013 93.8428C20.59 93.5883 20.6376 93.3346 20.7402 93.1016C20.8428 92.8687 20.9978 92.6629 21.1928 92.5004C21.6961 92.1318 22.3111 91.9508 22.9324 91.9883C23.3275 91.9943 23.7217 92.0293 24.1118 92.0929V92.78C23.8777 92.7374 23.6405 92.7155 23.4026 92.7144C22.634 92.7144 22.2496 93.071 22.2496 93.784C22.2375 93.9781 22.2717 94.1723 22.3491 94.3504C22.4266 94.5286 22.5451 94.6856 22.695 94.8084C23.0258 95.0363 23.423 95.1463 23.8232 95.1207H24.3911L24.3895 95.9373Z" fill="#021F5A"/>
<path d="M35.1219 98.35V99.1479H28.4492V98.35H32.8889V90.9109H34.481V98.35H35.1219ZM30.4882 98.2781C30.42 98.2052 30.3577 98.1268 30.302 98.0438L30.0445 97.6551C29.9347 97.4743 29.8377 97.2859 29.7543 97.0913C29.654 96.8505 29.5679 96.6039 29.4967 96.3528C29.4101 96.046 29.3478 95.7326 29.3105 95.4158C29.2578 95.0419 29.2319 94.6646 29.2329 94.2869V92.1991H30.9398V94.3587C30.9363 94.8919 30.9643 95.4248 31.0237 95.9546C31.0586 96.3383 31.1166 96.7194 31.1975 97.096C31.2537 97.3476 31.329 97.5945 31.4225 97.8346C31.4704 97.9736 31.5306 98.1079 31.6025 98.236L31.68 98.353H30.5581L30.4882 98.2781Z" fill="#021F5A"/>
<path d="M41.0825 95.1832C41.6143 95.7882 41.8888 96.5792 41.8467 97.3859C41.8046 98.1926 41.4493 98.9503 40.8574 99.496C40.2613 99.9246 39.5394 100.139 38.8075 100.105C38.3555 100.145 37.9005 100.079 37.4779 99.9125C37.0553 99.7462 36.6766 99.4839 36.3712 99.1462H34.4827V98.3483H35.946C35.826 97.9581 35.7674 97.5514 35.7722 97.1429C35.764 96.7785 35.8274 96.4161 35.959 96.0766C36.0905 95.737 36.2877 95.4271 36.5388 95.1645C37.1585 94.5895 37.9714 94.2718 38.8143 94.2753C39.6572 94.2788 40.4675 94.6031 41.0825 95.1832M40.1995 97.271C40.2146 96.7643 40.1383 96.259 39.9745 95.7796C39.9032 95.5242 39.7509 95.2992 39.5408 95.139C39.3307 94.9787 39.0743 94.8921 38.8106 94.8921C38.547 94.8921 38.2906 94.9787 38.0805 95.139C37.8704 95.2992 37.7181 95.5242 37.6468 95.7796C37.4862 96.2623 37.4121 96.7698 37.428 97.2786C37.428 98.7693 37.8899 99.5154 38.8138 99.5164C39.7376 99.5174 40.2031 98.7714 40.2103 97.2786" fill="#021F5A"/>
<path d="M49.1641 90.9109V99.1463H43.1323V98.3483H47.572V90.9094L49.1641 90.9109ZM46.2515 91.5464H43.3325V90.8859H43.8229C43.6661 90.771 43.5394 90.6194 43.454 90.4442C43.3685 90.269 43.3268 90.0754 43.3325 89.8803C43.3274 89.6976 43.363 89.5158 43.4365 89.3486C43.5101 89.1814 43.6198 89.0329 43.7576 88.9137C44.1221 88.621 44.5818 88.4751 45.0473 88.5046C45.3732 88.5096 45.6982 88.5378 46.0202 88.5889V89.1589C45.8268 89.1218 45.6305 89.1025 45.4336 89.1011C44.8708 89.1011 44.5894 89.3614 44.5894 89.8819C44.5894 90.5523 44.9867 90.8875 45.7812 90.8875H46.2467L46.2515 91.5464ZM45.176 98.2781C45.1072 98.2052 45.0445 98.1269 44.9883 98.0438L44.7306 97.655C44.6206 97.4744 44.5236 97.286 44.4404 97.0913C44.34 96.8505 44.2541 96.6039 44.1829 96.3527C44.0962 96.0459 44.034 95.7326 43.9967 95.4159C43.944 95.0419 43.918 94.6646 43.919 94.2869V92.1992H45.6261V94.3587C45.6226 94.8919 45.6506 95.4247 45.7099 95.9545C45.7447 96.3382 45.8028 96.7194 45.8837 97.096C45.9399 97.3476 46.0151 97.5946 46.1086 97.8346C46.1565 97.9741 46.2167 98.1089 46.2887 98.2375L46.3663 98.3545H45.2443L45.176 98.2781Z" fill="#021F5A"/>
<path d="M52.0458 90.9109H50.4536V99.1463H52.0458V90.9109Z" fill="#021F5A"/>
<path d="M56.8456 98.3108C56.3633 97.7575 56.116 97.036 56.1567 96.3012C56.1484 95.9368 56.2119 95.5744 56.3434 95.2349C56.475 94.8953 56.672 94.5854 56.9232 94.3228C57.543 93.7481 58.3559 93.4307 59.1987 93.4342C60.0415 93.4376 60.8518 93.7617 61.4669 94.3415C61.9701 94.8663 62.2457 95.5705 62.2335 96.2997C62.2645 96.7289 62.1902 97.1592 62.017 97.5527C61.8438 97.9461 61.5771 98.2908 61.2404 98.556C60.639 98.9718 59.9193 99.179 59.1904 99.1463C58.7629 99.1788 58.3335 99.1211 57.9294 98.977C57.5254 98.8329 57.1557 98.6055 56.8441 98.3093M57.5393 92.5442C57.4582 92.4694 57.3938 92.378 57.3504 92.2763C57.3071 92.1745 57.2859 92.0646 57.2879 91.954C57.2862 91.8409 57.3081 91.7287 57.3525 91.6249C57.3969 91.521 57.4627 91.4277 57.5455 91.3512C57.7244 91.1857 57.9605 91.0972 58.2034 91.1045C58.3238 91.1001 58.4439 91.1196 58.5568 91.162C58.6697 91.2043 58.7732 91.2686 58.8614 91.3512C58.941 91.4296 59.0038 91.5234 59.0459 91.6271C59.0881 91.7307 59.1088 91.842 59.1066 91.954C59.1096 92.0657 59.0886 92.1768 59.0453 92.2797C59.0019 92.3826 58.9371 92.475 58.8552 92.5505C58.6699 92.7034 58.4377 92.7868 58.198 92.7868C57.9584 92.7868 57.7261 92.7034 57.5408 92.5505M60.2735 97.9204C60.5019 97.4604 60.6088 96.9491 60.5839 96.4355C60.5989 95.9288 60.5227 95.4236 60.359 94.9442C60.2877 94.6888 60.1354 94.4639 59.9253 94.3036C59.7151 94.1434 59.4588 94.0566 59.1951 94.0566C58.9315 94.0566 58.675 94.1434 58.4649 94.3036C58.2547 94.4639 58.1025 94.6888 58.0313 94.9442C57.8709 95.4264 57.7967 95.9335 57.8124 96.4418C57.7868 96.9594 57.8937 97.475 58.1228 97.9392C58.2322 98.1305 58.3901 98.2892 58.5803 98.3991C58.7705 98.509 58.9863 98.5662 59.2056 98.5649C59.425 98.5636 59.6401 98.5039 59.829 98.3918C60.018 98.2797 60.174 98.1192 60.2813 97.9267M59.5473 92.5567C59.4663 92.4818 59.4018 92.3905 59.3585 92.2888C59.3151 92.187 59.2938 92.0771 59.2959 91.9664C59.294 91.8534 59.3161 91.7412 59.3605 91.6372C59.4049 91.5333 59.4706 91.4401 59.5535 91.3637C59.7324 91.1982 59.9686 91.1097 60.2115 91.117C60.3319 91.1126 60.452 91.1321 60.5649 91.1744C60.6778 91.2168 60.7813 91.2811 60.8695 91.3637C60.949 91.4421 61.0118 91.5359 61.054 91.6395C61.0961 91.7432 61.1168 91.8545 61.1147 91.9664C61.1177 92.0782 61.0967 92.1893 61.0533 92.2922C61.0099 92.3951 60.9451 92.4874 60.8632 92.563C60.678 92.7161 60.4458 92.7998 60.2061 92.7998C59.9664 92.7998 59.7341 92.7161 59.5489 92.563" fill="#021F5A"/>
<path d="M62.8853 101.393C63.1457 101.294 63.3963 101.17 63.6333 101.023C63.8249 100.902 64.0061 100.765 64.1749 100.614C64.6028 100.183 64.8636 99.6128 64.9104 99.0056C64.9404 98.737 64.9574 98.5232 64.9616 98.364C64.9616 98.2432 64.9616 98.0053 64.9616 97.6503V93.5717H66.5476V97.502C66.5476 97.8476 66.5393 98.1264 66.5228 98.3388C66.5164 98.8498 66.3933 99.3526 66.1629 99.8081C65.9326 100.263 65.6012 100.659 65.1944 100.965C64.927 101.143 64.6445 101.298 64.3502 101.426C63.9796 101.581 63.5985 101.709 63.2097 101.809L62.8853 101.393Z" fill="#021F5A"/>
<path d="M69.4276 90.9109H67.8354V99.1463H69.4276V90.9109Z" fill="#021F5A"/>
<path d="M70.7154 98.3483H73.3535C74.4532 98.3483 75.0031 97.6607 75.0031 96.2855C75.0031 95.0061 74.4532 94.3664 73.3535 94.3664H71.3564V93.4296H73.4187C74.29 93.3592 75.1574 93.6076 75.8613 94.1291C76.3728 94.7297 76.654 95.4945 76.654 96.2855C76.654 97.0765 76.3728 97.8414 75.8613 98.4419C75.1576 98.9642 74.2902 99.2131 73.4187 99.143H70.7124L70.7154 98.3483Z" fill="#021F5A"/>
<path d="M83.9788 90.9108V99.1463H77.9468V98.3483H82.3866V90.9093L83.9788 90.9108ZM80.4469 102.176H80.9123V102.844H77.9934V102.176H78.4838C78.327 102.061 78.2004 101.909 78.115 101.734C78.0295 101.559 77.9877 101.365 77.9934 101.17C77.9882 100.987 78.0238 100.805 78.0974 100.638C78.1709 100.471 78.2807 100.322 78.4186 100.203C78.7831 99.9106 79.2427 99.7648 79.7081 99.7943C80.034 99.7992 80.3592 99.8274 80.6812 99.8786V100.445C80.4878 100.408 80.2914 100.389 80.0945 100.388C79.5307 100.388 79.2494 100.648 79.2504 101.168C79.2504 101.839 79.6476 102.174 80.4421 102.174M79.9843 98.2702C79.9155 98.1974 79.8527 98.119 79.7965 98.036L79.5389 97.6472C79.4291 97.4664 79.3321 97.278 79.2487 97.0835C79.1483 96.8426 79.0625 96.5961 78.9913 96.3449C78.9046 96.0381 78.8423 95.7248 78.8051 95.408C78.7523 95.034 78.7263 94.6568 78.7274 94.2791V92.1913H80.4344V94.3508C80.4309 94.884 80.459 95.4169 80.5183 95.9467C80.5534 96.3304 80.6114 96.7115 80.692 97.0881C80.7484 97.3397 80.8237 97.5866 80.917 97.8268C80.9648 97.9658 81.025 98.1001 81.097 98.2281L81.1746 98.3452H80.0527L79.9843 98.2702Z" fill="#021F5A"/>
<path d="M48.2316 69.3449L48.0764 69.5011L48.2316 69.6572V69.7056H14.2099C14.1836 69.7056 14.1576 69.7108 14.1333 69.721C14.109 69.7311 14.087 69.7459 14.0684 69.7646C14.0498 69.7833 14.035 69.8055 14.0249 69.83C14.0149 69.8544 14.0097 69.8805 14.0097 69.907V69.9461C14.0097 69.9995 13.9886 70.0507 13.9511 70.0885C13.9135 70.1262 13.8626 70.1475 13.8095 70.1475H12.8428C12.7897 70.1475 12.7387 70.1262 12.7012 70.0885C12.6637 70.0507 12.6426 69.9995 12.6426 69.9461V69.0482C12.6426 68.9948 12.6637 68.9436 12.7012 68.9058C12.7387 68.868 12.7897 68.8468 12.8428 68.8468H13.8095C13.8626 68.8468 13.9135 68.868 13.9511 68.9058C13.9886 68.9436 14.0097 68.9948 14.0097 69.0482V69.0873C14.0097 69.1137 14.0149 69.1399 14.0249 69.1644C14.035 69.1888 14.0498 69.2109 14.0684 69.2296C14.087 69.2484 14.109 69.2632 14.1333 69.2733C14.1576 69.2834 14.1836 69.2886 14.2099 69.2886H48.23L48.2316 69.3449Z" fill="#F5AA36"/>
<path d="M88.6001 69.0419V69.9398C88.6001 69.9932 88.579 70.0444 88.5414 70.0822C88.5039 70.12 88.4529 70.1412 88.3998 70.1412H87.4331C87.38 70.1412 87.3291 70.12 87.2916 70.0822C87.254 70.0444 87.233 69.9932 87.233 69.9398V69.9007C87.233 69.8473 87.2119 69.7961 87.1743 69.7584C87.1368 69.7206 87.0858 69.6994 87.0327 69.6994H53.0483V69.5994L53.1646 69.4822L53.0483 69.3651V69.2855H87.0327C87.0858 69.2855 87.1368 69.2643 87.1743 69.2265C87.2119 69.1888 87.233 69.1375 87.233 69.0841V69.0419C87.233 68.9885 87.254 68.9373 87.2916 68.8995C87.3291 68.8618 87.38 68.8405 87.4331 68.8405H88.3998C88.4529 68.8405 88.5039 68.8618 88.5414 68.8995C88.579 68.9373 88.6001 68.9885 88.6001 69.0419Z" fill="#F5AA36"/>
<path d="M52.0985 68.1753C52.061 68.1377 52.0103 68.1167 51.9573 68.1167C51.9044 68.1167 51.8536 68.1377 51.8161 68.1753L51.5057 68.4876L50.6259 69.373L50.5049 69.4979L51.7929 70.794C51.8115 70.8128 51.8336 70.8278 51.858 70.838C51.8823 70.8482 51.9085 70.8534 51.9349 70.8534C51.9613 70.8534 51.9873 70.8482 52.0117 70.838C52.0361 70.8278 52.0583 70.8128 52.0769 70.794L53.1631 69.7009L53.2376 69.626C53.2749 69.5882 53.2959 69.5371 53.2959 69.4839C53.2959 69.4306 53.2749 69.3795 53.2376 69.3418L52.0985 68.1753ZM51.633 70.388L51.4266 70.1803L50.8819 69.6353C50.8632 69.6166 50.8484 69.5944 50.8383 69.5698C50.8281 69.5453 50.8228 69.519 50.8228 69.4925C50.8228 69.4659 50.8281 69.4396 50.8383 69.4151C50.8484 69.3905 50.8632 69.3683 50.8819 69.3496L51.4235 68.8046L51.6299 68.5969L51.8224 68.4033C51.8599 68.3657 51.9107 68.3447 51.9636 68.3447C52.0165 68.3447 52.0673 68.3657 52.1048 68.4033L53.1662 69.4714L53.0499 69.5885L52.0877 70.5598C52.0691 70.5786 52.047 70.5935 52.0226 70.6037C51.9982 70.6139 51.9721 70.6192 51.9457 70.6192C51.9193 70.6192 51.8931 70.6139 51.8688 70.6037C51.8444 70.5935 51.8223 70.5786 51.8037 70.5598L51.633 70.388Z" fill="#F5AA36"/>
<path d="M51.6238 68.5986L51.5105 68.4846L50.7626 67.732C50.744 67.7131 50.7218 67.6981 50.6974 67.6879C50.673 67.6777 50.6469 67.6725 50.6205 67.6725C50.5941 67.6725 50.5681 67.6777 50.5437 67.6879C50.5193 67.6981 50.4971 67.7131 50.4785 67.732L49.6266 68.5891L48.891 69.3324C48.8537 69.3702 48.8328 69.4213 48.8328 69.4745C48.8328 69.5278 48.8537 69.5789 48.891 69.6166L50.5018 71.2375C50.5204 71.2564 50.5425 71.2713 50.5669 71.2815C50.5913 71.2917 50.6174 71.2969 50.6438 71.2969C50.6702 71.2969 50.6963 71.2917 50.7207 71.2815C50.7451 71.2713 50.7672 71.2564 50.7858 71.2375L51.5136 70.5052L51.6268 70.3912L52.3749 69.6385C52.3936 69.6198 52.4084 69.5975 52.4186 69.573C52.4287 69.5485 52.4339 69.5222 52.4339 69.4956C52.4339 69.469 52.4287 69.4428 52.4186 69.4183C52.4084 69.3938 52.3936 69.3715 52.3749 69.3527L51.6238 68.5986ZM50.7858 70.8222C50.7672 70.841 50.7451 70.8559 50.7207 70.8661C50.6963 70.8763 50.6702 70.8816 50.6438 70.8816C50.6174 70.8816 50.5913 70.8763 50.5669 70.8661C50.5425 70.8559 50.5204 70.841 50.5018 70.8222L49.9494 70.2663L49.8361 70.1523L49.3039 69.6166C49.2665 69.5789 49.2455 69.5278 49.2455 69.4745C49.2455 69.4213 49.2665 69.3702 49.3039 69.3324L49.833 68.7969L49.9463 68.6828L50.4785 68.1473C50.4971 68.1285 50.5193 68.1135 50.5437 68.1033C50.5681 68.0931 50.5941 68.0878 50.6205 68.0878C50.6469 68.0878 50.673 68.0931 50.6974 68.1033C50.7218 68.1135 50.744 68.1285 50.7626 68.1473L51.4189 68.8078L51.9636 69.3527C51.9824 69.3715 51.9972 69.3938 52.0073 69.4183C52.0174 69.4428 52.0227 69.469 52.0227 69.4956C52.0227 69.5222 52.0174 69.5485 52.0073 69.573C51.9972 69.5975 51.9824 69.6198 51.9636 69.6385L50.7858 70.8222Z" fill="#F5AA36"/>
<path d="M50.629 69.3683L49.9447 68.6797L49.7383 68.472L49.4435 68.1753C49.4248 68.1565 49.4027 68.1415 49.3783 68.1313C49.3539 68.1211 49.3278 68.1158 49.3014 68.1158C49.275 68.1158 49.2489 68.1211 49.2246 68.1313C49.2002 68.1415 49.178 68.1565 49.1594 68.1753L48.0732 69.2684L47.9987 69.3433C47.9613 69.381 47.9404 69.4321 47.9404 69.4854C47.9404 69.5387 47.9613 69.5898 47.9987 69.6275L48.053 69.6821L49.1392 70.7752C49.1767 70.8128 49.2275 70.8339 49.2804 70.8339C49.3334 70.8339 49.3842 70.8128 49.4217 70.7752L49.732 70.4629L49.9384 70.2552L50.6011 69.5884L50.7221 69.4636L50.629 69.3683ZM49.4263 70.5613C49.3888 70.5989 49.338 70.6199 49.2851 70.6199C49.2322 70.6199 49.1814 70.5989 49.1439 70.5613L48.0825 69.4932L48.2376 69.3371L49.1688 68.4001C49.1874 68.3813 49.2095 68.3664 49.2338 68.3562C49.2582 68.346 49.2844 68.3408 49.3108 68.3408C49.3372 68.3408 49.3633 68.346 49.3877 68.3562C49.412 68.3664 49.4341 68.3813 49.4527 68.4001L49.8407 68.7905L50.376 69.3261C50.3947 69.3449 50.4096 69.3671 50.4198 69.3916C50.4299 69.4161 50.4351 69.4425 50.4351 69.469C50.4351 69.4956 50.4299 69.5219 50.4198 69.5464C50.4096 69.5709 50.3947 69.5932 50.376 69.6119L49.4263 70.5613Z" fill="#F5AA36"/>
<path d="M26.663 81.4684V84.3135C25.4014 85.0622 23.9541 85.4343 22.4902 85.3862C21.7409 85.3989 20.9967 85.2597 20.3019 84.977C19.6071 84.6943 18.976 84.2738 18.4461 83.7406C17.9161 83.2073 17.4983 82.5722 17.2173 81.8731C16.9363 81.1739 16.798 80.4251 16.8106 79.6711C16.777 78.2494 17.292 76.8699 18.2476 75.822C18.7333 75.3175 19.3179 74.92 19.9644 74.655C20.6109 74.3899 21.3051 74.263 22.0029 74.2823C22.6942 74.2137 23.3922 74.2924 24.0513 74.5133C24.7103 74.7342 25.3158 75.0923 25.8282 75.5643C26.0323 75.8693 26.1522 76.2234 26.1758 76.5903C26.2135 76.9779 26.229 77.3674 26.2223 77.7568H25.7567C25.7259 77.3576 25.6166 76.9684 25.4351 76.6121C25.2536 76.2558 25.0036 75.9393 24.6995 75.681C24.3955 75.4227 24.0435 75.2278 23.664 75.1075C23.2844 74.9872 22.8849 74.944 22.4887 74.9804C21.9582 74.9539 21.4304 75.072 20.9611 75.3224C20.4918 75.5728 20.0985 75.9462 19.8226 76.4029C19.2463 77.3904 18.9646 78.5238 19.0111 79.668C18.8855 81.0689 19.2458 82.4703 20.0306 83.6342C20.3253 83.9986 20.7015 84.2875 21.1284 84.4775C21.5554 84.6675 22.021 84.7531 22.4871 84.7273C23.2109 84.7589 23.9324 84.6232 24.596 84.3306V81.509C24.5794 81.2623 24.6212 81.0152 24.7181 80.788C24.815 80.5608 24.964 80.36 25.1531 80.202C25.8879 79.7028 26.7747 79.4815 27.6561 79.5774V79.9741C26.9609 79.9741 26.6599 80.5346 26.6599 81.4669" fill="#021F5A"/>
<path d="M36.7947 79.2745V74.59H38.8338V83.3828C38.8338 84.3197 38.989 84.9693 39.9464 84.9693H40.086V85.4377H38.2084C38.0028 85.4688 37.7926 85.4466 37.5979 85.3731C37.4032 85.2996 37.2303 85.1772 37.0957 85.0177C36.8383 84.5148 36.7336 83.9467 36.7947 83.3843V79.9709H32.5288V85.4362H30.4898V76.6652C30.4898 75.7096 30.3345 75.0787 29.3771 75.0787H29.2219V74.5884H31.1228C31.3338 74.5633 31.5477 74.5906 31.7457 74.6679C31.9437 74.7453 32.1199 74.8702 32.2588 75.0318C32.4951 75.5414 32.591 76.1055 32.5365 76.6652V79.2776L36.7947 79.2745Z" fill="#021F5A"/>
<path d="M46.9933 74.5869L50.5174 83.4032C50.8883 84.3401 51.4485 84.9194 52.1638 84.9896V85.3863C51.9126 85.4433 51.6563 85.4746 51.3988 85.48C50.8289 85.488 50.2653 85.3601 49.7539 85.1068C49.4022 84.947 49.0893 84.7119 48.8371 84.4179C48.5849 84.1239 48.3994 83.7782 48.2936 83.4047L47.9228 82.168H43.7485L42.4496 85.4566H41.6147L46.2701 74.5869H46.9933ZM45.907 77.3164L44.0759 81.4684H47.645L45.907 77.3164Z" fill="#021F5A"/>
<path d="M56.6562 76.3357L58.7883 79.5774L61.8484 74.5806H62.868L59.2989 80.4347V85.4315H57.2583V80.861L54.4542 76.6621C54.1819 76.2317 53.8542 75.8394 53.4796 75.4956C53.1744 75.1944 52.7871 74.9912 52.3669 74.9117V74.5852H54.0817C54.6495 74.5975 55.1965 74.8029 55.6335 75.1678C56.0342 75.4981 56.3786 75.8921 56.6531 76.3341" fill="#021F5A"/>
<path d="M69.5702 74.5869L73.0944 83.4032C73.4653 84.3401 74.0255 84.9194 74.7393 84.9896V85.3863C74.488 85.4433 74.2318 85.4747 73.9743 85.48C73.4039 85.4883 72.8396 85.3604 72.3279 85.1068C71.9761 84.947 71.6631 84.7119 71.4109 84.4179C71.1587 84.1239 70.9733 83.7782 70.8676 83.4047L70.4967 82.168H66.3239L65.025 85.4566H64.1902L68.8456 74.5869H69.5702ZM68.484 77.3164L66.6529 81.4684H70.222L68.484 77.3164Z" fill="#021F5A"/>
<path d="M77.0359 74.5869H84.4303V75.3099H81.139V85.3628H79.0982V75.3099H77.9624C76.8498 75.3099 76.1545 75.8001 76.1545 77.1993H75.6889V75.8689C75.6737 75.5535 75.7634 75.242 75.9435 74.9835C76.0847 74.8414 76.2551 74.7322 76.4428 74.6637C76.6305 74.5952 76.8308 74.569 77.0297 74.5869" fill="#021F5A"/>
<path d="M52.4897 3.90839C50.611 4.36539 48.7173 4.80522 46.8086 5.22787C44.8999 5.65052 43.0062 6.05754 41.1274 6.44896C39.8332 6.70817 38.6839 6.96842 37.6794 7.22971C36.6748 7.49101 35.7199 7.75126 34.8147 8.01047C33.8671 8.23962 32.9409 8.55047 32.0463 8.93957C31.5081 9.18437 31.0024 9.49596 30.541 9.86709L30.1531 9.37836C30.4532 8.86286 30.7942 8.37251 31.1726 7.9121C31.504 7.48362 31.8785 7.09063 32.2899 6.7394C32.9039 6.28049 33.5536 5.87214 34.2328 5.5183C34.8152 5.22474 35.5275 4.91556 36.3697 4.59077C37.4714 4.26597 38.8163 3.89122 40.4043 3.46649C41.9923 3.04176 43.5302 2.63472 45.0178 2.24539C46.8293 1.79047 48.5776 1.36679 50.2628 0.974328C51.4774 0.713654 52.6772 0.387348 53.8569 -0.00317383L54.0509 0.290383L52.4897 3.90839Z" fill="#F5AA36"/>
<path d="M33.6338 33.8425C32.5755 34.9621 31.5886 36.1254 30.6187 37.27L29.5014 38.5848C28.4152 37.6323 27.3569 36.6438 26.3497 35.6086C23.7266 33.1517 21.771 30.061 20.6686 26.6299C19.8824 23.6012 20.1417 20.3936 21.4041 17.5326C21.8185 16.5957 23.3082 13.9099 22.8008 16.4021C22.4648 17.9204 22.5522 19.5027 23.0537 20.9742C23.8607 23.0107 25.0374 24.8783 26.5235 26.4816C28.7426 29.08 31.1188 31.5384 33.6386 33.8425" fill="#021F5A"/>
<path d="M63.4222 50.4381C63.3799 53.609 62.1451 56.6461 59.9663 58.9375C58.5197 60.2917 56.9209 61.4714 55.2023 62.4524C54.7833 62.7194 54.3659 62.9848 53.9531 63.2628C53.5879 63.5906 53.1864 63.8751 52.7567 64.1107C51.8861 64.3996 52.4338 62.4024 52.4245 61.9387C52.1866 59.5729 51.1639 57.3566 49.5211 55.6473C46.173 51.8859 42.4264 48.5039 38.3481 45.5615C38.4164 45.4725 38.4816 45.3836 38.553 45.2961C38.8634 44.937 39.1737 44.5778 39.4841 44.2218C40.3127 43.2849 41.0359 42.5041 41.6985 41.8202C41.7009 41.8155 41.7048 41.8117 41.7094 41.8092C41.8832 41.6437 42.0585 41.4798 42.2369 41.319C45.3392 43.3523 48.2655 45.6455 50.9845 48.174C53.7125 50.7156 55.7565 53.9108 56.9263 57.4618C57.8392 57.4076 58.7256 57.1314 59.5093 56.6572C60.2931 56.1829 60.9509 55.5246 61.4265 54.7385C62.2151 53.4533 62.796 52.0503 63.1475 50.5818C63.1584 50.5475 63.1677 50.5115 63.177 50.4772C63.2561 50.1961 63.3321 49.9135 63.4082 49.634C63.419 49.9026 63.4237 50.1727 63.4191 50.4429" fill="#021F5A"/>
<path d="M64.1312 60.1132C64.0315 60.0288 63.916 59.9652 63.7916 59.9261C63.6672 59.8869 63.5363 59.8731 63.4065 59.8853L60.6008 60.143C60.4711 60.1549 60.345 60.1924 60.2298 60.2534C60.1145 60.3145 60.0122 60.3978 59.9289 60.4986C59.8456 60.5994 59.7829 60.7156 59.7442 60.8408C59.7056 60.966 59.6919 61.0976 59.7039 61.2281L59.9599 64.0529C59.9827 64.3006 60.0965 64.5309 60.279 64.6986C60.4615 64.8664 60.6997 64.9597 60.9469 64.9602H61.0384L63.8441 64.7026C63.9747 64.6908 64.1017 64.6531 64.2177 64.5917C64.3337 64.5303 64.4365 64.4463 64.52 64.3447C64.6036 64.243 64.6662 64.1257 64.7044 63.9995C64.7426 63.8733 64.7556 63.7407 64.7426 63.6095L64.4866 60.7863C64.4749 60.6557 64.4375 60.5287 64.3768 60.4126C64.3161 60.2966 64.2332 60.1937 64.1327 60.1101" fill="#F5AA36"/>
<path d="M68.6501 56.1923C68.6382 56.0617 68.6008 55.9349 68.5402 55.8189C68.4796 55.7029 68.3969 55.6 68.2967 55.5162C68.1965 55.4324 68.0809 55.3693 67.9565 55.3304C67.8321 55.2916 67.7013 55.2777 67.5716 55.2897L64.7644 55.5474C64.6347 55.5594 64.5085 55.597 64.3932 55.658C64.2779 55.719 64.1757 55.8022 64.0924 55.903C64.0091 56.0038 63.9464 56.1202 63.9078 56.2454C63.8692 56.3706 63.8555 56.5022 63.8675 56.6327L64.1235 59.4559C64.1459 59.7037 64.2596 59.9341 64.4422 60.102C64.6248 60.2698 64.8631 60.363 65.1104 60.3631H65.202L68.0076 60.1055C68.1375 60.0937 68.2638 60.0562 68.3793 59.9953C68.4948 59.9344 68.5971 59.8512 68.6806 59.7504C68.764 59.6496 68.8269 59.5331 68.8656 59.4078C68.9044 59.2825 68.918 59.1509 68.9061 59.0202L68.6501 56.1923Z" fill="#F5AA36"/>
<path d="M52.4757 9.71414C52.4638 9.58361 52.4265 9.45672 52.3658 9.34071C52.3052 9.22469 52.2225 9.12183 52.1223 9.03801C52.0222 8.95419 51.9066 8.89106 51.7822 8.85221C51.6578 8.81336 51.5269 8.79955 51.3972 8.81159L48.5916 9.06925C48.4618 9.08121 48.3358 9.11876 48.2205 9.17978C48.1052 9.2408 48.003 9.32408 47.9197 9.42486C47.8364 9.52564 47.7736 9.64196 47.735 9.76716C47.6964 9.89235 47.6827 10.024 47.6946 10.1545L47.9507 12.9777C47.9735 13.2254 48.0872 13.4556 48.2697 13.6234C48.4522 13.7912 48.6904 13.8844 48.9377 13.8849H49.0291L51.8364 13.6273C51.9668 13.6151 52.0934 13.5772 52.2092 13.5156C52.3249 13.454 52.4274 13.37 52.5108 13.2685C52.5941 13.1669 52.6567 13.0497 52.6949 12.9237C52.7331 12.7977 52.7462 12.6653 52.7333 12.5342L52.4757 9.71414Z" fill="#F5AA36"/>
<path d="M87.6503 48.7252C87.4067 48.8205 87.1678 48.5925 86.9987 48.3926C85.8758 47.06 84.5406 45.9244 83.0478 45.0322C81.9934 44.3089 80.7386 43.9394 79.463 43.9767C79.0254 44.0037 78.6053 44.1589 78.2543 44.4233C77.3542 45.1619 77.0129 47.7805 78.0758 48.4613C78.4821 48.6847 78.9292 48.8223 79.3901 48.8658C79.7127 48.9704 80.0552 48.9977 80.3901 48.9453C80.725 48.893 81.0432 48.7626 81.3191 48.5644C81.5503 48.3286 81.6869 47.9742 81.9957 47.8586C82.1398 47.8253 82.289 47.822 82.4344 47.8489C82.5798 47.8757 82.7183 47.9321 82.8413 48.0147C85.1398 49.1979 87.1527 50.8737 88.7382 52.9241C88.9012 53.1365 89.1277 53.377 89.3853 53.3098C89.6429 53.2427 89.7283 52.882 89.7299 52.5962C89.7454 49.114 87.731 45.8692 87.7233 42.387C87.6943 42.1486 87.7205 41.9066 87.7996 41.6799C87.8787 41.4532 88.0088 41.2479 88.1796 41.0801C88.3801 40.9709 88.6025 40.909 88.8303 40.8993C89.058 40.8896 89.2849 40.9322 89.4939 41.0239C89.9116 41.2109 90.3699 41.2877 90.8254 41.2472C90.9048 41.2346 90.9794 41.2006 91.0411 41.1488C91.0893 41.0867 91.124 41.0152 91.1432 40.9389C91.1624 40.8625 91.1658 40.783 91.1529 40.7053C91.2009 40.0045 91.0269 39.3065 90.6562 38.7113C90.2995 38.3198 89.8435 38.0337 89.3372 37.8837C88.7798 37.6233 88.1528 37.5542 87.5526 37.6869C87.282 37.787 87.0355 37.9436 86.8295 38.1466C86.6236 38.3495 86.4627 38.5942 86.3577 38.8643C86.1487 39.4059 86.0435 39.9823 86.0474 40.5632C86.0366 42.3145 86.2759 44.0584 86.7581 45.7412C87.0204 46.7421 87.3293 47.7337 87.6365 48.7174" fill="#F5AA36"/>
<path d="M40.6278 52.4151C39.8554 52.2501 39.0501 52.3605 38.3497 52.7274C37.0247 53.2762 35.7843 54.0124 34.6658 54.9136L34.6564 54.9214C34.4826 55.0635 34.298 55.2617 34.3554 55.4772L36.2688 54.9745C36.6222 54.8179 37.009 54.7528 37.3939 54.785C37.7787 54.8172 38.1495 54.9456 38.4724 55.1587C38.6162 55.3126 38.7245 55.4964 38.79 55.6972C38.8554 55.8979 38.8762 56.1107 38.851 56.3205C38.7972 56.7399 38.6515 57.142 38.4243 57.4978C37.7041 58.5926 36.7732 59.5313 35.6868 60.2585C33.6283 61.7343 31.4852 63.0868 29.2686 64.3091C28.997 64.4652 28.6961 64.6589 28.6479 64.9697C29.1419 64.7415 29.6543 64.556 30.1796 64.4153C30.7186 64.2071 31.2508 63.9786 31.7764 63.7298C32.7959 63.2614 33.7937 62.7476 34.7837 62.2104C36.9031 61.1462 38.8386 59.7458 40.516 58.0631C41.3375 57.2839 41.8973 56.2665 42.1176 55.1524C42.2112 54.5951 42.1152 54.0223 41.8452 53.5267C41.5751 53.031 41.1467 52.6416 40.6293 52.4214" fill="#F5AA36"/>
<path d="M101.187 42.1404C101.146 41.5861 101.089 41.0333 101.007 40.4852C100.437 36.6392 98.5237 32.5981 94.9158 31.2036C92.5687 30.4222 90.0144 30.5656 87.7683 31.6049C85.5485 32.6449 83.4682 33.9629 81.5766 35.5274C77.6164 38.5333 73.5662 41.1489 69.6075 44.1594C68.6764 39.4109 70.3167 34.9231 72.1788 30.4604C74.041 25.9976 76.2631 21.5598 76.7551 16.7503C76.8747 16.0902 76.8009 15.4093 76.5425 14.7906C76.4025 14.4876 76.1554 14.2478 75.8493 14.1179C75.5432 13.988 75.2001 13.9773 74.8867 14.088C74.5363 14.3118 74.2673 14.6438 74.1201 15.0342C72.8119 17.7013 71.9476 20.5791 70.551 23.2009C69.2917 25.9284 67.0414 28.0665 64.2631 29.1752C60.5388 30.376 56.5786 28.6662 53.0606 26.9641C54.9445 22.3233 59.873 19.6579 62.4288 15.3528C64.0659 12.5659 64.6187 9.26759 63.9806 6.09462C63.9552 5.87419 63.8668 5.66591 63.7261 5.495C63.5581 5.36838 63.3486 5.31057 63.1399 5.33317C62.9311 5.35576 62.7386 5.45711 62.6011 5.6168C62.3385 5.94837 62.1525 6.33452 62.0564 6.74733C60.3929 11.7832 55.4085 14.8422 52.308 19.1379C50.5405 21.5879 49.4418 25.1044 51.2217 27.5466C51.3417 27.7112 51.4724 27.8677 51.6128 28.015C53.5739 28.9321 55.175 30.4811 56.1627 32.4169L57.0317 34.183C57.1263 34.2899 57.2302 34.3882 57.3421 34.4765C57.8552 34.8347 58.4487 35.059 59.0692 35.1292C61.3655 35.5372 63.7217 35.451 65.9825 34.8763C65.8011 36.4028 65.7944 37.9453 65.9623 39.4734C66.0647 41.0714 66.2752 42.6605 66.5924 44.2297C66.6731 44.6274 66.7605 45.0235 66.8546 45.418L66.7444 45.4695C65.5429 46.0868 64.2429 46.4864 62.9037 46.65C61.7338 43.0996 59.6897 39.9049 56.9619 37.3638C56.2605 36.6705 55.5296 36.0146 54.7769 35.3822L54.2167 35.365H53.9063C51.6296 35.4235 49.4047 36.0606 47.4385 37.217C47.8823 37.572 48.3225 37.9327 48.7591 38.2991L48.7699 38.2913C51.2108 40.2612 53.4631 42.4569 55.497 44.8496C57.1402 46.5592 58.1631 48.7761 58.4004 51.1425C58.4082 51.6109 57.8604 53.6019 58.7325 53.3145C59.1621 53.0781 59.5636 52.7931 59.9289 52.4651C60.3417 52.1871 60.7591 51.9201 61.1704 51.6531C61.6157 51.3705 62.3187 51.0004 63.1349 50.5835L63.4081 50.4445C64.7023 49.7871 66.2292 49.0251 67.466 48.3068L67.6352 48.2069C68.222 50.0125 68.9527 51.7677 69.8201 53.4551C72.5947 58.847 77.1244 64.6292 83.6792 64.9197C85.6259 64.9023 87.5499 64.4979 89.3406 63.7296C91.1313 62.9613 92.7534 61.8443 94.1136 60.4428C96.5456 58.0963 98.438 55.2428 99.6579 52.0824C100.878 48.9221 101.396 45.5314 101.176 42.1482M98.4756 40.3962C98.2714 43.4235 97.4566 46.3772 96.0808 49.0771C94.7049 51.7771 92.7968 54.1667 90.473 56.1003C87.9854 58.3255 84.7996 59.6001 81.4726 59.7011C79.9231 59.5487 78.4265 59.0523 77.0907 58.2476C75.7549 57.443 74.6131 56.3501 73.7477 55.0478C72.032 52.4772 70.7456 49.6416 69.9396 46.6532C70.0529 46.5923 70.1661 46.5345 70.2809 46.472C74.0688 44.3825 77.7497 42.1024 81.3097 39.6404C84.4428 37.5309 87.8163 34.4875 91.5965 33.727C92.6571 33.4566 93.7719 33.4907 94.8142 33.8255C95.8565 34.1603 96.7846 34.7824 97.4933 35.6211C98.3556 37.0523 98.7035 38.7379 98.4788 40.3962" fill="#021F5A"/>
<path d="M41.315 39.389C42.4977 38.2365 43.7793 37.1914 45.1449 36.266C47.8243 34.3773 51.0151 33.3613 54.2866 33.3554C53.5461 32.026 52.4639 30.9215 51.1534 30.1578C49.8428 29.394 48.3523 28.9991 46.8379 29.0143C43.7944 29.0947 40.8616 30.1795 38.4907 32.1015C36.1415 34.0158 34.0079 36.1836 32.1284 38.5661L22.0416 50.4523C21.033 51.6406 20.0243 52.8289 18.9288 53.936C17.6599 55.217 16.2806 56.3822 14.8072 57.4181C13.1066 58.678 11.1942 59.6191 9.16172 60.1961C7.65231 60.5854 6.0815 60.6718 4.53889 60.4506C3.48955 60.2965 2.46679 59.9954 1.50046 59.5559C0.504199 59.103 -0.715499 58.4347 0.519735 59.8072C2.35152 61.53 4.51107 62.8617 6.86816 63.722C9.78183 65.0151 13.0427 65.2862 16.1278 64.4918C19.2212 63.366 21.9811 61.4709 24.1506 58.9828C29.1163 53.9391 33.3155 48.1959 37.9973 42.8852C39.0603 41.6798 40.1527 40.493 41.3135 39.3828" fill="#021F5A"/>
<path d="M15.1657 45.6757C15.0658 45.5914 14.9504 45.528 14.8259 45.4891C14.7015 45.4503 14.5707 45.4367 14.441 45.4492L11.6353 45.7068C11.5055 45.7186 11.3792 45.7561 11.2637 45.817C11.1483 45.8779 11.0459 45.9611 10.9624 46.0619C10.8789 46.1627 10.8161 46.2792 10.7774 46.4045C10.7387 46.5298 10.7249 46.6614 10.7368 46.7921L10.9929 49.6154C11.0153 49.8632 11.129 50.0936 11.3116 50.2614C11.4942 50.4293 11.7325 50.5224 11.9798 50.5226H12.0714L14.877 50.2649C15.0076 50.2531 15.1346 50.2155 15.2506 50.154C15.3666 50.0926 15.4694 50.0086 15.5529 49.907C15.6365 49.8053 15.6992 49.6881 15.7374 49.5619C15.7756 49.4357 15.7886 49.3032 15.7756 49.1719L15.5241 46.3564C15.5125 46.2258 15.4753 46.0988 15.4145 45.9827C15.3538 45.8667 15.2708 45.7639 15.1703 45.6803" fill="#F5AA36"/>
<path d="M19.6862 41.7531C19.6743 41.6226 19.6369 41.4957 19.5763 41.3797C19.5156 41.2637 19.4329 41.1608 19.3327 41.077C19.2326 40.9932 19.117 40.93 18.9926 40.8911C18.8682 40.8523 18.7374 40.8385 18.6076 40.8505L15.802 41.1082C15.6723 41.1202 15.5462 41.1577 15.4309 41.2187C15.3156 41.2797 15.2134 41.363 15.1301 41.4638C15.0468 41.5646 14.984 41.6809 14.9454 41.8061C14.9068 41.9313 14.8931 42.0629 14.9051 42.1934L15.1611 45.0167C15.1839 45.2644 15.2977 45.4946 15.4802 45.6624C15.6627 45.8302 15.9008 45.9234 16.1481 45.9239H16.2396L19.0453 45.6663C19.3074 45.6421 19.5492 45.5142 19.7177 45.3107C19.8862 45.1072 19.9675 44.8448 19.9437 44.581L19.6862 41.7531Z" fill="#F5AA36"/>
<path d="M44.5289 27.2015C42.2022 27.6434 39.9964 28.581 38.0594 29.9513C35.8273 28.2049 33.7059 26.3196 31.7079 24.3064C29.0343 21.8023 27.0412 18.6518 25.9181 15.1544C25.1165 12.0675 25.3808 8.79818 26.6677 5.88222C27.0898 4.9219 28.6089 2.19083 28.0875 4.73297C27.7443 6.2803 27.8335 7.89301 28.3451 9.39249C29.169 11.4671 30.3681 13.37 31.8817 15.0046C35.7304 19.4388 39.9628 23.5204 44.5289 27.2015" fill="#021F5A"/>
</g>
<defs>
<clipPath id="clip0_187_2098">
<rect width="101.241" height="102.842" fill="white"/>
</clipPath>
</defs>
</svg>
