<svg width="730" height="466" viewBox="0 0 730 466" fill="none" xmlns="http://www.w3.org/2000/svg">
<path d="M378.515 28.0911C364.968 31.3661 351.313 34.518 337.549 37.5468C323.785 40.5756 310.129 43.4924 296.582 46.2974C287.249 48.155 278.961 50.02 271.717 51.8925C264.474 53.765 257.588 55.63 251.06 57.4875C244.227 59.1297 237.548 61.3573 231.097 64.1457C227.216 65.9 223.569 68.1329 220.242 70.7925L217.445 67.2902C219.609 63.596 222.068 60.0821 224.797 56.7826C227.186 53.712 229.887 50.8958 232.854 48.3787C237.281 45.0901 241.966 42.1638 246.864 39.6281C251.064 37.5243 256.2 35.3087 262.273 32.9811C270.218 30.6536 279.916 27.968 291.367 24.9243C302.818 21.8806 313.908 18.9637 324.635 16.1736C337.698 12.9135 350.305 9.87734 362.457 7.06488C371.216 5.19683 379.867 2.85845 388.374 0.0598755L389.773 2.16357L378.515 28.0911Z" fill="#E8E8E8"/>
<path d="M242.545 242.606C234.913 250.629 227.796 258.966 220.802 267.168L212.746 276.59C204.913 269.764 197.281 262.681 190.018 255.262C171.103 237.655 157.001 215.507 149.051 190.919C143.382 169.214 145.252 146.228 154.355 125.725C157.343 119.011 168.086 99.764 164.427 117.623C162.004 128.504 162.635 139.843 166.25 150.388C172.07 164.983 180.555 178.366 191.272 189.856C207.274 208.477 224.409 226.094 242.579 242.606" fill="#E8E8E8"/>
<path d="M457.35 361.534C457.045 384.258 448.141 406.022 432.43 422.443C421.998 432.148 410.469 440.601 398.076 447.631C395.055 449.545 392.045 451.447 389.068 453.439C386.434 455.788 383.539 457.827 380.44 459.515C374.163 461.586 378.112 447.273 378.045 443.95C376.33 426.996 368.955 411.114 357.109 398.864C332.965 371.909 305.949 347.673 276.54 326.588C277.032 325.95 277.502 325.312 278.017 324.685C280.255 322.112 282.493 319.538 284.731 316.987C290.706 310.273 295.921 304.677 300.699 299.776C300.717 299.743 300.744 299.715 300.778 299.698C302.031 298.511 303.295 297.337 304.582 296.184C326.953 310.756 348.054 327.189 367.661 345.309C387.333 363.523 402.073 386.421 410.508 411.868C417.091 411.479 423.483 409.5 429.134 406.101C434.786 402.703 439.53 397.985 442.959 392.352C448.646 383.142 452.834 373.087 455.369 362.564C455.448 362.318 455.515 362.06 455.582 361.814C456.152 359.8 456.701 357.775 457.249 355.772C457.327 357.696 457.361 359.632 457.327 361.568" fill="#E8E8E8"/>
<path d="M462.464 430.868C461.745 430.263 460.912 429.807 460.015 429.527C459.118 429.246 458.174 429.147 457.238 429.234L437.007 431.081C436.071 431.167 435.162 431.436 434.331 431.873C433.499 432.31 432.762 432.907 432.161 433.63C431.561 434.352 431.108 435.185 430.83 436.082C430.551 436.979 430.452 437.922 430.539 438.858L432.385 459.101C432.549 460.876 433.37 462.526 434.686 463.728C436.002 464.931 437.72 465.599 439.502 465.602H440.162L460.394 463.756C461.336 463.672 462.251 463.402 463.088 462.962C463.925 462.522 464.666 461.92 465.268 461.192C465.871 460.463 466.322 459.622 466.598 458.718C466.873 457.814 466.967 456.864 466.873 455.923L465.027 435.691C464.943 434.755 464.673 433.845 464.235 433.013C463.797 432.182 463.199 431.445 462.475 430.846" fill="#E8E8E8"/>
<path d="M495.05 402.77C494.964 401.834 494.695 400.925 494.257 400.094C493.82 399.262 493.224 398.525 492.502 397.925C491.779 397.324 490.945 396.872 490.048 396.594C489.151 396.315 488.208 396.216 487.273 396.302L467.03 398.149C466.095 398.234 465.185 398.504 464.353 398.941C463.522 399.378 462.785 399.975 462.184 400.697C461.584 401.419 461.132 402.253 460.853 403.15C460.575 404.047 460.476 404.991 460.562 405.926L462.408 426.157C462.57 427.933 463.39 429.585 464.707 430.787C466.023 431.99 467.742 432.658 469.525 432.659H470.185L490.417 430.813C491.353 430.728 492.264 430.46 493.097 430.023C493.93 429.587 494.668 428.99 495.27 428.268C495.871 427.546 496.325 426.711 496.604 425.813C496.883 424.915 496.982 423.972 496.896 423.036L495.05 402.77Z" fill="#E8E8E8"/>
<path d="M378.415 69.696C378.329 68.7606 378.06 67.8513 377.623 67.0199C377.185 66.1885 376.589 65.4514 375.867 64.8507C375.144 64.2501 374.311 63.7976 373.414 63.5192C372.517 63.2408 371.573 63.1419 370.638 63.2281L350.406 65.0746C349.471 65.1603 348.561 65.4294 347.73 65.8667C346.899 66.3039 346.162 66.9008 345.561 67.623C344.96 68.3452 344.507 69.1788 344.229 70.0759C343.951 70.9731 343.852 71.9162 343.938 72.8516L345.785 93.0833C345.949 94.8584 346.769 96.5084 348.085 97.7108C349.401 98.9131 351.119 99.5813 352.902 99.5849H353.561L373.805 97.7384C374.745 97.6515 375.658 97.3796 376.493 96.9383C377.327 96.497 378.066 95.8951 378.668 95.1671C379.269 94.4392 379.72 93.5994 379.995 92.6964C380.271 91.7934 380.365 90.8449 380.273 89.9054L378.415 69.696Z" fill="#E8E8E8"/>
<path d="M632.061 349.259C630.304 349.941 628.582 348.308 627.362 346.875C619.265 337.326 609.637 329.188 598.872 322.794C591.268 317.61 582.22 314.963 573.022 315.23C569.866 315.423 566.837 316.536 564.305 318.43C557.815 323.723 555.353 342.489 563.019 347.368C565.948 348.968 569.172 349.955 572.496 350.266C574.822 351.016 577.292 351.211 579.707 350.836C582.122 350.461 584.416 349.526 586.406 348.106C588.073 346.417 589.058 343.877 591.285 343.048C592.324 342.81 593.4 342.786 594.449 342.979C595.497 343.171 596.496 343.575 597.383 344.167C613.957 352.646 628.473 364.655 639.906 379.349C641.081 380.871 642.714 382.594 644.572 382.113C646.429 381.632 647.045 379.047 647.057 376.999C647.169 352.045 632.643 328.792 632.587 303.838C632.378 302.129 632.567 300.395 633.137 298.77C633.708 297.146 634.645 295.675 635.877 294.472C637.323 293.689 638.927 293.246 640.57 293.176C642.212 293.107 643.848 293.412 645.355 294.069C648.367 295.409 651.672 295.96 654.956 295.669C655.529 295.58 656.067 295.336 656.512 294.964C656.859 294.519 657.109 294.007 657.248 293.46C657.387 292.913 657.411 292.343 657.318 291.786C657.664 286.764 656.41 281.762 653.736 277.497C651.164 274.691 647.876 272.641 644.225 271.566C640.205 269.7 635.684 269.205 631.356 270.156C629.405 270.873 627.627 271.995 626.142 273.45C624.657 274.904 623.497 276.657 622.739 278.593C621.233 282.474 620.474 286.605 620.502 290.768C620.424 303.318 622.15 315.815 625.627 327.874C627.518 335.047 629.745 342.153 631.961 349.203" fill="#E8E8E8"/>
<path d="M292.978 375.701C287.409 374.519 281.601 375.31 276.551 377.939C266.996 381.872 258.052 387.147 249.986 393.605L249.919 393.661C248.665 394.68 247.334 396.1 247.748 397.645L261.545 394.042C264.094 392.92 266.883 392.453 269.658 392.684C272.433 392.915 275.107 393.835 277.436 395.362C278.472 396.465 279.254 397.782 279.726 399.221C280.197 400.66 280.348 402.185 280.165 403.688C279.778 406.694 278.727 409.575 277.089 412.125C271.895 419.971 265.183 426.698 257.349 431.909C242.504 442.484 227.05 452.177 211.067 460.936C209.108 462.055 206.938 463.443 206.591 465.67C210.153 464.035 213.848 462.705 217.636 461.697C221.522 460.205 225.36 458.568 229.15 456.785C236.502 453.428 243.697 449.746 250.836 445.897C266.119 438.27 280.076 428.235 292.172 416.176C298.096 410.592 302.133 403.301 303.721 395.317C304.396 391.323 303.704 387.218 301.757 383.667C299.809 380.115 296.72 377.324 292.989 375.746" fill="#E8E8E8"/>
<path d="M729.673 302.07C729.382 298.098 728.968 294.136 728.375 290.209C724.268 262.647 710.47 233.687 684.453 223.695C667.528 218.094 649.109 219.122 632.912 226.57C616.905 234.023 601.904 243.468 588.264 254.68C559.706 276.221 530.5 294.964 501.954 316.539C495.24 282.51 507.068 250.349 520.496 218.368C533.924 186.387 549.948 154.584 553.495 120.119C554.358 115.388 553.826 110.508 551.963 106.075C550.953 103.903 549.171 102.185 546.964 101.254C544.757 100.323 542.283 100.247 540.023 101.04C537.496 102.644 535.556 105.023 534.494 107.821C525.061 126.933 518.828 147.557 508.757 166.345C499.676 185.891 483.449 201.213 463.415 209.158C436.559 217.764 408.001 205.51 382.633 193.313C396.218 160.056 431.758 140.955 450.188 110.104C461.993 90.1324 465.979 66.4957 461.378 43.7574C461.195 42.1777 460.557 40.6851 459.543 39.4603C458.331 38.553 456.821 38.1387 455.315 38.3006C453.81 38.4626 452.422 39.1888 451.43 40.3332C449.537 42.7093 448.195 45.4766 447.503 48.4348C435.507 84.523 399.564 106.444 377.206 137.228C364.461 154.786 356.538 179.986 369.373 197.487C370.238 198.667 371.18 199.789 372.193 200.844C386.335 207.416 397.88 218.517 405.003 232.389L411.269 245.045C411.951 245.812 412.7 246.516 413.507 247.149C417.207 249.716 421.487 251.323 425.962 251.826C442.521 254.75 459.511 254.132 475.814 250.014C474.506 260.953 474.457 272.007 475.668 282.957C476.407 294.409 477.925 305.797 480.212 317.042C480.794 319.892 481.424 322.731 482.103 325.558L481.308 325.927C472.644 330.351 463.269 333.215 453.613 334.387C445.176 308.944 430.436 286.05 410.766 267.839C405.708 262.871 400.437 258.171 395.01 253.639L390.97 253.516H388.732C372.315 253.935 356.27 258.501 342.092 266.788C345.292 269.332 348.467 271.916 351.615 274.542L351.693 274.487C369.295 288.603 385.535 304.338 400.202 321.485C412.052 333.736 419.428 349.623 421.139 366.581C421.195 369.938 417.245 384.205 423.534 382.146C426.632 380.452 429.526 378.41 432.161 376.059C435.138 374.067 438.148 372.154 441.113 370.24C444.325 368.215 449.394 365.563 455.28 362.575L457.249 361.579C466.582 356.868 477.593 351.407 486.512 346.26L487.731 345.544C491.963 358.484 497.232 371.061 503.487 383.154C523.495 421.793 556.159 463.23 603.426 465.312C617.463 465.188 631.337 462.289 644.25 456.783C657.163 451.278 668.86 443.273 678.668 433.229C696.206 416.414 709.852 395.965 718.649 373.317C727.447 350.669 731.183 326.371 729.595 302.126M710.123 289.571C708.651 311.265 702.775 332.432 692.854 351.78C682.932 371.129 669.173 388.253 652.416 402.11C634.478 418.056 611.505 427.19 587.514 427.914C576.34 426.822 565.548 423.265 555.916 417.498C546.283 411.732 538.049 403.9 531.809 394.568C519.437 376.146 510.161 355.825 504.349 334.41C505.165 333.973 505.982 333.559 506.81 333.112C534.124 318.137 560.668 301.798 586.339 284.155C608.932 269.037 633.259 247.227 660.518 241.778C668.166 239.84 676.204 240.085 683.72 242.484C691.236 244.883 697.929 249.341 703.04 255.351C709.258 265.607 711.767 277.687 710.146 289.571" fill="#E8E8E8"/>
<path d="M297.936 282.353C306.464 274.094 315.705 266.605 325.553 259.973C344.874 246.438 367.883 239.157 391.474 239.115C386.134 229.588 378.33 221.673 368.88 216.2C359.43 210.727 348.681 207.896 337.761 208.006C315.814 208.582 294.665 216.355 277.569 230.129C260.629 243.848 245.243 259.383 231.69 276.456L158.954 361.635C151.68 370.151 144.407 378.667 136.507 386.6C127.357 395.78 117.411 404.131 106.786 411.554C94.5228 420.583 80.7323 427.327 66.0762 431.462C55.1917 434.251 43.8646 434.871 32.7408 433.286C25.1739 432.182 17.7987 430.023 10.8304 426.874C3.64637 423.629 -5.14894 418.839 3.7584 428.675C16.9675 441.021 32.5401 450.564 49.5372 456.729C70.5478 465.996 94.0621 467.939 116.309 462.245C138.615 454.178 158.517 440.597 174.162 422.767C209.97 386.623 240.25 345.466 274.011 307.408C281.676 298.769 289.554 290.265 297.924 282.308" fill="#E8E8E8"/>
<path d="M109.371 327.405C108.651 326.801 107.818 326.347 106.921 326.068C106.024 325.79 105.08 325.693 104.145 325.782L83.9137 327.628C82.9773 327.713 82.0666 327.981 81.234 328.418C80.4013 328.854 79.6629 329.451 79.0611 330.173C78.4592 330.895 78.0059 331.73 77.7268 332.628C77.4477 333.526 77.3483 334.469 77.4345 335.405L79.281 355.638C79.4428 357.414 80.2626 359.065 81.5792 360.268C82.8959 361.471 84.6144 362.138 86.3977 362.139H87.0579L107.29 360.292C108.231 360.208 109.147 359.938 109.983 359.498C110.82 359.058 111.561 358.456 112.164 357.728C112.766 356.999 113.218 356.159 113.494 355.255C113.769 354.35 113.863 353.4 113.769 352.46L111.956 332.284C111.872 331.347 111.604 330.437 111.166 329.605C110.728 328.774 110.129 328.037 109.405 327.438" fill="#E8E8E8"/>
<path d="M141.968 299.295C141.882 298.359 141.613 297.45 141.175 296.619C140.738 295.788 140.141 295.05 139.419 294.45C138.697 293.849 137.864 293.396 136.967 293.118C136.069 292.84 135.126 292.741 134.191 292.827L113.959 294.674C113.024 294.759 112.114 295.028 111.283 295.465C110.451 295.903 109.714 296.5 109.113 297.222C108.513 297.944 108.06 298.777 107.782 299.675C107.504 300.572 107.405 301.515 107.491 302.45L109.337 322.683C109.502 324.458 110.322 326.107 111.638 327.31C112.954 328.512 114.672 329.18 116.454 329.184H117.114L137.346 327.338C139.236 327.165 140.98 326.248 142.195 324.79C143.41 323.331 143.996 321.451 143.825 319.561L141.968 299.295Z" fill="#E8E8E8"/>
<path d="M321.111 195.014C304.333 198.181 288.427 204.9 274.459 214.72C258.363 202.205 243.066 188.695 228.658 174.268C209.378 156.322 195.006 133.746 186.907 108.682C181.127 86.561 183.033 63.1319 192.312 42.2355C195.356 35.3535 206.311 15.7821 202.551 33.9996C200.076 45.0882 200.719 56.6452 204.409 67.3909C210.349 82.2584 218.996 95.8949 229.911 107.608C257.664 139.385 288.184 168.635 321.111 195.014Z" fill="#E8E8E8"/>
</svg>
