<svg width="104" height="103" viewBox="0 0 104 103" fill="none" xmlns="http://www.w3.org/2000/svg">
<path d="M49.4201 70.6566L49.2686 70.8082L49.4201 70.9595V71.0089H14.5604C14.4471 71.0089 14.3552 71.1008 14.3552 71.2143V71.2546C14.3552 71.3681 14.2633 71.46 14.15 71.46H13.1588C13.0455 71.46 12.9537 71.3681 12.9537 71.2546V70.3404C12.9537 70.2269 13.0455 70.135 13.1588 70.135H14.15C14.2633 70.135 14.3552 70.2269 14.3552 70.3404V70.3807C14.3552 70.4941 14.4471 70.5861 14.5604 70.5861H49.4201V70.6566Z" fill="#F5AA36"/>
<path d="M90.7852 70.3404V71.2547C90.7852 71.3681 90.6934 71.46 90.5801 71.46H89.5888C89.4755 71.46 89.3836 71.3681 89.3836 71.2547V71.2143C89.3836 71.1009 89.2918 71.0089 89.1785 71.0089H54.3503V70.9068L54.4702 70.787L54.3503 70.6672V70.5861H89.1785C89.2918 70.5861 89.3836 70.4941 89.3836 70.3807V70.3404C89.3836 70.2271 89.4755 70.1351 89.5888 70.1351H90.5801C90.6934 70.1351 90.7852 70.2271 90.7852 70.3404Z" fill="#F5AA36"/>
<path d="M52.8995 71.7207L52.6882 71.5092L52.1298 70.9532C52.0493 70.8731 52.0491 70.7429 52.1294 70.6625L52.6847 70.1069L52.896 69.8954L53.0925 69.6987C53.1726 69.6186 53.3026 69.6186 53.3827 69.6987L54.4702 70.7869L54.3504 70.9068L53.365 71.8957C53.285 71.9761 53.1548 71.9762 53.0746 71.8959L52.8995 71.7207ZM53.3827 69.4662C53.3026 69.3859 53.1726 69.3859 53.0925 69.4662L52.7797 69.7791L51.8782 70.6812L51.755 70.8081L53.0746 72.1286C53.1548 72.2088 53.285 72.2087 53.365 72.1283L54.4807 71.0089L54.5575 70.9322C54.6377 70.8519 54.6377 70.7218 54.5575 70.6417L53.3827 69.4662Z" fill="#F5AA36"/>
<path d="M52.0374 72.1605C51.9572 72.2407 51.8274 72.2407 51.7472 72.1605L51.1809 71.5939L51.0647 71.4776L50.5192 70.9318C50.4392 70.8518 50.4391 70.722 50.5189 70.6417L51.0611 70.0962L51.1774 69.9799L51.7225 69.4345C51.8027 69.3542 51.9327 69.3542 52.0128 69.4345L52.6847 70.1069L53.2431 70.6629C53.3236 70.743 53.3238 70.8733 53.2435 70.9537L52.0374 72.1605ZM52.8959 69.8954L52.7798 69.7791L52.0128 69.0116C51.9327 68.9315 51.8027 68.9315 51.7225 69.0116L50.8499 69.8848L50.0964 70.6417C50.0165 70.722 50.0166 70.8518 50.0967 70.9319L51.7472 72.5833C51.8274 72.6636 51.9572 72.6636 52.0374 72.5833L52.7833 71.837L52.8994 71.7208L53.6661 70.9536C53.7464 70.8733 53.7463 70.743 53.666 70.6629L52.8959 69.8954Z" fill="#F5AA36"/>
<path d="M50.6464 71.8962C50.5662 71.9764 50.4363 71.9764 50.3562 71.8962L49.2687 70.8081L49.4201 70.6565L50.3738 69.6992C50.4539 69.6188 50.584 69.6187 50.6642 69.6989L51.0612 70.0962L51.6092 70.6416C51.6896 70.7219 51.6898 70.8521 51.6095 70.9325L50.6464 71.8962ZM51.8783 70.6812L51.1775 69.98L50.9661 69.7685L50.6642 69.4664C50.5839 69.3862 50.4539 69.3862 50.3738 69.4666L49.2581 70.586L49.1813 70.6629C49.1013 70.743 49.1013 70.873 49.1813 70.9532L49.237 71.0089L50.3562 72.1287C50.4363 72.2089 50.5662 72.2089 50.6463 72.1287L50.9697 71.8053L51.1809 71.5939L51.8607 70.9138L51.9839 70.7869L51.8783 70.6812Z" fill="#F5AA36"/>
<path d="M27.3223 83.0085V85.908C26.0633 86.6684 24.7095 87.0012 23.0468 87.0012C21.3604 87.0012 19.9115 86.3357 18.8664 85.29C17.8452 84.268 17.2277 82.7946 17.2277 81.1785C17.2277 79.6337 17.7502 78.2553 18.7002 77.2571C19.6266 76.2826 20.933 75.6884 22.5481 75.6884C24.5669 75.6884 25.8733 76.2826 26.467 76.9955C26.6809 77.2571 26.7759 77.661 26.8234 78.0414C26.8709 78.4454 26.8709 78.8731 26.8709 79.2297H26.3958C25.992 77.2571 24.8995 76.4015 23.0468 76.4015C21.7404 76.4015 20.8618 76.9719 20.3154 77.8511C19.7216 78.7543 19.4841 79.9425 19.4841 81.1785C19.4841 83.1274 19.864 84.4345 20.5292 85.2188C21.1705 86.0267 22.0493 86.3357 23.0468 86.3357C23.9969 86.3357 24.662 86.1932 25.2082 85.9317V83.0561C25.2082 82.6046 25.3033 82.1053 25.7782 81.7251C26.2058 81.3448 26.9896 81.0834 28.3435 81.0834V81.4875C27.6309 81.4875 27.3223 82.0579 27.3223 83.0085Z" fill="white"/>
<path d="M37.7018 80.7745V75.9975H39.7919V84.9573C39.7919 85.9079 39.9581 86.5733 40.9319 86.5733H41.0744V87.0487H39.1506C38.5805 87.0487 38.2242 86.9298 38.0105 86.621C37.773 86.2882 37.7018 85.7654 37.7018 84.9573V81.4874H33.3315V87.0487H31.2413V78.1127C31.2413 77.1382 31.0749 76.4965 30.1012 76.4965H29.9349V75.9975H31.8825C32.4525 75.9975 32.8089 76.14 33.0463 76.4488C33.2601 76.7815 33.3315 77.3044 33.3315 78.1127V80.7745H37.7018Z" fill="white"/>
<path d="M47.036 78.7781L45.1597 83.0085H48.8174L47.036 78.7781ZM48.1524 75.9975L51.7626 84.9812C52.1427 85.9317 52.7127 86.5259 53.4489 86.5971V87.0011C53.259 87.0488 52.9026 87.0962 52.6651 87.0962C52.1427 87.0962 51.5252 87.0011 50.9788 86.716C50.385 86.4307 49.7676 85.9317 49.4825 84.9812L49.1025 83.7214H44.8272L43.4971 87.0725H42.642L47.4161 75.9975H48.1524Z" fill="white"/>
<path d="M58.0567 77.7799L60.2418 81.0835L63.3771 75.9975H64.4224L60.7644 81.9628V87.0487H58.6741V82.3906L55.8003 78.1127C55.5389 77.7086 55.1829 77.2571 54.8027 76.9243C54.4227 76.5915 54.0426 76.3776 53.6628 76.3301V75.9975H55.4201C56.014 75.9975 56.5604 76.2349 57.0117 76.5915C57.4392 76.9243 57.7955 77.3758 58.0567 77.7799Z" fill="white"/>
<path d="M70.17 78.7781L68.2937 83.0085H71.9515L70.17 78.7781ZM71.2864 75.9975L74.8967 84.9812C75.2766 85.9317 75.8467 86.5259 76.583 86.5971V87.0011C76.393 87.0488 76.0367 87.0962 75.7993 87.0962C75.2766 87.0962 74.6592 87.0011 74.1128 86.716C73.5192 86.4307 72.9014 85.9317 72.6165 84.9812L72.2364 83.7214H67.9612L66.631 87.0725H65.776L70.5502 75.9975H71.2864Z" fill="white"/>
<path d="M78.9344 75.9975H86.5111V76.7342H83.1383V86.9773H81.048V76.7342H79.8843C78.7444 76.7342 78.0317 77.2332 78.0317 78.6592H77.5569V77.3044C77.5569 76.9719 77.628 76.6392 77.818 76.4015C78.0317 76.1637 78.3642 75.9975 78.9344 75.9975Z" fill="white"/>
<path d="M53.7853 3.9829C51.8604 4.4481 49.9198 4.89625 47.9636 5.32716C46.006 5.75976 44.0654 6.17362 42.1421 6.57182C40.8158 6.83644 39.6386 7.10243 38.6093 7.36853C37.5815 7.63294 36.6034 7.89914 35.6736 8.16514C34.4141 8.49654 33.4687 8.81229 32.8376 9.11109C32.2077 9.4098 31.693 9.72416 31.295 10.0569L30.897 9.55925C31.1629 9.09405 31.5111 8.59604 31.9418 8.06553C32.3741 7.53344 32.755 7.13514 33.0863 6.87062C33.817 6.34012 34.4794 5.92467 35.0766 5.62586C35.6736 5.32716 36.4044 5.0129 37.2658 4.68001C38.3947 4.3486 39.7709 3.96744 41.3957 3.53485C43.0222 3.10394 44.5957 2.68849 46.1226 2.29019C47.9792 1.82658 49.7704 1.39398 51.4965 0.995675C53.2208 0.597477 54.4477 0.265963 55.1785 -3.15931e-05L55.3775 0.298669L53.7853 3.9829Z" fill="#F5AA36"/>
<path d="M34.4632 34.4822C33.3786 35.6225 32.3678 36.8085 31.373 37.9739L30.2286 39.314C29.1142 38.3435 28.0312 37.3368 26.9985 36.2815C24.4395 33.6723 22.1305 30.6619 21.1764 27.1325C20.3527 24.0782 20.6545 20.7501 21.9308 17.8624C22.3553 16.8998 23.8815 14.1711 23.3581 16.7112C23.0311 18.2918 23.0861 19.8348 23.6175 21.3698C24.3437 23.4758 25.73 25.2845 27.173 26.9816C29.438 29.6427 31.8916 32.123 34.4632 34.4822Z" fill="white"/>
<path d="M64.986 51.392C64.931 54.5886 63.6806 57.7725 61.4445 60.0524C60.0216 61.5048 58.27 62.5578 56.5636 63.6332C56.1341 63.9053 55.7067 64.1762 55.2836 64.4599C54.9218 64.7034 54.4628 65.1903 54.0576 65.3237C53.1659 65.6179 53.7266 63.5835 53.7171 63.1104C53.6757 60.7087 52.2773 58.5483 50.7424 56.6992C47.459 52.7479 43.3619 49.5672 39.2999 46.4225C39.3696 46.3314 39.4373 46.2415 39.5093 46.1526C39.8234 45.7863 40.145 45.4201 40.4655 45.0581C41.314 44.1002 42.0481 43.3084 42.7346 42.6109C42.7367 42.6067 42.7409 42.6024 42.7452 42.6003C42.9239 42.432 43.1027 42.2648 43.2857 42.1007C46.4021 44.2579 49.5354 46.4309 52.2445 49.0803C54.9567 51.7318 57.2469 54.9114 58.3324 58.5441C60.2004 58.5568 61.9003 57.3205 62.9433 55.7698C63.7982 54.4924 64.2911 53.019 64.7067 51.5338C64.7173 51.4989 64.7268 51.4619 64.7374 51.4269C64.8178 51.1411 64.8961 50.8532 64.9745 50.5674C64.986 50.8405 64.9902 51.1168 64.986 51.392Z" fill="white"/>
<path d="M65.7124 61.2503C65.5038 61.0762 65.2412 60.9941 64.9694 61.0187L62.0939 61.2819C61.8234 61.3065 61.5788 61.4352 61.4051 61.6441C61.2314 61.8529 61.1492 62.117 61.1739 62.3875L61.4368 65.265C61.4615 65.5353 61.5901 65.7803 61.7988 65.954C61.9832 66.1076 62.2105 66.1896 62.4477 66.1896C62.4788 66.1896 62.5103 66.1882 62.5419 66.1853L65.4173 65.9223C65.6878 65.8975 65.9325 65.7688 66.1063 65.5601C66.2799 65.3514 66.3621 65.0874 66.3373 64.8164L66.0744 61.9394C66.0497 61.6689 65.9212 61.4241 65.7124 61.2503Z" fill="#F5AA36"/>
<path d="M70.3431 57.2547C70.3184 56.9843 70.1898 56.7395 69.9812 56.5657C69.7725 56.3919 69.51 56.3088 69.2381 56.3345L66.3624 56.5975C66.0921 56.6222 65.8474 56.7508 65.6737 56.9596C65.5 57.1687 65.4179 57.4325 65.4427 57.7032L65.7055 60.5803C65.7303 60.8509 65.8587 61.0956 66.0674 61.2695C66.2518 61.4233 66.4795 61.5051 66.7163 61.5051C66.7474 61.5051 66.779 61.5039 66.8106 61.5009L69.6859 61.2379C69.9563 61.2131 70.2009 61.0845 70.3747 60.8758C70.5486 60.6667 70.6307 60.4027 70.6059 60.1322L70.3431 57.2547Z" fill="#F5AA36"/>
<path d="M53.7697 9.8977C53.7451 9.62726 53.6165 9.38243 53.4078 9.20863C53.1991 9.03483 52.9368 8.95227 52.6647 8.97735L49.7893 9.24028C49.5187 9.26494 49.2741 9.39354 49.1003 9.60238C48.9268 9.81132 48.8446 10.0753 48.8693 10.346L49.1321 13.2233C49.1568 13.4938 49.2854 13.7386 49.4941 13.9125C49.6783 14.066 49.9059 14.1479 50.1427 14.1479C50.174 14.1479 50.2056 14.1466 50.237 14.1437L53.1127 13.8806C53.6707 13.8296 54.0833 13.3335 54.0324 12.7748L53.7697 9.8977Z" fill="#F5AA36"/>
<path d="M89.8121 49.6468C89.563 49.7438 89.3174 49.5123 89.1446 49.3083C87.9974 47.9534 86.6234 46.7912 85.0974 45.8848C83.9813 45.2218 82.7156 44.683 81.424 44.81C80.9799 44.8538 80.5313 44.9829 80.1854 45.2651C79.2631 46.0175 78.9207 48.6852 80.0035 49.3803C80.4014 49.6358 80.8828 49.7173 81.3494 49.7932C82.0347 49.9048 82.8381 49.9807 83.3254 49.4857C83.562 49.2454 83.7027 48.8848 84.0185 48.7661C84.3022 48.6593 84.6148 48.7929 84.8848 48.9305C87.2341 50.1288 89.3153 51.8501 90.9336 53.9334C91.101 54.1491 91.3322 54.3946 91.5963 54.3261C91.878 54.2532 91.9481 53.8897 91.9494 53.5986C91.9649 50.0505 89.902 46.7446 89.8943 43.1965C89.8932 42.7076 89.9658 42.1531 90.361 41.8656C90.7386 41.5909 91.2626 41.6705 91.7084 41.8088C92.1543 41.9471 92.6164 42.1344 93.0727 42.0363C93.1529 42.0191 93.234 41.9915 93.2937 41.9353C93.4108 41.8253 93.4135 41.6435 93.4082 41.4829C93.3842 40.7724 93.3414 40.0081 92.9 39.4509C92.5659 39.0293 92.0531 38.7946 91.5485 38.6083C90.9625 38.392 90.3163 38.2199 89.7204 38.4075C89.1583 38.5846 88.7293 39.0657 88.496 39.6071C88.2627 40.1485 88.2022 40.748 88.1853 41.3374C88.1345 43.1223 88.4557 44.8807 88.9127 46.6138C89.1816 47.6335 89.4974 48.6445 89.8121 49.6468Z" fill="#F5AA36"/>
<path d="M41.6253 53.4057C40.8612 53.1632 40.0327 53.4121 39.2914 53.7172C37.9355 54.2757 36.66 55.0287 35.5158 55.9463C35.5125 55.9489 35.5092 55.9518 35.5057 55.9544C35.3273 56.0993 35.1384 56.3008 35.1978 56.521C35.8512 56.35 36.5045 56.1791 37.1578 56.0083C37.9236 55.8079 38.8474 55.645 39.4151 56.1968C39.723 56.4959 39.8424 56.9529 39.8036 57.3805C39.7649 57.8081 39.5848 58.211 39.3658 58.5803C38.6857 59.7273 37.6341 60.6018 36.561 61.3927C34.4762 62.929 32.235 64.2386 29.9845 65.5194C29.7064 65.6777 29.3985 65.8761 29.3472 66.1922C29.3655 66.0801 30.7459 65.6937 30.9166 65.6268C31.4688 65.4103 32.0146 65.1777 32.5533 64.9289C33.5976 64.4468 34.6221 63.9285 35.6348 63.3814C37.7608 62.2329 39.8433 60.9284 41.509 59.1549C42.2956 58.3176 43.0031 57.329 43.1504 56.1893C43.2976 55.0497 42.72 53.7532 41.6253 53.4057Z" fill="#F5AA36"/>
<path d="M100.916 41.1524C100.534 47.3074 97.4877 53.2497 92.7159 57.1533C90.1612 59.2438 86.8757 60.9098 83.4958 60.823C80.2959 60.7415 77.4239 58.5727 75.5812 56.0821C73.7109 53.5503 72.6372 50.5283 71.6799 47.5286C71.7952 47.4672 71.9116 47.4079 72.029 47.3444C75.9398 45.2645 79.6517 42.8427 83.3298 40.3829C86.5403 38.2331 89.9963 35.1402 93.871 34.358C96.0607 33.9156 98.5995 34.4776 99.907 36.2876C100.898 37.6573 101.02 39.463 100.916 41.1524ZM103.683 42.938C103.642 42.3738 103.583 41.8107 103.498 41.2508C102.914 37.3323 100.955 33.2149 97.2571 31.7933C94.9183 30.8936 92.2472 31.2419 89.9327 32.2019C87.6182 33.163 85.5893 34.6893 83.5889 36.1987C79.5311 39.2619 75.3802 41.9325 71.3245 44.9946C70.364 40.1563 72.0501 35.5837 73.9595 31.0365C75.8678 26.4883 78.1453 21.9728 78.6489 17.0668C78.7187 16.3904 78.7451 15.6728 78.431 15.0695C78.1147 14.4672 77.3435 14.0533 76.7353 14.3539C76.3566 14.5413 76.1365 14.9403 75.9493 15.3182C74.609 18.0353 73.7268 20.9673 72.2987 23.6389C70.8675 26.3115 68.7402 28.8 65.8555 29.7261C62.0463 30.9497 57.9821 29.2075 54.377 27.4737C56.3065 22.7445 61.3576 20.0295 63.9768 15.6432C65.6503 12.8414 66.2321 9.40664 65.5741 6.21005C65.5286 5.98988 65.4715 5.75808 65.3128 5.59931C65.0071 5.29658 64.4602 5.41619 64.1598 5.72421C63.8615 6.03328 63.7388 6.46725 63.6023 6.87688C61.8982 12.0084 56.7899 15.1256 53.6143 19.5024C51.8023 21.9993 50.6778 25.5812 52.4973 28.0696C52.621 28.239 52.7543 28.3988 52.8982 28.5491C54.9313 29.5261 56.5942 31.0852 57.5611 33.0339L58.4507 34.8333C58.5459 34.9402 58.6485 35.0407 58.7638 35.1318C59.261 35.5287 59.9063 35.6864 60.5336 35.7975C62.8788 36.2135 65.3107 36.1246 67.6178 35.5393C67.2889 35.6229 67.5702 39.7763 67.5967 40.223C67.7014 41.8499 67.9183 43.4704 68.243 45.0687C68.3255 45.4741 68.4155 45.8774 68.5117 46.2796C68.4736 46.2976 68.4366 46.3145 68.3985 46.3315C66.8573 47.0332 65.3065 47.5392 64.4623 47.535C63.377 43.9023 61.0847 40.7226 58.3745 38.0733C57.6552 37.3673 56.9073 36.6994 56.1362 36.0548L55.5628 36.0368C55.4581 36.0346 55.3513 36.0325 55.2444 36.0325C52.6908 36.0325 50.3721 36.9396 48.6161 37.9187C49.071 38.2807 49.5226 38.6491 49.9691 39.0217C49.9733 39.0195 49.9775 39.0153 49.9796 39.0132C52.456 41.0582 54.8224 43.2238 56.8724 45.69C58.4073 47.5392 59.8058 49.6995 59.847 52.1023C59.8555 52.5754 59.2938 54.6087 60.1877 54.3155C60.5928 54.1811 61.0519 53.6942 61.4137 53.4507C61.8368 53.1671 62.2642 52.8961 62.6937 52.6241C63.1506 52.3362 63.87 51.9583 64.7067 51.5339C64.7987 51.4862 64.8918 51.4397 64.986 51.392C66.3125 50.722 67.877 49.9462 69.1432 49.2137C69.2014 49.1798 69.2585 49.146 69.3157 49.1121C69.9165 50.9506 70.6654 52.7404 71.554 54.4595C74.3975 59.953 79.0392 65.8444 85.7554 66.1408C89.7328 66.3176 93.5484 64.3075 96.4468 61.5787C101.463 56.8559 104.167 49.8022 103.683 42.938Z" fill="white"/>
<path d="M42.3345 40.1335C43.5572 38.9699 44.8521 37.8895 46.2595 36.9588C49.0352 35.1233 52.3005 33.8922 55.6261 33.9932C54.2526 31.2196 51.086 29.6124 47.9927 29.5698C44.8995 29.5272 41.9124 30.8555 39.4393 32.715C36.9663 34.5747 34.9353 36.9487 32.9261 39.3022C29.4797 43.339 26.0334 47.3756 22.5872 51.4124C21.554 52.6226 20.5196 53.8341 19.3968 54.9616C18.0975 56.2664 16.6821 57.4556 15.1729 58.5103C13.4036 59.7471 11.48 60.809 9.38837 61.3413C7.84605 61.7338 6.22684 61.8304 4.65205 61.601C3.57931 61.4446 2.52677 61.1368 1.53897 60.6896C0.518377 60.2277 -0.731977 59.5467 0.534349 60.9454C2.1122 62.6882 4.89937 64.0559 7.03946 64.9344C10.0315 66.1627 13.4217 66.6221 16.527 65.718C19.7482 64.7802 22.3876 62.4892 24.7482 60.1041C29.8346 54.9649 34.1391 49.1128 38.9369 43.7027C40.0255 42.4752 41.1458 41.2651 42.3345 40.1335Z" fill="white"/>
<path d="M15.5407 46.5392C15.332 46.3651 15.0693 46.283 14.7975 46.3077L11.9221 46.5707C11.6516 46.5955 11.4069 46.7241 11.2332 46.9329C11.0595 47.1419 10.9773 47.4059 11.0021 47.6765L11.265 50.5539C11.2897 50.8243 11.4182 51.0691 11.6269 51.2429C11.8113 51.3965 12.0386 51.4785 12.2758 51.4785C12.3069 51.4785 12.3385 51.4771 12.37 51.4742L15.2454 51.2112C15.516 51.1864 15.7606 51.0578 15.9344 50.849C16.108 50.6402 16.1902 50.3763 16.1654 50.1054L15.9026 47.2283C15.8779 46.9578 15.7493 46.713 15.5407 46.5392Z" fill="#F5AA36"/>
<path d="M20.1713 42.5436C20.1466 42.2732 20.0181 42.0283 19.8094 41.8545C19.6007 41.6807 19.3382 41.5976 19.0662 41.6233L16.1905 41.8864C15.9203 41.9111 15.6757 42.0397 15.5019 42.2485C15.3282 42.4574 15.2461 42.7214 15.2709 42.9921L15.5337 45.8692C15.5585 46.1397 15.6869 46.3845 15.8956 46.5583C16.08 46.7121 16.3076 46.794 16.5445 46.794C16.5756 46.794 16.6072 46.7927 16.6387 46.7898L19.5142 46.5267C19.7845 46.502 20.0291 46.3734 20.2029 46.1645C20.3768 45.9556 20.4589 45.6916 20.4341 45.421L20.1713 42.5436Z" fill="#F5AA36"/>
<path d="M45.6276 27.7151C42.9807 28.1665 40.7 29.3539 38.9992 30.5162C36.7247 28.7139 34.5194 26.8343 32.4903 24.7646C29.8825 22.105 27.5295 19.0365 26.5581 15.4393C25.7171 12.3268 26.0267 8.93587 27.3267 5.99151C27.7589 5.01327 29.3151 2.23097 28.7806 4.81979C28.4475 6.43036 28.5024 8.00314 29.0447 9.5681C29.7866 11.7133 31.1981 13.5567 32.6678 15.2868C36.5534 19.8542 40.9907 23.8995 45.6276 27.7151Z" fill="white"/>
<path d="M21.7519 91.5992C21.5562 91.4135 21.4584 91.1851 21.4584 90.9139C21.4584 90.6379 21.5587 90.4045 21.7594 90.2135C21.965 90.0229 22.2209 89.9274 22.527 89.9274C22.8381 89.9274 23.0939 90.0229 23.2946 90.2135C23.4852 90.4045 23.5805 90.6379 23.5805 90.9139C23.5805 91.1952 23.4827 91.4259 23.2871 91.6067C23.0863 91.7874 22.833 91.8779 22.527 91.8779C22.2109 91.8779 21.9524 91.7849 21.7519 91.5992ZM19.4188 91.5992C19.2232 91.4135 19.1254 91.1851 19.1254 90.9139C19.1254 90.6379 19.2257 90.4045 19.4265 90.2135C19.6321 90.0229 19.888 89.9274 20.194 89.9274C20.505 89.9274 20.761 90.0229 20.9616 90.2135C21.1523 90.4045 21.2476 90.6379 21.2476 90.9139C21.2476 91.1952 21.1499 91.4259 20.9541 91.6067C20.7535 91.7874 20.5 91.8779 20.194 91.8779C19.8779 91.8779 19.6195 91.7849 19.4188 91.5992ZM23.1516 99.9125C22.72 98.2961 22.3965 96.3257 22.1808 94.0013C21.4031 94.2022 20.7484 94.6214 20.2165 95.2589C19.7199 95.8613 19.434 96.529 19.3588 97.2619C19.3537 97.3022 19.3512 97.3573 19.3512 97.4276C19.3512 97.7037 19.4313 97.9371 19.592 98.1278C19.8278 98.3939 20.1915 98.527 20.6832 98.527C21.1849 98.527 21.6992 98.3939 22.2259 98.1278L22.3991 98.7604C21.9675 99.0516 21.4683 99.2574 20.9015 99.3778C20.4849 99.4633 20.0836 99.5059 19.6974 99.5059C19.5318 99.5059 19.3662 99.4984 19.2007 99.4833C18.6537 99.4382 18.1997 99.2499 17.8386 98.9185C17.5324 98.6426 17.3795 98.2785 17.3795 97.8267C17.3795 97.3649 17.5099 96.8778 17.7707 96.3658C17.9815 95.9493 18.2875 95.54 18.6889 95.1385C19.627 94.1996 20.7759 93.5796 22.1357 93.2784L22.1206 92.8267C22.1206 92.7362 22.1231 92.6711 22.1281 92.6308H23.9493C23.9493 94.895 24.1601 97.0133 24.5815 98.9863H25.334V99.9125H23.1516Z" fill="white"/>
<path d="M41.1977 102.337C41.002 102.151 40.9042 101.923 40.9042 101.652C40.9042 101.376 41.0045 101.143 41.2052 100.952C41.4109 100.761 41.6669 100.666 41.9728 100.666C42.2839 100.666 42.5398 100.761 42.7405 100.952C42.9311 101.143 43.0264 101.376 43.0264 101.652C43.0264 101.933 42.9285 102.164 42.733 102.345C42.5322 102.526 42.2788 102.616 41.9728 102.616C41.6567 102.616 41.3983 102.523 41.1977 102.337ZM38.8647 102.337C38.6691 102.151 38.5712 101.923 38.5712 101.652C38.5712 101.376 38.6715 101.143 38.8723 100.952C39.0779 100.761 39.3338 100.666 39.6399 100.666C39.951 100.666 40.2069 100.761 40.4075 100.952C40.5982 101.143 40.6935 101.376 40.6935 101.652C40.6935 101.933 40.5957 102.164 40.4 102.345C40.1994 102.526 39.9459 102.616 39.6399 102.616C39.3238 102.616 39.0654 102.523 38.8647 102.337ZM24.738 98.9863H39.8807V93.4365H41.732V99.9126H24.738V98.9863Z" fill="white"/>
<path d="M43.0264 102.518C43.3626 102.387 43.6536 102.244 43.8995 102.089C44.1503 101.928 44.361 101.77 44.5316 101.614C44.9931 101.193 45.2792 100.57 45.3895 99.7468C45.4246 99.4357 45.4446 99.1872 45.4497 99.0013C45.4547 98.8608 45.4572 98.5847 45.4572 98.173V93.4365H47.3085V97.9998C47.3085 98.4016 47.2985 98.7254 47.2784 98.9712C47.163 100.367 46.6463 101.383 45.7282 102.021C45.4824 102.192 45.1536 102.37 44.7423 102.556C44.3359 102.726 43.8919 102.874 43.4103 103L43.0264 102.518Z" fill="white"/>
<path d="M48.8062 90.3491H50.665V98.9863H52.1701V99.9125H48.8062V90.3491Z" fill="white"/>
<path d="M66.7099 92.2543C66.5142 92.0686 66.4167 91.8401 66.4167 91.5689C66.4167 91.293 66.5168 91.0596 66.7174 90.8687C66.9232 90.678 67.1792 90.5825 67.4851 90.5825C67.7962 90.5825 68.052 90.678 68.2527 90.8687C68.4434 91.0596 68.5386 91.293 68.5386 91.5689C68.5386 91.8503 68.4407 92.0811 68.2453 92.2617C68.0445 92.4425 67.7911 92.5329 67.4851 92.5329C67.1691 92.5329 66.9105 92.44 66.7099 92.2543ZM64.5954 95.9893C64.5954 97.4301 65.1674 98.3563 66.311 98.7679C67.4549 98.3563 68.0269 97.4301 68.0269 95.9893C68.0269 94.6439 67.4549 93.9712 66.311 93.9712C65.1674 93.9712 64.5954 94.6439 64.5954 95.9893ZM64.377 92.2543C64.1813 92.0686 64.0834 91.8401 64.0834 91.5689C64.0834 91.293 64.1838 91.0596 64.3845 90.8687C64.5902 90.678 64.8462 90.5825 65.1521 90.5825C65.4632 90.5825 65.719 90.678 65.9198 90.8687C66.1104 91.0596 66.2056 91.293 66.2056 91.5689C66.2056 91.8503 66.1079 92.0811 65.9124 92.2617C65.7115 92.4425 65.4581 92.5329 65.1521 92.5329C64.8362 92.5329 64.5776 92.44 64.377 92.2543ZM70.7587 98.9863V99.9125H67.7485C67.2517 99.9125 66.7727 99.8624 66.311 99.7619C65.8495 99.8624 65.3705 99.9125 64.8738 99.9125H52.1214V98.9863H64.4146C63.2155 98.1982 62.616 97.1991 62.616 95.9893C62.616 95.1308 62.957 94.4606 63.6394 93.9787C64.3018 93.5117 65.1922 93.2784 66.311 93.2784C67.43 93.2784 68.3205 93.5117 68.9825 93.9787C69.665 94.4606 70.0062 95.1308 70.0062 95.9893C70.0062 97.1991 69.4067 98.1982 68.2077 98.9863H70.7587Z" fill="white"/>
<path d="M70.0061 98.9863H73.7389C73.0716 98.4141 72.5298 97.7288 72.1134 96.9306C71.707 96.1425 71.5038 95.402 71.5038 94.7092C71.5038 94.3678 71.8976 94.044 72.6853 93.7378C73.478 93.4316 74.3158 93.2785 75.1989 93.2785C76.0868 93.2785 76.9272 93.4342 77.72 93.7452C78.5026 94.0516 78.8941 94.3728 78.8941 94.7092C78.8941 95.3669 78.6881 96.0947 78.2769 96.8929C77.8504 97.7163 77.3062 98.4141 76.6438 98.9863H79.6465V99.9125H75.4698V98.9863C76.4331 97.0937 76.9148 95.5576 76.9148 94.3779C76.9148 94.3377 76.7842 94.2699 76.5234 94.1746C76.1572 94.0391 75.7155 93.9712 75.1989 93.9712C74.682 93.9712 74.2431 94.0391 73.882 94.1746C73.6209 94.2749 73.4906 94.3453 73.4906 94.3853C73.4906 95.5703 73.9671 97.1038 74.9203 98.9863V99.9125H70.0061V98.9863Z" fill="white"/>
<path d="M78.8939 98.9863H81.1441V90.3491H83.0031V99.9125H78.8939V98.9863Z" fill="white"/>
<path d="M84.5005 90.3491H86.3593V99.9125H84.5005V90.3491Z" fill="white"/>
</svg>
