<svg width="904" height="897" viewBox="0 0 904 897" fill="none" xmlns="http://www.w3.org/2000/svg">
<path d="M430.691 615.33L429.372 616.65L430.691 617.968V618.398H127.108C126.121 618.398 125.32 619.198 125.32 620.187V620.538C125.32 621.526 124.52 622.326 123.533 622.326H114.901C113.915 622.326 113.115 621.526 113.115 620.538V612.576C113.115 611.588 113.915 610.787 114.901 610.787H123.533C124.52 610.787 125.32 611.588 125.32 612.576V612.927C125.32 613.915 126.121 614.716 127.108 614.716H430.691V615.33Z" fill="white"/>
<path d="M790.929 612.576V620.539C790.929 621.526 790.13 622.326 789.143 622.326H780.51C779.523 622.326 778.723 621.526 778.723 620.539V620.187C778.723 619.199 777.923 618.398 776.937 618.398H473.628V617.509L474.671 616.465L473.628 615.422V614.716H776.937C777.923 614.716 778.723 613.915 778.723 612.927V612.576C778.723 611.589 779.523 610.788 780.51 610.788H789.143C790.13 610.788 790.929 611.589 790.929 612.576Z" fill="white"/>
<path d="M460.992 624.598L459.153 622.756L454.289 617.914C453.588 617.216 453.587 616.082 454.286 615.381L459.122 610.543L460.962 608.701L462.674 606.989C463.371 606.291 464.503 606.291 465.201 606.989L474.672 616.465L473.628 617.509L465.047 626.121C464.35 626.822 463.216 626.823 462.518 626.123L460.992 624.598ZM465.201 604.963C464.503 604.265 463.371 604.265 462.674 604.963L459.95 607.688L452.099 615.545L451.026 616.65L462.518 628.149C463.216 628.848 464.35 628.847 465.047 628.147L474.763 618.399L475.432 617.73C476.13 617.031 476.13 615.899 475.432 615.201L465.201 604.963Z" fill="white"/>
<path d="M453.485 628.427C452.786 629.126 451.656 629.126 450.958 628.427L446.026 623.493L445.014 622.481L440.263 617.727C439.567 617.03 439.566 615.9 440.26 615.2L444.983 610.45L445.995 609.437L450.742 604.687C451.441 603.988 452.573 603.988 453.271 604.687L459.122 610.543L463.985 615.386C464.686 616.082 464.688 617.217 463.989 617.918L453.485 628.427ZM460.961 608.702L459.95 607.689L453.271 601.005C452.573 600.307 451.441 600.307 450.742 601.005L443.143 608.609L436.581 615.2C435.885 615.9 435.886 617.03 436.584 617.728L450.958 632.11C451.656 632.808 452.786 632.808 453.485 632.11L459.98 625.61L460.992 624.598L467.669 617.917C468.368 617.217 468.367 616.082 467.668 615.386L460.961 608.702Z" fill="white"/>
<path d="M441.371 626.125C440.673 626.823 439.542 626.823 438.843 626.125L429.373 616.649L430.691 615.329L438.997 606.992C439.695 606.292 440.828 606.291 441.526 606.99L444.983 610.449L449.755 615.199C450.456 615.898 450.457 617.033 449.758 617.733L441.371 626.125ZM452.099 615.544L445.996 609.437L444.155 607.596L441.526 604.965C440.827 604.266 439.695 604.266 438.997 604.967L429.281 614.715L428.612 615.385C427.915 616.082 427.915 617.214 428.612 617.913L429.097 618.398L438.843 628.15C439.542 628.848 440.673 628.848 441.37 628.15L444.187 625.334L446.026 623.493L451.946 617.569L453.019 616.465L452.099 615.544Z" fill="white"/>
<path d="M238.247 722.899V748.149C227.284 754.772 215.494 757.67 201.014 757.67C186.327 757.67 173.709 751.874 164.607 742.768C155.714 733.867 150.337 721.036 150.337 706.962C150.337 693.508 154.887 681.505 163.16 672.811C171.227 664.325 182.605 659.15 196.67 659.15C214.252 659.15 225.629 664.325 230.799 670.533C232.662 672.811 233.489 676.329 233.903 679.642C234.316 683.16 234.316 686.885 234.316 689.991H230.179C226.663 672.811 217.148 665.36 201.014 665.36C189.636 665.36 181.985 670.328 177.226 677.984C172.055 685.85 169.986 696.198 169.986 706.962C169.986 723.934 173.296 735.317 179.088 742.148C184.673 749.184 192.326 751.874 201.014 751.874C209.287 751.874 215.08 750.634 219.836 748.356V723.314C219.836 719.381 220.664 715.033 224.801 711.722C228.524 708.41 235.35 706.134 247.141 706.134V709.653C240.935 709.653 238.247 714.62 238.247 722.899Z" fill="white"/>
<path d="M328.64 703.444V661.842H346.842V739.871C346.842 748.149 348.289 753.945 356.77 753.945H358.011V758.084H341.257C336.292 758.084 333.189 757.049 331.329 754.359C329.26 751.461 328.64 746.909 328.64 739.871V709.652H290.58V758.084H272.377V680.263C272.377 671.777 270.928 666.188 262.448 666.188H261V661.842H277.962C282.925 661.842 286.029 663.083 288.096 665.773C289.958 668.67 290.58 673.224 290.58 680.263V703.444H328.64Z" fill="white"/>
<path d="M409.929 686.058L393.588 722.899H425.443L409.929 686.058ZM419.651 661.842L451.092 740.079C454.402 748.356 459.365 753.531 465.777 754.152V757.67C464.124 758.085 461.02 758.498 458.951 758.498C454.402 758.498 449.025 757.67 444.265 755.187C439.095 752.703 433.717 748.356 431.235 740.079L427.925 729.107H390.693L379.109 758.291H371.663L413.239 661.842H419.651Z" fill="white"/>
<path d="M505.905 677.365L524.935 706.135L552.239 661.842H561.342L529.486 713.793V758.084H511.282V717.518L486.255 680.263C483.979 676.744 480.878 672.812 477.567 669.914C474.258 667.016 470.948 665.153 467.64 664.739V661.842H482.944C488.116 661.842 492.874 663.91 496.804 667.016C500.528 669.914 503.631 673.846 505.905 677.365Z" fill="white"/>
<path d="M611.397 686.058L595.057 722.899H626.911L611.397 686.058ZM621.12 661.842L652.56 740.079C655.868 748.356 660.834 753.531 667.246 754.152V757.67C665.591 758.085 662.488 758.498 660.421 758.498C655.868 758.498 650.492 757.67 645.734 755.187C640.564 752.703 635.184 748.356 632.703 740.079L629.392 729.107H592.161L580.577 758.291H573.131L614.708 661.842H621.12Z" fill="white"/>
<path d="M687.724 661.843H753.707V668.258H724.334V757.463H706.131V668.258H695.996C686.069 668.258 679.863 672.604 679.863 685.022H675.727V673.224C675.727 670.328 676.346 667.431 678.001 665.36C679.863 663.29 682.758 661.843 687.724 661.843Z" fill="white"/>
<path d="M468.707 34.6867C451.943 38.738 435.043 42.6409 418.008 46.3935C400.959 50.1609 384.059 53.7651 367.309 57.2329C355.759 59.5374 345.507 61.8539 336.543 64.1713C327.592 66.4739 319.074 68.7922 310.977 71.1087C300.009 73.9949 291.775 76.7446 286.278 79.3468C280.793 81.9481 276.311 84.6859 272.845 87.584L269.378 83.2497C271.694 79.1984 274.727 74.8614 278.477 70.2413C282.243 65.6074 285.56 62.1387 288.444 59.8351C294.808 55.2151 300.577 51.5971 305.777 48.9948C310.977 46.3935 317.342 43.6567 324.843 40.7576C334.675 37.8715 346.659 34.5521 360.809 30.7847C374.974 27.0321 388.677 23.414 401.974 19.9453C418.143 15.9079 433.742 12.1405 448.774 8.67176C463.791 5.20396 474.476 2.31689 480.839 0.000417379L482.573 2.60173L468.707 34.6867Z" fill="white"/>
<path d="M300.436 300.297C290.99 310.227 282.188 320.555 273.524 330.705L263.558 342.375C253.852 333.923 244.421 325.157 235.428 315.967C213.142 293.243 193.033 267.027 184.725 236.29C177.551 209.691 180.18 180.708 191.294 155.559C194.991 147.176 208.283 123.413 203.724 145.534C200.877 159.299 201.356 172.736 205.983 186.104C212.308 204.445 224.38 220.197 236.947 234.976C256.672 258.151 278.04 279.751 300.436 300.297Z" fill="white"/>
<path d="M566.251 447.56C565.772 475.398 554.883 503.125 535.409 522.981C523.017 535.629 507.762 544.8 492.902 554.165C489.162 556.534 485.44 558.894 481.755 561.365C478.604 563.485 474.607 567.725 471.078 568.887C463.313 571.449 468.195 553.732 468.113 549.612C467.752 528.696 455.574 509.882 442.207 493.778C413.612 459.368 377.932 431.668 342.557 404.281C343.165 403.488 343.754 402.705 344.381 401.931C347.117 398.741 349.917 395.552 352.709 392.399C360.098 384.057 366.49 377.162 372.469 371.087C372.487 371.05 372.524 371.014 372.561 370.995C374.118 369.529 375.675 368.073 377.269 366.644C404.408 385.43 431.695 404.355 455.288 427.427C478.908 450.518 498.853 478.209 508.306 509.845C524.574 509.956 539.378 499.189 548.462 485.685C555.906 474.56 560.199 461.728 563.819 448.795C563.911 448.491 563.994 448.168 564.086 447.864C564.786 445.375 565.468 442.868 566.15 440.379C566.251 442.757 566.288 445.163 566.251 447.56Z" fill="white"/>
<path d="M572.577 533.413C570.76 531.897 568.473 531.181 566.106 531.396L541.064 533.688C538.709 533.902 536.578 535.023 535.065 536.842C533.553 538.661 532.837 540.961 533.053 543.317L535.342 568.376C535.556 570.73 536.677 572.863 538.494 574.376C540.1 575.714 542.08 576.428 544.145 576.428C544.416 576.428 544.69 576.416 544.966 576.391L570.007 574.1C572.363 573.884 574.493 572.764 576.007 570.946C577.519 569.128 578.234 566.829 578.019 564.469L575.73 539.414C575.514 537.059 574.395 534.927 572.577 533.413Z" fill="white"/>
<path d="M612.904 498.616C612.689 496.261 611.569 494.129 609.752 492.616C607.935 491.102 605.649 490.378 603.281 490.602L578.237 492.893C575.883 493.108 573.752 494.228 572.24 496.046C570.727 497.867 570.012 500.165 570.228 502.522L572.517 527.578C572.733 529.934 573.851 532.066 575.669 533.58C577.274 534.92 579.257 535.632 581.32 535.632C581.59 535.632 581.866 535.621 582.14 535.595L607.181 533.305C609.536 533.089 611.666 531.969 613.179 530.151C614.694 528.331 615.409 526.032 615.193 523.675L612.904 498.616Z" fill="white"/>
<path d="M468.571 86.1962C468.356 83.841 467.237 81.7088 465.419 80.1953C463.602 78.6817 461.317 77.9627 458.948 78.1811L433.907 80.4709C431.55 80.6857 429.42 81.8056 427.907 83.6243C426.395 85.444 425.679 87.7429 425.895 90.1L428.183 115.158C428.399 117.513 429.518 119.645 431.336 121.16C432.94 122.496 434.922 123.21 436.985 123.21C437.257 123.21 437.532 123.199 437.805 123.173L462.849 120.882C467.709 120.438 471.302 116.118 470.858 111.252L468.571 86.1962Z" fill="white"/>
<path d="M782.454 432.362C780.285 433.206 778.147 431.19 776.641 429.414C766.651 417.614 754.685 407.493 741.396 399.6C731.676 393.825 720.653 389.133 709.405 390.24C705.538 390.62 701.631 391.745 698.618 394.202C690.586 400.755 687.604 423.987 697.034 430.041C700.5 432.266 704.692 432.976 708.756 433.637C714.723 434.608 721.72 435.269 725.963 430.959C728.024 428.866 729.249 425.726 731.999 424.692C734.47 423.762 737.192 424.925 739.544 426.123C760.004 436.559 778.128 451.549 792.221 469.693C793.68 471.571 795.693 473.709 797.993 473.113C800.446 472.478 801.057 469.312 801.068 466.777C801.202 435.878 783.238 407.087 783.17 376.188C783.161 371.93 783.793 367.101 787.235 364.597C790.524 362.205 795.086 362.898 798.969 364.103C802.852 365.307 806.876 366.938 810.851 366.084C811.549 365.934 812.255 365.694 812.775 365.205C813.795 364.246 813.819 362.663 813.772 361.265C813.564 355.077 813.191 348.42 809.346 343.568C806.437 339.897 801.971 337.853 797.577 336.231C792.473 334.346 786.846 332.848 781.656 334.482C776.761 336.024 773.025 340.214 770.993 344.929C768.961 349.644 768.434 354.865 768.288 359.997C767.845 375.542 770.642 390.855 774.622 405.948C776.964 414.829 779.714 423.633 782.454 432.362Z" fill="white"/>
<path d="M362.809 465.097C356.154 462.985 348.939 465.153 342.484 467.81C330.675 472.673 319.567 479.231 309.603 487.222C309.573 487.245 309.545 487.27 309.514 487.293C307.961 488.555 306.316 490.309 306.833 492.228C312.523 490.738 318.213 489.25 323.902 487.762C330.571 486.017 338.616 484.599 343.561 489.404C346.242 492.009 347.281 495.988 346.944 499.713C346.607 503.437 345.038 506.945 343.131 510.161C337.209 520.15 328.051 527.766 318.705 534.653C300.549 548.033 281.031 559.438 261.432 570.592C259.01 571.97 256.329 573.699 255.882 576.451C256.041 575.475 268.063 572.11 269.55 571.527C274.358 569.642 279.112 567.616 283.803 565.45C292.897 561.251 301.819 556.738 310.639 551.973C329.153 541.97 347.29 530.61 361.795 515.166C368.646 507.873 374.808 499.264 376.09 489.339C377.373 479.414 372.342 468.124 362.809 465.097Z" fill="white"/>
<path d="M879.157 358.385C875.831 411.988 849.3 463.737 807.743 497.733C785.495 515.939 756.882 530.448 727.448 529.692C699.581 528.982 674.569 510.095 658.521 488.405C642.234 466.355 632.883 440.038 624.546 413.914C625.55 413.38 626.564 412.863 627.586 412.31C661.644 394.197 693.97 373.106 726.002 351.684C753.961 332.962 784.059 306.027 817.803 299.215C836.872 295.362 858.982 300.257 870.368 316.02C879 327.948 880.06 343.673 879.157 358.385ZM903.256 373.936C902.898 369.023 902.381 364.119 901.644 359.243C896.559 325.118 879.498 289.26 847.291 276.88C826.923 269.045 803.662 272.077 783.505 280.438C763.348 288.808 745.679 302.1 728.259 315.245C692.92 341.922 656.771 365.179 621.451 391.846C613.086 349.711 627.77 309.89 644.399 270.289C661.018 230.68 680.852 191.356 685.237 148.631C685.845 142.74 686.075 136.49 683.339 131.236C680.585 125.991 673.869 122.387 668.572 125.005C665.274 126.636 663.358 130.112 661.727 133.402C650.055 157.065 642.372 182.599 629.935 205.865C617.471 229.14 598.945 250.812 573.823 258.877C540.649 269.533 505.256 254.361 473.86 239.262C490.663 198.076 534.652 174.432 557.462 136.232C572.036 111.832 577.103 81.9201 571.372 54.0819C570.976 52.1645 570.479 50.1458 569.097 48.7631C566.435 46.1267 561.672 47.1684 559.056 49.8508C556.458 52.5425 555.389 56.3218 554.201 59.8892C539.36 104.578 494.873 131.725 467.218 169.841C451.437 191.586 441.644 222.78 457.49 244.451C458.567 245.926 459.728 247.318 460.981 248.627C478.687 257.135 493.169 270.713 501.589 287.684L509.337 303.354C510.166 304.285 511.059 305.161 512.063 305.953C516.393 309.41 522.013 310.784 527.476 311.752C547.899 315.374 569.079 314.6 589.171 309.502C586.306 310.231 588.756 346.402 588.986 350.292C589.899 364.46 591.787 378.573 594.615 392.492C595.334 396.022 596.117 399.534 596.955 403.037C596.624 403.194 596.301 403.341 595.969 403.489C582.547 409.6 569.042 414.006 561.69 413.97C552.238 382.334 532.275 354.643 508.673 331.57C502.409 325.422 495.896 319.605 489.18 313.992L484.187 313.835C483.275 313.816 482.344 313.798 481.414 313.798C459.175 313.798 438.982 321.698 423.689 330.224C427.651 333.377 431.584 336.585 435.472 339.83C435.509 339.811 435.546 339.774 435.564 339.756C457.13 357.565 477.738 376.425 495.592 397.903C508.959 414.006 521.138 432.82 521.497 453.745C521.571 457.866 516.679 475.573 524.463 473.02C527.992 471.849 531.99 467.609 535.14 465.488C538.825 463.018 542.547 460.659 546.287 458.29C550.267 455.782 556.531 452.491 563.818 448.795C564.62 448.38 565.431 447.975 566.25 447.56C577.803 441.725 591.428 434.968 602.455 428.589C602.962 428.294 603.459 427.999 603.957 427.704C609.189 443.716 615.711 459.303 623.45 474.274C648.213 522.115 688.636 573.422 747.126 576.003C781.764 577.542 814.993 560.037 840.235 536.273C883.92 495.143 907.466 433.714 903.256 373.936Z" fill="white"/>
<path d="M368.985 349.513C379.633 339.378 390.91 329.97 403.166 321.864C427.34 305.879 455.776 295.158 484.738 296.038C472.777 271.884 445.2 257.887 418.261 257.516C391.323 257.145 365.309 268.713 343.772 284.907C322.234 301.102 304.547 321.777 287.049 342.273C257.036 377.428 227.023 412.582 197.011 447.737C188.013 458.276 179.004 468.827 169.226 478.646C157.911 490.009 145.585 500.366 132.441 509.551C117.033 520.322 100.281 529.57 82.0656 534.206C68.634 537.624 54.5327 538.465 40.8183 536.467C31.476 535.105 22.3098 532.425 13.7073 528.53C4.81922 524.507 -6.06978 518.577 4.95831 530.757C18.6994 545.935 42.9721 557.846 61.6096 565.497C87.6667 576.193 117.19 580.194 144.234 572.321C172.287 564.154 195.272 544.203 215.831 523.431C260.126 478.675 297.613 427.71 339.396 380.596C348.876 369.906 358.633 359.367 368.985 349.513Z" fill="white"/>
<path d="M135.644 405.298C133.827 403.782 131.539 403.068 129.173 403.282L104.131 405.573C101.775 405.789 99.6445 406.909 98.1318 408.727C96.6192 410.547 95.9034 412.846 96.1189 415.203L98.4091 440.261C98.6238 442.616 99.7431 444.748 101.561 446.262C103.166 447.6 105.146 448.313 107.212 448.313C107.482 448.313 107.758 448.301 108.032 448.276L133.073 445.985C135.43 445.77 137.56 444.65 139.073 442.831C140.585 441.013 141.301 438.714 141.085 436.355L138.796 411.299C138.581 408.944 137.461 406.812 135.644 405.298Z" fill="white"/>
<path d="M175.971 370.502C175.756 368.146 174.637 366.014 172.819 364.501C171.002 362.987 168.716 362.264 166.348 362.487L141.304 364.778C138.95 364.993 136.82 366.113 135.307 367.932C133.794 369.751 133.079 372.05 133.295 374.407L135.584 399.464C135.8 401.819 136.918 403.951 138.736 405.464C140.341 406.804 142.324 407.517 144.386 407.517C144.657 407.517 144.933 407.506 145.207 407.48L170.249 405.19C172.603 404.974 174.733 403.854 176.246 402.035C177.761 400.216 178.476 397.917 178.26 395.56L175.971 370.502Z" fill="white"/>
<path d="M397.664 241.364C374.613 245.295 354.75 255.636 339.938 265.758C320.131 250.062 300.925 233.693 283.254 215.669C260.544 192.507 240.052 165.784 231.592 134.457C224.268 107.351 226.965 77.8203 238.286 52.1787C242.05 43.6595 255.602 19.4292 250.947 41.9745C248.046 56.0005 248.524 69.6975 253.247 83.3262C259.708 102.008 272.001 118.062 284.8 133.129C318.638 172.906 357.282 208.135 397.664 241.364Z" fill="white"/>
<path d="M189.736 797.713C188.032 796.096 187.181 794.107 187.181 791.745C187.181 789.341 188.054 787.308 189.802 785.646C191.593 783.985 193.821 783.154 196.486 783.154C199.195 783.154 201.424 783.985 203.172 785.646C204.832 787.308 205.662 789.341 205.662 791.745C205.662 794.194 204.809 796.204 203.106 797.778C201.358 799.352 199.151 800.14 196.486 800.14C193.733 800.14 191.483 799.331 189.736 797.713ZM169.418 797.713C167.715 796.096 166.863 794.107 166.863 791.745C166.863 789.341 167.736 787.308 169.485 785.646C171.276 783.985 173.504 783.154 176.169 783.154C178.878 783.154 181.107 783.985 182.854 785.646C184.515 787.308 185.345 789.341 185.345 791.745C185.345 794.194 184.494 796.204 182.788 797.778C181.042 799.352 178.834 800.14 176.169 800.14C173.417 800.14 171.166 799.331 169.418 797.713ZM201.926 870.112C198.167 856.035 195.35 838.875 193.472 818.632C186.699 820.382 180.997 824.033 176.365 829.584C172.04 834.831 169.55 840.645 168.895 847.028C168.851 847.379 168.83 847.858 168.83 848.471C168.83 850.876 169.527 852.908 170.926 854.569C172.98 856.887 176.147 858.045 180.429 858.045C184.798 858.045 189.277 856.887 193.864 854.569L195.372 860.078C191.614 862.614 187.266 864.407 182.33 865.455C178.703 866.199 175.207 866.57 171.844 866.57C170.402 866.57 168.96 866.505 167.519 866.374C162.755 865.981 158.801 864.341 155.656 861.455C152.99 859.052 151.658 855.881 151.658 851.947C151.658 847.925 152.794 843.683 155.066 839.224C156.901 835.597 159.566 832.032 163.062 828.536C171.231 820.359 181.237 814.96 193.078 812.337L192.948 808.403C192.948 807.615 192.969 807.048 193.013 806.697H208.873C208.873 826.415 210.709 844.863 214.378 862.045H220.932V870.112H201.926Z" fill="white"/>
<path d="M359.085 891.227C357.381 889.61 356.529 887.621 356.529 885.261C356.529 882.856 357.402 880.823 359.15 879.161C360.941 877.499 363.171 876.67 365.835 876.67C368.544 876.67 370.773 877.499 372.52 879.161C374.18 880.823 375.01 882.856 375.01 885.261C375.01 887.709 374.158 889.719 372.455 891.294C370.706 892.868 368.5 893.654 365.835 893.654C363.082 893.654 360.832 892.845 359.085 891.227ZM338.767 891.227C337.064 889.61 336.212 887.621 336.212 885.261C336.212 882.856 337.085 880.823 338.833 879.161C340.624 877.499 342.853 876.67 345.518 876.67C348.227 876.67 350.456 877.499 352.203 879.161C353.863 880.823 354.693 882.856 354.693 885.261C354.693 887.709 353.842 889.719 352.138 891.294C350.39 892.868 348.183 893.654 345.518 893.654C342.765 893.654 340.515 892.845 338.767 891.227ZM215.742 862.045H347.616V813.714H363.738V870.112H215.742V862.045Z" fill="white"/>
<path d="M375.011 892.802C377.938 891.665 380.473 890.419 382.614 889.064C384.798 887.665 386.633 886.288 388.119 884.934C392.138 881.26 394.629 875.839 395.59 868.669C395.896 865.959 396.07 863.795 396.114 862.176C396.158 860.953 396.18 858.548 396.18 854.963V813.714H412.302V853.454C412.302 856.953 412.215 859.773 412.04 861.915C411.035 874.068 406.535 882.921 398.54 888.474C396.399 889.96 393.536 891.513 389.954 893.129C386.415 894.615 382.548 895.906 378.354 897L375.011 892.802Z" fill="white"/>
<path d="M425.345 786.827H441.533V862.046H454.641V870.113H425.345V786.827Z" fill="white"/>
<path d="M581.264 803.419C579.559 801.802 578.71 799.812 578.71 797.45C578.71 795.047 579.582 793.014 581.329 791.352C583.121 789.691 585.35 788.86 588.015 788.86C590.724 788.86 592.951 789.691 594.7 791.352C596.36 793.014 597.189 795.047 597.189 797.45C597.189 799.9 596.337 801.911 594.635 803.483C592.886 805.058 590.68 805.845 588.015 805.845C585.263 805.845 583.01 805.037 581.264 803.419ZM562.849 835.946C562.849 848.494 567.83 856.559 577.79 860.144C587.752 856.559 592.733 848.494 592.733 835.946C592.733 824.229 587.752 818.371 577.79 818.371C567.83 818.371 562.849 824.229 562.849 835.946ZM560.947 803.419C559.243 801.802 558.39 799.812 558.39 797.45C558.39 795.047 559.265 793.014 561.012 791.352C562.804 789.691 565.033 788.86 567.698 788.86C570.407 788.86 572.635 789.691 574.383 791.352C576.043 793.014 576.872 795.047 576.872 797.45C576.872 799.9 576.021 801.911 574.319 803.483C572.569 805.058 570.362 805.845 567.698 805.845C564.946 805.845 562.694 805.037 560.947 803.419ZM616.524 862.046V870.113H590.308C585.982 870.113 581.811 869.676 577.79 868.801C573.77 869.676 569.599 870.113 565.274 870.113H454.216V862.046H561.275C550.832 855.183 545.611 846.482 545.611 835.946C545.611 828.47 548.581 822.633 554.524 818.437C560.292 814.37 568.047 812.338 577.79 812.338C587.535 812.338 595.29 814.37 601.055 818.437C606.999 822.633 609.97 828.47 609.97 835.946C609.97 846.482 604.75 855.183 594.307 862.046H616.524Z" fill="white"/>
<path d="M609.969 862.045H642.477C636.666 857.062 631.947 851.094 628.321 844.143C624.782 837.279 623.012 830.83 623.012 824.797C623.012 821.824 626.442 819.004 633.302 816.338C640.205 813.671 647.501 812.337 655.192 812.337C662.925 812.337 670.243 813.693 677.148 816.402C683.963 819.07 687.373 821.868 687.373 824.797C687.373 830.525 685.579 836.863 681.998 843.815C678.284 850.985 673.544 857.062 667.775 862.045H693.925V870.112H657.551V862.045C665.941 845.563 670.135 832.185 670.135 821.912C670.135 821.561 668.998 820.972 666.727 820.141C663.537 818.961 659.691 818.37 655.192 818.37C650.691 818.37 646.869 818.961 643.724 820.141C641.45 821.015 640.315 821.628 640.315 821.976C640.315 832.296 644.465 845.651 652.766 862.045V870.112H609.969V862.045Z" fill="white"/>
<path d="M687.371 862.045H706.968V786.826H723.156V870.112H687.371V862.045Z" fill="white"/>
<path d="M736.197 786.826H752.385V870.112H736.197V786.826Z" fill="white"/>
</svg>
