<svg width="32" height="24" viewBox="0 0 32 24" fill="none" xmlns="http://www.w3.org/2000/svg">
<path d="M30.6667 12.889H1.33333C0.597331 12.889 0 12.2917 0 11.5557C0 10.8197 0.597331 10.2224 1.33333 10.2224H30.6667C31.4027 10.2224 32 10.8197 32 11.5557C32 12.2917 31.4027 12.889 30.6667 12.889Z" fill="white"/>
<path d="M30.6667 2.66667H1.33333C0.597331 2.66667 0 2.06934 0 1.33333C0 0.597331 0.597331 0 1.33333 0H30.6667C31.4027 0 32 0.597331 32 1.33333C32 2.06934 31.4027 2.66667 30.6667 2.66667Z" fill="white"/>
<path d="M30.6667 23.111H1.33333C0.597331 23.111 0 22.5137 0 21.7777C0 21.0417 0.597331 20.4443 1.33333 20.4443H30.6667C31.4027 20.4443 32 21.0417 32 21.7777C32 22.5137 31.4027 23.111 30.6667 23.111Z" fill="white"/>
</svg>
