<svg width="29" height="29" viewBox="0 0 29 29" fill="none" xmlns="http://www.w3.org/2000/svg">
<path d="M1.52806 20.7481L5.47337 16.8028C6.88241 15.3938 9.27778 15.9574 9.8414 17.7891C10.2641 19.0573 11.6732 19.7619 12.9413 19.48C15.7594 18.7755 19.5638 15.112 20.2683 12.153C20.691 10.8848 19.8456 9.47575 18.5775 9.05309C16.7457 8.48947 16.1821 6.0941 17.5911 4.68506L21.5364 0.739747C22.6637 -0.246582 24.3545 -0.246582 25.3409 0.739747L28.018 3.41692C30.6952 6.23501 27.7362 13.7029 21.1137 20.3254C14.4912 26.9479 7.02332 30.0479 4.20524 27.2297L1.52806 24.5525C0.541674 23.4253 0.541674 21.7345 1.52806 20.7481Z" fill="#F5AA36"/>
</svg>
