<svg width="81" height="81" viewBox="0 0 81 81" fill="none" xmlns="http://www.w3.org/2000/svg">
<circle cx="40.5" cy="40.5" r="40.5" fill="white"/>
<g clip-path="url(#clip0_182_2695)">
<path fill-rule="evenodd" clip-rule="evenodd" d="M50.4045 47.4888C49.9869 48.6607 47.9821 49.7289 47.0177 49.8732C46.1546 50.0023 45.0611 50.0555 43.8587 49.6758C43.1297 49.4429 42.1957 49.1341 41.0009 48.6177C35.9688 46.4459 32.6807 41.3809 32.4301 41.0467C32.1795 40.7126 30.3823 38.3282 30.3823 35.8602C30.3823 33.3923 31.6783 32.1772 32.139 31.6761C32.5972 31.1749 33.1414 31.0483 33.4755 31.0483C33.8097 31.0483 34.1438 31.0508 34.4374 31.066C34.7462 31.0812 35.1588 30.9496 35.5663 31.9267C35.984 32.9316 36.9864 35.3995 37.1129 35.6501C37.237 35.9007 37.3205 36.1943 37.1534 36.5285C36.9864 36.8626 36.9028 37.0727 36.6522 37.3663C36.4017 37.6574 36.1257 38.0194 35.9005 38.2447C35.6499 38.4927 35.3866 38.7661 35.6802 39.2673C35.9739 39.7685 36.9788 41.4113 38.4697 42.7402C40.3858 44.4488 42.0033 44.9778 42.5045 45.2309C43.0057 45.4815 43.2993 45.4385 43.5904 45.1043C43.884 44.7702 44.8459 43.6413 45.18 43.1376C45.5142 42.6364 45.8483 42.7199 46.309 42.887C46.7671 43.054 49.2351 44.2665 49.7363 44.5196C50.2375 44.7702 50.5716 44.8943 50.6982 45.1043C50.8222 45.3144 50.8222 46.3168 50.4045 47.4888ZM40.5909 23.6393C31.3872 23.6393 23.8998 31.1217 23.8973 40.3178C23.8973 43.4692 24.7782 46.5396 26.4488 49.1948L26.8462 49.8251L25.1604 55.9811L31.4758 54.3257L32.0833 54.6851C34.645 56.2064 37.5812 57.0113 40.5757 57.0113H40.5833C49.7793 57.0113 57.2642 49.529 57.2693 40.3304C57.2693 35.8729 55.5379 31.6837 52.3865 28.5297C49.2351 25.3783 45.0459 23.6393 40.5909 23.6393Z" fill="#25D366"/>
<path fill-rule="evenodd" clip-rule="evenodd" d="M40.5835 60.4007H40.5759C37.2144 60.4007 33.9137 59.5578 30.9825 57.958L20.3386 60.75L23.1888 50.3491C21.4321 47.3065 20.5057 43.8539 20.5082 40.3152C20.5133 29.2511 29.5169 20.25 40.5835 20.25C45.9523 20.25 50.9946 22.3408 54.7838 26.1352C58.5731 29.927 60.6614 34.9692 60.6589 40.3329C60.6538 51.397 51.6476 60.4007 40.5835 60.4007ZM40.5 0C18.1313 0 0 18.1313 0 40.5C0 62.8661 18.1313 81 40.5 81C62.8661 81 81 62.8661 81 40.5C81 18.1313 62.8661 0 40.5 0Z" fill="#25D366"/>
</g>
<defs>
<clipPath id="clip0_182_2695">
<rect width="81" height="81" fill="white"/>
</clipPath>
</defs>
</svg>
