<svg width="87" height="87" viewBox="0 0 87 87" fill="none" xmlns="http://www.w3.org/2000/svg">
<g clip-path="url(#clip0_187_2288)">
<path fill-rule="evenodd" clip-rule="evenodd" d="M50.6522 7.28776C55.5293 8.24561 60.0609 10.1652 64.0437 12.8389L71.1852 9.66717L77.333 15.8148L74.1622 22.954C76.8371 26.9372 78.7562 31.4707 79.7143 36.3485L87 39.153V47.8473L84.8863 48.6608L67.5963 36.0989C64.4344 25.7924 54.8426 18.2987 43.5 18.2987C29.5814 18.2987 18.2982 29.5818 18.2982 43.5005C18.2982 54.4712 25.309 63.8031 35.0943 67.2644V79.4437C30.6937 78.4182 26.5958 76.605 22.9564 74.1617L15.8148 77.3335L9.66703 71.1857L12.8378 64.0464C10.1627 60.0633 8.24393 55.5298 7.28574 50.6518L0 47.8476V39.1534L7.28693 36.3485C8.24461 31.471 10.164 26.9387 12.8383 22.9561L9.66703 15.8151L15.8146 9.66734L22.9559 12.8391C26.9389 10.1654 31.4706 8.24578 36.3476 7.28793L39.1527 0.000488281H47.8469L50.6522 7.28776Z" fill="#021F5A"/>
<g clip-path="url(#clip1_187_2288)">
<g clip-path="url(#clip2_187_2288)">
<path d="M82.2614 62.0295L75.593 55.361V47.6579C75.593 46.2651 74.4643 45.1363 73.0695 45.1363C71.6778 45.1363 70.5491 46.2651 70.5491 47.6579V50.3172L65.5839 45.3519C63.1291 42.8984 58.861 42.9027 56.4117 45.3563L39.7382 62.0295C38.7539 63.0157 38.7539 64.6115 39.7382 65.5962C40.7229 66.5822 42.3218 66.5822 43.3062 65.5962L59.9781 48.9226C60.5212 48.3823 61.4785 48.3823 62.0188 48.921L78.6936 65.5962C79.188 66.0892 79.8326 66.3344 80.4771 66.3344C81.1229 66.3344 81.7686 66.089 82.2615 65.5962C83.2462 64.6116 83.2462 63.0158 82.2614 62.0295Z" fill="#F5AA36"/>
<path d="M61.8759 53.7093C61.3914 53.2252 60.6071 53.2252 60.1241 53.7093L45.458 68.371C45.2265 68.6025 45.0952 68.9185 45.0952 69.2483V79.942C45.0952 82.4513 47.1298 84.4859 49.6391 84.4859H56.9003V73.2407H65.0981V84.4859H72.3593C74.8685 84.4859 76.9032 82.4513 76.9032 79.9421V69.2483C76.9032 68.9185 76.773 68.6025 76.5403 68.371L61.8759 53.7093Z" fill="#F5AA36"/>
</g>
</g>
</g>
<defs>
<clipPath id="clip0_187_2288">
<rect width="87" height="87" fill="white"/>
</clipPath>
<clipPath id="clip1_187_2288">
<rect width="49" height="49" fill="white" transform="translate(38 35)"/>
</clipPath>
<clipPath id="clip2_187_2288">
<rect width="44" height="44" fill="white" transform="translate(39 42)"/>
</clipPath>
</defs>
</svg>
