<svg width="87" height="92" viewBox="0 0 87 92" fill="none" xmlns="http://www.w3.org/2000/svg">
<path d="M86 55.7856C85.996 52.1974 83.0883 49.2897 79.5 49.2856H61.8572C58.2689 49.2897 55.3613 52.1974 55.3572 55.7856V66.9285C55.3613 70.5167 58.2689 73.4244 61.8572 73.4285H67.4286C67.6748 73.4285 67.911 73.5264 68.0851 73.7005L76.7143 82.3297V74.3571C76.7143 73.8443 77.1301 73.4285 77.6429 73.4285H79.5C83.0883 73.4244 85.996 70.5167 86 66.9285V55.7856ZM81.3572 67.8571H60C59.4872 67.8571 59.0715 67.4413 59.0715 66.9285C59.0715 66.4157 59.4872 65.9999 60 65.9999H81.3572C81.87 65.9999 82.2857 66.4157 82.2857 66.9285C82.2857 67.4413 81.87 67.8571 81.3572 67.8571ZM81.3572 62.2856H60C59.4872 62.2856 59.0715 61.8699 59.0715 61.3571C59.0715 60.8443 59.4872 60.4285 60 60.4285H81.3572C81.87 60.4285 82.2857 60.8443 82.2857 61.3571C82.2857 61.8699 81.87 62.2856 81.3572 62.2856ZM81.3572 56.7142H60C59.4872 56.7142 59.0715 56.2984 59.0715 55.7856C59.0715 55.2728 59.4872 54.8571 60 54.8571H81.3572C81.87 54.8571 82.2857 55.2728 82.2857 55.7856C82.2857 56.2984 81.87 56.7142 81.3572 56.7142Z" fill="#F5AA36"/>
<path d="M50.0578 64.4149C50.2319 64.2408 50.4681 64.1429 50.7143 64.1429H53.5V55.7857C53.5054 51.1723 57.2438 47.434 61.8571 47.4286H64.6429V46.5C64.6388 42.9118 61.7311 40.0041 58.1429 40H40.5C36.9118 40.0041 34.0041 42.9118 34 46.5V57.6429C34.0041 61.2311 36.9118 64.1388 40.5 64.1429H42.3571C42.8699 64.1429 43.2857 64.5586 43.2857 65.0714V71.1869L50.0578 64.4149ZM37.7143 45.5714H57.2143C57.7271 45.5714 58.1429 45.9872 58.1429 46.5C58.1429 47.0128 57.7271 47.4286 57.2143 47.4286H37.7143C37.2015 47.4286 36.7857 47.0128 36.7857 46.5C36.7857 45.9872 37.2015 45.5714 37.7143 45.5714ZM37.7143 51.1429H51.6429C52.1557 51.1429 52.5714 51.5586 52.5714 52.0714C52.5714 52.5842 52.1557 53 51.6429 53H37.7143C37.2015 53 36.7857 52.5842 36.7857 52.0714C36.7857 51.5586 37.2015 51.1429 37.7143 51.1429ZM37.7143 58.5714C37.2015 58.5714 36.7857 58.1557 36.7857 57.6429C36.7857 57.1301 37.2015 56.7143 37.7143 56.7143H50.7143C51.2271 56.7143 51.6429 57.1301 51.6429 57.6429C51.6429 58.1557 51.2271 58.5714 50.7143 58.5714H37.7143Z" fill="#F5AA36"/>
<path fill-rule="evenodd" clip-rule="evenodd" d="M50.6522 7.28727C55.5293 8.24512 60.0609 10.1647 64.0437 12.8384L71.1852 9.66669L77.333 15.8143L74.1622 22.9536C76.8371 26.9367 78.7562 31.4702 79.7143 36.348L87 39.1525V47.8468L84.8863 48.6604L67.5963 36.0984C64.4344 25.7919 54.8426 18.2982 43.5 18.2982C29.5814 18.2982 18.2982 29.5814 18.2982 43.5C18.2982 54.4707 25.309 63.8026 35.0943 67.2639V79.4432C30.6937 78.4177 26.5958 76.6045 22.9564 74.1612L15.8148 77.333L9.66703 71.1852L12.8378 64.0459C10.1627 60.0628 8.24393 55.5293 7.28574 50.6513L0 47.8471V39.1529L7.28693 36.348C8.24461 31.4706 10.164 26.9382 12.8383 22.9556L9.66703 15.8146L15.8146 9.66686L22.9559 12.8386C26.9389 10.1649 31.4706 8.24529 36.3476 7.28744L39.1527 0H47.8469L50.6522 7.28727Z" fill="#021F5A"/>
</svg>
