<svg width="87" height="89" viewBox="0 0 87 89" fill="none" xmlns="http://www.w3.org/2000/svg">
<path d="M41.3986 44.4396C41.2625 44.4521 41.1327 44.5033 41.0246 44.587C40.9165 44.6707 40.8345 44.7834 40.7883 44.912C40.742 45.0407 40.7334 45.1799 40.7634 45.3133C40.7934 45.4467 40.8609 45.5687 40.9578 45.6651L45.7813 50.483V52.0482L44.0462 53.7833H42.4866L37.6631 48.9598C37.5624 48.8597 37.4343 48.7917 37.295 48.7643C37.1558 48.7369 37.0115 48.7514 36.8804 48.8059C36.7493 48.8604 36.6373 48.9526 36.5585 49.0707C36.4797 49.1887 36.4376 49.3275 36.4376 49.4694V55.2208C36.4391 55.4102 36.5152 55.5913 36.6495 55.7248L40.2419 59.3213C40.309 59.3877 40.3886 59.4403 40.476 59.4759C40.5634 59.5116 40.657 59.5297 40.7515 59.5292H46.201L52.3722 65.7003L57.7024 60.3714L51.5327 54.2017V48.7479C51.5312 48.5586 51.455 48.3775 51.3207 48.244L47.7284 44.646C47.5926 44.5124 47.4093 44.4381 47.2188 44.4395H41.4674C41.4445 44.4384 41.4215 44.4384 41.3986 44.4395L41.3986 44.4396ZM76.6075 44.4396C76.5224 44.4504 76.4395 44.4749 76.3633 44.514L69.18 48.1049C68.9365 48.2264 68.7818 48.4759 68.7813 48.7479V51.3267L52.5491 67.5589L56.439 71.4531L72.6712 55.2208H75.25C75.5221 55.2204 75.7701 55.0654 75.8916 54.8222L79.4881 47.6333C79.6247 47.3564 79.5695 47.0227 79.3506 46.805L77.1971 44.6459C77.0426 44.4908 76.8251 44.4153 76.6075 44.4395V44.4396ZM63.6293 66.2983L58.2991 71.6286L64.4674 77.7969V83.2507C64.4676 83.3455 64.4866 83.4393 64.5232 83.5267C64.5598 83.6142 64.6134 83.6936 64.6808 83.7603L68.2717 87.3526C68.3385 87.4197 68.4179 87.473 68.5054 87.5094C68.5928 87.5457 68.6866 87.5645 68.7813 87.5645H74.5327C74.6753 87.5644 74.8147 87.522 74.9332 87.4425C75.0516 87.3629 75.1437 87.25 75.1977 87.118C75.2517 86.986 75.2653 86.8409 75.2366 86.7011C75.2079 86.5614 75.1383 86.4334 75.0367 86.3333L70.2202 81.5155V79.9559L71.9539 78.2152H73.5149L78.337 83.0387C78.4377 83.1388 78.5658 83.2068 78.7051 83.2342C78.8444 83.2616 78.9886 83.2471 79.1197 83.1926C79.2508 83.1381 79.3628 83.0459 79.4416 82.9279C79.5204 82.8098 79.5625 82.6711 79.5626 82.5291V76.7833C79.5625 76.6886 79.5438 76.5948 79.5074 76.5073C79.4711 76.4199 79.4177 76.3405 79.3506 76.2737L75.7582 72.6758C75.6225 72.5421 75.4392 72.4679 75.2487 72.4694H69.8005L63.6293 66.2983ZM50.084 67.434C49.8966 67.4369 49.7178 67.513 49.5856 67.6459L47.9361 69.2954L54.7025 76.0588L56.3506 74.4108C56.4845 74.2762 56.5596 74.094 56.5596 73.9041C56.5596 73.7141 56.4845 73.532 56.3506 73.3973L50.6048 67.6459C50.5367 67.5774 50.4554 67.5233 50.366 67.4869C50.2765 67.4504 50.1806 67.4325 50.084 67.434ZM46.9212 70.3103L37.9663 79.2667C36.0173 81.2157 35.9026 84.3287 37.7852 86.2113C39.6678 88.0938 42.7822 87.9793 44.7313 86.0301L53.6847 77.0767L46.9212 70.3103Z" fill="#F5AA36"/>
<path fill-rule="evenodd" clip-rule="evenodd" d="M50.6522 7.28727C55.5293 8.24512 60.0609 10.1647 64.0437 12.8384L71.1852 9.66669L77.333 15.8143L74.1622 22.9536C76.8371 26.9367 78.7562 31.4702 79.7143 36.348L87 39.1525V47.8468L84.8863 48.6604L67.5963 36.0984C64.4344 25.7919 54.8426 18.2982 43.5 18.2982C29.5814 18.2982 18.2982 29.5814 18.2982 43.5C18.2982 54.4707 25.309 63.8026 35.0943 67.2639V79.4432C30.6937 78.4177 26.5958 76.6045 22.9564 74.1612L15.8148 77.333L9.66703 71.1852L12.8378 64.0459C10.1627 60.0628 8.24393 55.5293 7.28574 50.6513L0 47.8471V39.1529L7.28693 36.348C8.24461 31.4706 10.164 26.9382 12.8383 22.9556L9.66703 15.8146L15.8146 9.66686L22.9559 12.8386C26.9389 10.1649 31.4706 8.24529 36.3476 7.28744L39.1527 0H47.8469L50.6522 7.28727Z" fill="#021F5A"/>
</svg>
