<svg width="95" height="82" viewBox="0 0 95 82" fill="none" xmlns="http://www.w3.org/2000/svg">
<path d="M90.584 6.14113V0H84.4429C84.4429 1.62873 85.0899 3.19075 86.2416 4.34243C87.3933 5.49412 88.9553 6.14113 90.584 6.14113V6.14113Z" fill="#F5AA36"/>
<path d="M29.1724 26.6116V32.7527H35.3135C35.3135 31.124 34.6665 29.562 33.5148 28.4103C32.3631 27.2586 30.8011 26.6116 29.1724 26.6116V26.6116Z" fill="#F5AA36"/>
<path d="M35.3135 0H29.1724V6.14113C30.8011 6.14113 32.3631 5.49412 33.5148 4.34243C34.6665 3.19075 35.3135 1.62873 35.3135 0Z" fill="#F5AA36"/>
<path d="M59.8782 22.5176C63.2698 22.5176 66.0193 19.7681 66.0193 16.3765C66.0193 12.9848 63.2698 10.2354 59.8782 10.2354C56.4865 10.2354 53.7371 12.9848 53.7371 16.3765C53.7371 19.7681 56.4865 22.5176 59.8782 22.5176Z" fill="#F5AA36"/>
<path d="M39.4076 32.7527H80.3484C80.3484 30.0381 81.4268 27.4348 83.3462 25.5153C85.2657 23.5958 87.8691 22.5175 90.5836 22.5175V10.2352C87.8691 10.2352 85.2657 9.15686 83.3462 7.23739C81.4268 5.31791 80.3484 2.71455 80.3484 0H39.4076C39.4076 2.71455 38.3292 5.31791 36.4098 7.23739C34.4903 9.15686 31.8869 10.2352 29.1724 10.2352V22.5175C31.8869 22.5175 34.4903 23.5958 36.4098 25.5153C38.3292 27.4348 39.4076 30.0381 39.4076 32.7527ZM76.848 14.9229C77.1343 14.6342 77.5001 14.4374 77.8988 14.3574C78.2974 14.2774 78.7109 14.318 79.0864 14.4739C79.4619 14.6298 79.7825 14.894 80.0072 15.2328C80.232 15.5717 80.3508 15.9697 80.3484 16.3763C80.3465 16.7121 80.2619 17.0422 80.1023 17.3376C79.9427 17.6331 79.7128 17.8847 79.433 18.0703C79.1532 18.2559 78.832 18.3698 78.4978 18.402C78.1636 18.4342 77.8266 18.3838 77.5164 18.255C77.2063 18.1262 76.9327 17.9232 76.7195 17.6637C76.5064 17.4042 76.3604 17.0963 76.2944 16.7671C76.2283 16.4379 76.2443 16.0975 76.3408 15.7759C76.4374 15.4543 76.6115 15.1613 76.848 14.9229ZM59.878 6.14113C61.9023 6.14113 63.8812 6.74141 65.5644 7.86607C67.2475 8.99073 68.5594 10.5893 69.3341 12.4595C70.1088 14.3297 70.3115 16.3877 69.9165 18.3731C69.5216 20.3586 68.5468 22.1823 67.1154 23.6137C65.684 25.0451 63.8602 26.02 61.8748 26.4149C59.8894 26.8098 57.8314 26.6071 55.9612 25.8324C54.0909 25.0578 52.4924 23.7459 51.3677 22.0627C50.2431 20.3795 49.6428 18.4007 49.6428 16.3763C49.6428 13.6618 50.7211 11.0584 52.6406 9.13895C54.5601 7.21948 57.1635 6.14113 59.878 6.14113V6.14113ZM40.0012 14.9229C40.2875 14.6342 40.6533 14.4374 41.052 14.3574C41.4507 14.2774 41.8641 14.318 42.2396 14.4739C42.6151 14.6298 42.9357 14.894 43.1605 15.2328C43.3853 15.5717 43.504 15.9697 43.5017 16.3763C43.4997 16.7121 43.4152 17.0422 43.2556 17.3376C43.0959 17.6331 42.8661 17.8847 42.5863 18.0703C42.3064 18.2559 41.9853 18.3698 41.651 18.402C41.3168 18.4342 40.9798 18.3838 40.6697 18.255C40.3596 18.1262 40.0859 17.9232 39.8728 17.6637C39.6597 17.4042 39.5136 17.0963 39.4476 16.7671C39.3816 16.4379 39.3975 16.0975 39.4941 15.7759C39.5906 15.4543 39.7648 15.1613 40.0012 14.9229Z" fill="#F5AA36"/>
<path d="M90.584 32.7527V26.6116C88.9553 26.6116 87.3933 27.2586 86.2416 28.4103C85.0899 29.562 84.4429 31.124 84.4429 32.7527H90.584Z" fill="#F5AA36"/>
<path d="M0.513916 40.9409H12.7962V75.7406H0.513916V40.9409Z" fill="#021F5A"/>
<path d="M94.0022 54.5128C93.2589 53.0843 91.9841 52.0048 90.4526 51.5071C88.921 51.0093 87.2552 51.1331 85.8141 51.8517L62.7439 63.6017C59.8166 68.1666 55.047 71.1144 50.2365 68.8012L34.0853 61.2067C33.6354 60.9508 33.2991 60.5339 33.1442 60.04C32.9893 59.5461 33.0272 59.0119 33.2504 58.5449C33.4735 58.0778 33.8653 57.7127 34.3468 57.5229C34.8284 57.3331 35.364 57.3328 35.8458 57.522C53.4298 65.7102 52.3654 65.4645 53.7369 65.5055C58.5884 65.7306 61.659 58.1975 56.3571 55.8434C27.4529 42.2715 31.547 42.7014 16.8901 44.5233V71.6466C19.1179 71.4736 21.3539 71.8533 23.3997 72.752C53.2047 86.283 44.8118 86.5695 91.3411 62.7829C92.059 62.4148 92.6974 61.9089 93.2197 61.294C93.742 60.6791 94.1381 59.9673 94.3852 59.1993C94.6324 58.4313 94.7257 57.6221 94.66 56.818C94.5943 56.0138 94.3708 55.2305 94.0022 54.5128V54.5128Z" fill="#021F5A"/>
</svg>
