<svg width="87" height="87" viewBox="0 0 87 87" fill="none" xmlns="http://www.w3.org/2000/svg">
<g clip-path="url(#clip0_187_2290)">
<path d="M15.2929 1.49341L1.49341 15.2929H15.2929V1.49341Z" fill="#F5AA36"/>
<path d="M62.4278 30.9095V0H20.3906V20.3906H0V87H62.4278V65.3327L59.0276 69.9584L39.2045 80.6291L40.5078 71.3672H35.446L28.596 78.2196L23.4983 68.0243L20.1531 71.3672H11.4512V66.2695H18.0423L24.8924 59.4171L29.99 69.6124L33.3353 66.2695H41.2254L42.3658 58.1675L62.4278 30.9095ZM25.4883 15.293H52.2325V20.3906H25.4883V15.293ZM10.1953 25.4883H52.2325V30.5859H10.1953V25.4883ZM10.1953 35.6836H52.2325V40.7812H10.1953V35.6836ZM10.1953 50.9766V45.8789H47.1348V50.9766H10.1953Z" fill="#021F5A"/>
<path d="M47.2344 60.1513L78.6366 17.4858L87 23.2955L55.6027 66.0131L45.6561 71.3672L47.2344 60.1513Z" fill="#F5AA36"/>
</g>
<defs>
<clipPath id="clip0_187_2290">
<rect width="87" height="87" fill="white"/>
</clipPath>
</defs>
</svg>
