<svg width="80" height="80" viewBox="0 0 80 80" fill="none" xmlns="http://www.w3.org/2000/svg">
<path d="M76.1833 3.81669C76.0339 3.65394 75.8503 3.52622 75.6457 3.44267C75.4411 3.35911 75.2206 3.32179 75 3.33336H66.6666C66.2246 3.33336 65.8007 3.50895 65.4881 3.82151C65.1756 4.13407 65 4.558 65 5.00002C65 5.44205 65.1756 5.86597 65.4881 6.17853C65.8007 6.4911 66.2246 6.66669 66.6666 6.66669H70.9833L60.4833 17.1667C59.8128 16.8419 59.0783 16.6711 58.3333 16.6667C57.3017 16.6696 56.2963 16.9915 55.4549 17.5883C54.6134 18.185 53.9772 19.0274 53.6333 20H33.0333C32.6334 18.8977 31.8587 17.9711 30.8448 17.3821C29.8308 16.7931 28.6421 16.5791 27.4865 16.7777C26.3308 16.9763 25.2817 17.5747 24.5225 18.4684C23.7633 19.362 23.3424 20.4941 23.3333 21.6667C23.3336 22.3817 23.493 23.0876 23.8 23.7334L10.55 35.5334C9.86203 35.1872 9.10342 35.0047 8.33332 35C7.34441 35 6.37771 35.2933 5.55546 35.8427C4.73322 36.3921 4.09236 37.173 3.71392 38.0866C3.33548 39.0002 3.23646 40.0056 3.42939 40.9755C3.62231 41.9454 4.09852 42.8363 4.79778 43.5356C5.49704 44.2348 6.38796 44.711 7.35786 44.904C8.32777 45.0969 9.3331 44.9979 10.2467 44.6194C11.1604 44.241 11.9413 43.6001 12.4907 42.7779C13.0401 41.9556 13.3333 40.9889 13.3333 40C13.3331 39.285 13.1737 38.5791 12.8666 37.9334L26.2 26.1334C26.8627 26.4672 27.5914 26.6494 28.3333 26.6667C29.3649 26.6638 30.3703 26.3419 31.2118 25.7451C32.0532 25.1484 32.6895 24.3059 33.0333 23.3334H53.6333C54.0333 24.4356 54.8079 25.3623 55.8219 25.9513C56.8358 26.5403 58.0245 26.7543 59.1802 26.5557C60.3358 26.3571 61.385 25.7587 62.1441 24.865C62.9033 23.9713 63.3242 22.8393 63.3333 21.6667C63.3289 20.9217 63.1581 20.1872 62.8333 19.5167L73.3333 9.01669V13.3334C73.3333 13.7754 73.5089 14.1993 73.8215 14.5119C74.134 14.8244 74.558 15 75 15C75.442 15 75.8659 14.8244 76.1785 14.5119C76.4911 14.1993 76.6666 13.7754 76.6666 13.3334V5.00002C76.6527 4.56037 76.4812 4.14038 76.1833 3.81669Z" fill="#F5AA36"/>
<path d="M30.5 50H15V53.3333H30C30.0893 52.212 30.2564 51.0982 30.5 50Z" fill="#021F5A"/>
<path d="M11.6666 60.0001H30.5C30.2563 58.9019 30.0893 57.7881 30 56.6667H11.6666V60.0001Z" fill="#021F5A"/>
<path d="M6.66663 66.6666H32.9C32.3266 65.5946 31.8363 64.4802 31.4333 63.3333H6.66663V66.6666Z" fill="#021F5A"/>
<path d="M38.0333 73.3333C36.9283 72.3114 35.9135 71.1962 35 70H13.3333V73.3333H38.0333Z" fill="#021F5A"/>
<path d="M55 33.3333C50.7147 33.3333 46.5257 34.604 42.9626 36.9847C39.3996 39.3655 36.6225 42.7494 34.9826 46.7084C33.3427 50.6675 32.9136 55.024 33.7496 59.2269C34.5857 63.4298 36.6492 67.2904 39.6793 70.3206C42.7095 73.3507 46.5701 75.4143 50.773 76.2503C54.976 77.0863 59.3324 76.6572 63.2915 75.0173C67.2505 73.3774 70.6344 70.6003 73.0152 67.0373C75.3959 63.4742 76.6667 59.2852 76.6667 54.9999C76.6667 49.2536 74.3839 43.7426 70.3206 39.6793C66.2573 35.616 60.7463 33.3333 55 33.3333ZM53.3333 53.3333H56.6667C57.9927 53.3333 59.2645 53.86 60.2022 54.7977C61.1399 55.7354 61.6667 57.0072 61.6667 58.3333C61.6667 59.6593 61.1399 60.9311 60.2022 61.8688C59.2645 62.8065 57.9927 63.3333 56.6667 63.3333V64.9999C56.6667 65.4419 56.4911 65.8659 56.1785 66.1784C55.8659 66.491 55.442 66.6666 55 66.6666C54.558 66.6666 54.134 66.491 53.8215 66.1784C53.5089 65.8659 53.3333 65.4419 53.3333 64.9999V63.3333H50C49.558 63.3333 49.134 63.1577 48.8215 62.8451C48.5089 62.5325 48.3333 62.1086 48.3333 61.6666C48.3333 61.2246 48.5089 60.8006 48.8215 60.4881C49.134 60.1755 49.558 59.9999 50 59.9999H56.6667C57.1087 59.9999 57.5326 59.8243 57.8452 59.5118C58.1577 59.1992 58.3333 58.7753 58.3333 58.3333C58.3333 57.8912 58.1577 57.4673 57.8452 57.1547C57.5326 56.8422 57.1087 56.6666 56.6667 56.6666H53.3333C52.0072 56.6666 50.7355 56.1398 49.7978 55.2021C48.8601 54.2644 48.3333 52.9927 48.3333 51.6666C48.3333 50.3405 48.8601 49.0687 49.7978 48.1311C50.7355 47.1934 52.0072 46.6666 53.3333 46.6666V44.9999C53.3333 44.5579 53.5089 44.134 53.8215 43.8214C54.134 43.5088 54.558 43.3333 55 43.3333C55.442 43.3333 55.8659 43.5088 56.1785 43.8214C56.4911 44.134 56.6667 44.5579 56.6667 44.9999V46.6666H60C60.442 46.6666 60.8659 46.8422 61.1785 47.1547C61.4911 47.4673 61.6667 47.8912 61.6667 48.3333C61.6667 48.7753 61.4911 49.1992 61.1785 49.5118C60.8659 49.8243 60.442 49.9999 60 49.9999H53.3333C52.8913 49.9999 52.4674 50.1755 52.1548 50.4881C51.8422 50.8006 51.6667 51.2246 51.6667 51.6666C51.6667 52.1086 51.8422 52.5325 52.1548 52.8451C52.4674 53.1577 52.8913 53.3333 53.3333 53.3333Z" fill="#021F5A"/>
</svg>
