<svg width="82" height="82" viewBox="0 0 82 82" fill="none" xmlns="http://www.w3.org/2000/svg">
<g clip-path="url(#clip0_224_153)">
<path d="M35.1927 14.5741L52.717 24.6639C52.3537 24.3265 52.0643 23.9175 51.8669 23.4627C51.6696 23.0079 51.5686 22.5171 51.5703 22.0213V15.9914L35.1927 6.56625C35.0105 6.46158 34.8039 6.40649 34.5938 6.40649C34.3836 6.40649 34.177 6.46158 33.9948 6.56625L0.602187 25.785C0.419175 25.8903 0.267148 26.042 0.161427 26.2247C0.0557063 26.4075 2.68513e-05 26.6149 0 26.826L0 34.1388L33.9948 14.5741C34.177 14.4694 34.3836 14.4143 34.5938 14.4143C34.8039 14.4143 35.0105 14.4694 35.1927 14.5741V14.5741Z" fill="#021F5A"/>
<path d="M81.4282 4.44899L74.4887 0.177624C74.3066 0.0656321 74.098 0.00423728 73.8843 -0.000226238C73.6707 -0.00468975 73.4597 0.0479396 73.2731 0.152232C73.0866 0.256524 72.9312 0.408702 72.8231 0.593065C72.715 0.777428 72.658 0.987298 72.6581 1.20102V15.9002L67.9863 17.5994L63.3146 15.9002V1.20102C63.3146 0.987298 63.2577 0.777428 63.1496 0.593065C63.0414 0.408702 62.8861 0.256524 62.6995 0.152232C62.513 0.0479396 62.302 -0.00468975 62.0883 -0.000226238C61.8746 0.00423728 61.666 0.0656321 61.484 0.177624L54.5444 4.44899C54.3695 4.55641 54.2251 4.70691 54.125 4.88609C54.0249 5.06527 53.9724 5.26714 53.9727 5.47239V22.0213C53.9725 22.2446 54.0346 22.4634 54.152 22.6533C54.2694 22.8431 54.4375 22.9964 54.6373 23.096L62.5138 27.0342V76.5225C62.5138 77.9739 63.0904 79.3659 64.1167 80.3922C65.143 81.4185 66.5349 81.9951 67.9863 81.9951C69.4377 81.9951 70.8297 81.4185 71.856 80.3922C72.8823 79.3659 73.4589 77.9739 73.4589 76.5225V27.0342L81.3354 23.096C81.5352 22.9964 81.7032 22.8431 81.8206 22.6533C81.9381 22.4634 82.0002 22.2446 82 22.0213V5.47239C82.0002 5.26714 81.9478 5.06527 81.8477 4.88609C81.7475 4.70691 81.6031 4.55641 81.4282 4.44899Z" fill="#F5AA36"/>
<path d="M21.3809 11.054V10.4102H9.36914V17.9679L21.3809 11.054Z" fill="#021F5A"/>
<path d="M22.9824 4.4043C22.9824 4.08573 22.8559 3.7802 22.6306 3.55494C22.4053 3.32968 22.0998 3.20312 21.7812 3.20312H8.96875C8.65018 3.20312 8.34466 3.32968 8.11939 3.55494C7.89413 3.7802 7.76758 4.08573 7.76758 4.4043V8.00781H22.9824V4.4043Z" fill="#021F5A"/>
<path d="M60.1114 75.5938H0V80.7988C0 81.1174 0.126552 81.4229 0.351815 81.6482C0.577079 81.8735 0.882601 82 1.20117 82H62.3312C60.907 80.5344 60.1106 78.5711 60.1114 76.5275V75.5938Z" fill="#021F5A"/>
<path d="M35.3945 57.416H54.6133C54.7195 57.416 54.8213 57.3738 54.8964 57.2987C54.9715 57.2237 55.0137 57.1218 55.0137 57.0156V55.0137H34.9941V57.0156C34.9941 57.1218 35.0363 57.2237 35.1114 57.2987C35.1865 57.3738 35.2883 57.416 35.3945 57.416Z" fill="#021F5A"/>
<path d="M36.5957 42.2012H53.4121V52.6113H36.5957V42.2012Z" fill="#021F5A"/>
<path d="M26.9863 73.1914V49.9688H13.373V73.1914H26.9863ZM14.1738 61.1797C14.1738 60.8611 14.3004 60.5556 14.5256 60.3303C14.7509 60.1051 15.0564 59.9785 15.375 59.9785C15.6936 59.9785 15.9991 60.1051 16.2244 60.3303C16.4496 60.5556 16.5762 60.8611 16.5762 61.1797V61.9805C16.5762 62.299 16.4496 62.6046 16.2244 62.8298C15.9991 63.0551 15.6936 63.1816 15.375 63.1816C15.0564 63.1816 14.7509 63.0551 14.5256 62.8298C14.3004 62.6046 14.1738 62.299 14.1738 61.9805V61.1797Z" fill="#021F5A"/>
<path d="M60.1114 73.1913V31.6884L34.5937 17.0005L4.56445 34.2846V73.1913H10.9707V48.7675C10.9707 48.4489 11.0973 48.1434 11.3225 47.9181C11.5478 47.6929 11.8533 47.5663 12.1719 47.5663H28.1875C28.5061 47.5663 28.8116 47.6929 29.0369 47.9181C29.2621 48.1434 29.3887 48.4489 29.3887 48.7675V73.1913H60.1114ZM32.5918 53.8124C32.5918 53.4938 32.7183 53.1883 32.9436 52.963C33.1689 52.7378 33.4744 52.6112 33.793 52.6112H34.1934V40.9999C34.1934 40.6813 34.3199 40.3758 34.5452 40.1505C34.7704 39.9253 35.076 39.7987 35.3945 39.7987H54.6133C54.9318 39.7987 55.2374 39.9253 55.4626 40.1505C55.6879 40.3758 55.8144 40.6813 55.8144 40.9999V52.6112H56.2148C56.5334 52.6112 56.8389 52.7378 57.0642 52.963C57.2895 53.1883 57.416 53.4938 57.416 53.8124V57.0155C57.4152 57.7586 57.1196 58.471 56.5942 58.9964C56.0687 59.5219 55.3563 59.8174 54.6133 59.8183H35.3945C34.6515 59.8174 33.9391 59.5219 33.4136 58.9964C32.8882 58.471 32.5926 57.7586 32.5918 57.0155V53.8124Z" fill="#021F5A"/>
</g>
<defs>
<clipPath id="clip0_224_153">
<rect width="82" height="82" fill="white"/>
</clipPath>
</defs>
</svg>
