<svg width="82" height="82" viewBox="0 0 82 82" fill="none" xmlns="http://www.w3.org/2000/svg">
<g clip-path="url(#clip0_187_2289)">
<path d="M33.793 67.4258V77.1953H21.7812C20.4537 77.1953 19.3789 78.2701 19.3789 79.5977C19.3789 80.9252 20.4537 82 21.7812 82H60.2188C61.5463 82 62.6211 80.9252 62.6211 79.5977C62.6211 78.2701 61.5463 77.1953 60.2188 77.1953H48.207V67.4258H33.793Z" fill="#F5AA36"/>
<path d="M19.3789 32.3853V48.2069H24.1836V40.9999C24.1836 39.6724 25.2584 38.5976 26.5859 38.5976C27.9135 38.5976 28.9883 39.6724 28.9883 40.9999V48.2069H33.793V32.3853L26.5859 25.1782L19.3789 32.3853ZM28.9883 31.3905C28.9883 32.7175 27.9129 33.7929 26.5859 33.7929C25.259 33.7929 24.1836 32.7175 24.1836 31.3905C24.1836 30.0636 25.259 28.9882 26.5859 28.9882C27.9129 28.9882 28.9883 30.0636 28.9883 31.3905Z" fill="#F5AA36"/>
<path d="M79.5977 9.60938H62.6211V4.80469H69.9883C71.3158 4.80469 72.3906 3.72989 72.3906 2.40234C72.3906 1.0748 71.3158 0 69.9883 0H12.1719C10.8443 0 9.76953 1.0748 9.76953 2.40234C9.76953 3.72989 10.8443 4.80469 12.1719 4.80469H19.3789V9.60938H2.40234C1.0748 9.60938 0 10.6842 0 12.0117V60.2188C0 61.5463 1.0748 62.6211 2.40234 62.6211H79.5977C80.9252 62.6211 82 61.5463 82 60.2188V12.0117C82 10.6842 80.9252 9.60938 79.5977 9.60938ZM24.1836 4.80469H38.5977V9.60938H24.1836V4.80469ZM42.6985 37.8938C41.7601 38.8323 40.2399 38.8323 39.3015 37.8938L38.5977 37.19V50.6094C38.5977 51.9369 37.5229 53.0117 36.1953 53.0117H16.9766C15.649 53.0117 14.5742 51.9369 14.5742 50.6094V37.19L13.8704 37.8938C12.932 38.8323 11.4118 38.8323 10.4733 37.8938C9.53493 36.9554 9.53493 35.4352 10.4733 34.4968C11.0189 33.9512 25.7476 19.2225 24.8874 20.0827C25.8258 19.1443 27.3461 19.1443 28.2845 20.0827L42.6985 34.4968C43.6369 35.4352 43.6369 36.9554 42.6985 37.8938ZM43.4023 4.80469H57.8164V9.60938H43.4023V4.80469ZM69.9883 48.207H50.6094C49.2818 48.207 48.207 47.1322 48.207 45.8047C48.207 44.4771 49.2818 43.4023 50.6094 43.4023H69.9883C71.3158 43.4023 72.3906 44.4771 72.3906 45.8047C72.3906 47.1322 71.3158 48.207 69.9883 48.207ZM69.9883 38.5977H50.6094C49.2818 38.5977 48.207 37.5229 48.207 36.1953C48.207 34.8678 49.2818 33.793 50.6094 33.793H69.9883C71.3158 33.793 72.3906 34.8678 72.3906 36.1953C72.3906 37.5229 71.3158 38.5977 69.9883 38.5977ZM69.9883 28.9883H50.6094C49.2818 28.9883 48.207 27.9135 48.207 26.5859C48.207 25.2584 49.2818 24.1836 50.6094 24.1836H69.9883C71.3158 24.1836 72.3906 25.2584 72.3906 26.5859C72.3906 27.9135 71.3158 28.9883 69.9883 28.9883Z" fill="#021F5A"/>
</g>
<defs>
<clipPath id="clip0_187_2289">
<rect width="82" height="82" fill="white"/>
</clipPath>
</defs>
</svg>
