<svg width="66" height="42" viewBox="0 0 66 42" fill="none" xmlns="http://www.w3.org/2000/svg">
<path d="M33.9422 2.51348C32.7274 2.80705 31.5028 3.08987 30.2683 3.3618C29.033 3.6348 27.8083 3.89598 26.5946 4.14727C25.7576 4.31426 25.0147 4.48212 24.3651 4.65005C23.7165 4.8169 23.0993 4.9849 22.5125 5.15276C21.7177 5.3619 21.121 5.56115 20.7227 5.74972C20.3253 5.93822 20.0004 6.13661 19.7493 6.34662L19.4981 6.03254C19.6659 5.73897 19.8857 5.42469 20.1575 5.0899C20.4303 4.75411 20.6707 4.50276 20.8797 4.33583C21.3408 4.00105 21.7589 3.73887 22.1357 3.5503C22.5125 3.3618 22.9737 3.16348 23.5173 2.9534C24.2297 2.74426 25.0981 2.50373 26.1235 2.23073C27.15 1.9588 28.143 1.69662 29.1065 1.44527C30.2782 1.1527 31.4085 0.879697 32.4978 0.62834C33.586 0.37705 34.3602 0.167842 34.8214 -1.83506e-05L34.947 0.188482L33.9422 2.51348Z" fill="#F5AA36"/>
<path d="M21.7486 21.7607C21.0642 22.4803 20.4263 23.2287 19.7985 23.9642L19.0763 24.8098C18.373 24.1974 17.6896 23.5621 17.0379 22.8962C15.423 21.2495 13.9659 19.3498 13.3638 17.1225C12.844 15.195 13.0344 13.0948 13.8398 11.2724C14.1077 10.665 15.0709 8.94295 14.7406 10.5459C14.5342 11.5434 14.5689 12.5171 14.9043 13.4858C15.3625 14.8149 16.2374 15.9563 17.148 17.0272C18.5774 18.7066 20.1258 20.2718 21.7486 21.7607Z" fill="#021F5A"/>
<path d="M41.0106 32.4319C40.9758 34.4491 40.1868 36.4584 38.7756 37.8972C37.8777 38.8137 36.7723 39.4783 35.6954 40.1569C35.4244 40.3286 35.1547 40.4996 34.8877 40.6786C34.6594 40.8322 34.3697 41.1395 34.114 41.2237C33.5513 41.4094 33.9051 40.1255 33.8991 39.827C33.873 38.3113 32.9905 36.948 32.0219 35.7811C29.9498 33.2875 27.3643 31.2803 24.8009 29.2958C24.8449 29.2383 24.8876 29.1815 24.933 29.1254C25.1313 28.8943 25.3342 28.6632 25.5365 28.4347C26.0719 27.8302 26.5352 27.3306 26.9684 26.8904C26.9697 26.8877 26.9724 26.8851 26.9751 26.8837C27.0879 26.7775 27.2007 26.672 27.3162 26.5684C29.2828 27.9298 31.2602 29.3011 32.9698 30.973C34.6814 32.6463 36.1267 34.6529 36.8117 36.9453C37.9905 36.9534 39.0633 36.1732 39.7215 35.1946C40.261 34.3884 40.572 33.4586 40.8343 32.5214C40.841 32.4993 40.847 32.476 40.8537 32.4539C40.9044 32.2736 40.9538 32.0919 41.0033 31.9115C41.0106 32.0839 41.0132 32.2582 41.0106 32.4319Z" fill="#021F5A"/>
<path d="M41.469 38.6531C41.3374 38.5433 41.1716 38.4914 41.0001 38.507L39.1855 38.673C39.0148 38.6886 38.8604 38.7698 38.7508 38.9016C38.6411 39.0334 38.5893 39.2001 38.6049 39.3708L38.7708 41.1867C38.7863 41.3573 38.8675 41.5118 38.9992 41.6215C39.1156 41.7184 39.259 41.7701 39.4087 41.7701C39.4283 41.7701 39.4482 41.7693 39.4682 41.7675L41.2828 41.6015C41.4535 41.5858 41.6079 41.5046 41.7175 41.3729C41.8271 41.2412 41.879 41.0746 41.8633 40.9036L41.6974 39.088C41.6818 38.9173 41.6007 38.7628 41.469 38.6531Z" fill="#F5AA36"/>
<path d="M44.3913 36.1316C44.3757 35.9609 44.2946 35.8064 44.1629 35.6968C44.0312 35.5871 43.8656 35.5346 43.694 35.5509L41.8792 35.7169C41.7086 35.7324 41.5542 35.8136 41.4446 35.9454C41.335 36.0773 41.2832 36.2438 41.2988 36.4146L41.4647 38.2303C41.4803 38.401 41.5614 38.5555 41.6931 38.6652C41.8094 38.7623 41.9531 38.8139 42.1026 38.8139C42.1222 38.8139 42.1421 38.8131 42.162 38.8112L43.9766 38.6452C44.1472 38.6296 44.3016 38.5485 44.4112 38.4167C44.521 38.2848 44.5728 38.1182 44.5572 37.9475L44.3913 36.1316Z" fill="#F5AA36"/>
<path d="M33.9324 6.24612C33.9168 6.07546 33.8357 5.92096 33.704 5.81127C33.5723 5.70159 33.4067 5.64949 33.235 5.66532L31.4205 5.83125C31.2497 5.84681 31.0954 5.92797 30.9857 6.05976C30.8761 6.19162 30.8243 6.35821 30.8399 6.52901L31.0057 8.34481C31.0213 8.51548 31.1024 8.66998 31.2341 8.77973C31.3504 8.87658 31.494 8.92828 31.6435 8.92828C31.6633 8.92828 31.6831 8.92748 31.703 8.92561L33.5177 8.75962C33.8699 8.72743 34.1303 8.41435 34.0981 8.06179L33.9324 6.24612Z" fill="#F5AA36"/>
<path d="M56.6775 31.3306C56.5203 31.3917 56.3654 31.2457 56.2563 31.1169C55.5323 30.2619 54.6652 29.5284 53.7023 28.9565C52.9979 28.538 52.1992 28.1981 51.3841 28.2782C51.1039 28.3058 50.8207 28.3873 50.6025 28.5654C50.0204 29.0402 49.8043 30.7237 50.4876 31.1624C50.7388 31.3236 51.0426 31.375 51.337 31.4229C51.7695 31.4933 52.2765 31.5412 52.584 31.2289C52.7333 31.0772 52.8221 30.8497 53.0214 30.7747C53.2004 30.7073 53.3977 30.7916 53.5681 30.8785C55.0507 31.6347 56.364 32.7209 57.3853 34.0357C57.491 34.1718 57.6368 34.3267 57.8035 34.2835C57.9813 34.2375 58.0255 34.0081 58.0263 33.8244C58.0361 31.5853 56.7343 29.4991 56.7294 27.26C56.7287 26.9514 56.7745 26.6015 57.0239 26.4201C57.2622 26.2467 57.5929 26.2969 57.8743 26.3843C58.1556 26.4715 58.4472 26.5897 58.7352 26.5278C58.7858 26.5169 58.837 26.4995 58.8747 26.4641C58.9486 26.3946 58.9503 26.2799 58.9469 26.1786C58.9318 25.7302 58.9048 25.2478 58.6262 24.8962C58.4154 24.6302 58.0918 24.4821 57.7733 24.3645C57.4035 24.228 56.9958 24.1194 56.6196 24.2378C56.265 24.3496 55.9942 24.6531 55.847 24.9948C55.6997 25.3365 55.6616 25.7148 55.651 26.0867C55.6188 27.2131 55.8216 28.3228 56.11 29.4165C56.2797 30.06 56.4789 30.698 56.6775 31.3306Z" fill="#F5AA36"/>
<path d="M26.2684 33.7027C25.7861 33.5496 25.2633 33.7067 24.7956 33.8992C23.9399 34.2517 23.1349 34.7269 22.4129 35.3059C22.4108 35.3076 22.4087 35.3094 22.4065 35.3111C22.2939 35.4025 22.1747 35.5296 22.2122 35.6686C22.6245 35.5607 23.0368 35.4529 23.4491 35.3451C23.9323 35.2186 24.5153 35.1158 24.8736 35.464C25.0679 35.6528 25.1432 35.9412 25.1188 36.211C25.0944 36.4809 24.9807 36.7351 24.8425 36.9682C24.4133 37.692 23.7497 38.2438 23.0724 38.743C21.7568 39.7125 20.3425 40.5389 18.9222 41.3472C18.7467 41.4471 18.5525 41.5723 18.5201 41.7718C18.5316 41.7011 19.4027 41.4572 19.5105 41.415C19.8589 41.2784 20.2034 41.1315 20.5433 40.9746C21.2023 40.6703 21.8489 40.3433 22.488 39.998C23.8296 39.2732 25.1438 38.45 26.195 37.3308C26.6914 36.8024 27.1379 36.1785 27.2308 35.4593C27.3237 34.7401 26.9592 33.922 26.2684 33.7027Z" fill="#F5AA36"/>
<path d="M63.6849 25.9699C63.444 29.8542 61.5214 33.6041 58.51 36.0676C56.8979 37.3868 54.8245 38.4382 52.6915 38.3835C50.6722 38.332 48.8597 36.9634 47.6969 35.3916C46.5166 33.7938 45.839 31.8868 45.2349 29.9938C45.3077 29.955 45.3811 29.9176 45.4552 29.8775C47.9232 28.565 50.2656 27.0367 52.5867 25.4843C54.6128 24.1277 56.7938 22.1759 59.239 21.6822C60.6208 21.403 62.223 21.7577 63.0481 22.8999C63.6736 23.7643 63.7504 24.9038 63.6849 25.9699ZM65.4313 27.0968C65.4053 26.7408 65.3679 26.3854 65.3145 26.032C64.946 23.5592 63.7096 20.9608 61.3759 20.0637C59.8999 19.496 58.2143 19.7157 56.7537 20.3216C55.293 20.9281 54.0126 21.8913 52.7503 22.8438C50.1895 24.7769 47.57 26.4622 45.0106 28.3947C44.4044 25.3414 45.4685 22.4557 46.6735 19.5862C47.8778 16.7159 49.315 13.8663 49.6328 10.7703C49.6768 10.3435 49.6935 9.89059 49.4953 9.50984C49.2957 9.12977 48.809 8.86859 48.4252 9.0583C48.1862 9.17653 48.0473 9.42835 47.9292 9.66682C47.0834 11.3815 46.5266 13.2318 45.6254 14.9177C44.7222 16.6043 43.3797 18.1747 41.5593 18.7592C39.1554 19.5314 36.5906 18.4319 34.3156 17.3378C35.5332 14.3533 38.7208 12.6399 40.3737 9.87188C41.4298 8.10377 41.7969 5.93621 41.3817 3.91895C41.353 3.78001 41.317 3.63372 41.2168 3.53353C41.0239 3.34249 40.6788 3.41797 40.4892 3.61235C40.3009 3.8074 40.2235 4.08126 40.1374 4.33977C39.062 7.57808 35.8383 9.54525 33.8343 12.3073C32.6907 13.883 31.9811 16.1434 33.1293 17.7138C33.2074 17.8207 33.2916 17.9216 33.3823 18.0164C34.6654 18.633 35.7148 19.6169 36.325 20.8466L36.8864 21.9822C36.9465 22.0496 37.0112 22.1131 37.084 22.1705C37.3977 22.421 37.8049 22.5205 38.2008 22.5907C39.6808 22.8532 41.2155 22.7971 42.6715 22.4277C42.4638 22.4805 42.6414 25.1016 42.6581 25.3835C42.7242 26.4101 42.861 27.4328 43.066 28.4414C43.1181 28.6972 43.1748 28.9517 43.2355 29.2056C43.2115 29.2169 43.1881 29.2276 43.1641 29.2383C42.1915 29.6812 41.2128 30.0004 40.6801 29.9978C39.9952 27.7053 38.5486 25.6987 36.8383 24.0268C36.3844 23.5813 35.9124 23.1598 35.4257 22.753L35.0639 22.7416C34.9978 22.7403 34.9304 22.739 34.863 22.739C33.2515 22.739 31.7882 23.3114 30.6801 23.9293C30.9671 24.1577 31.2522 24.3902 31.5339 24.6253C31.5365 24.624 31.5392 24.6213 31.5405 24.62C33.1033 25.9105 34.5966 27.2771 35.8904 28.8335C36.859 30.0004 37.7415 31.3638 37.7676 32.8801C37.7729 33.1786 37.4184 34.4618 37.9825 34.2768C38.2382 34.192 38.5279 33.8847 38.7562 33.731C39.0232 33.552 39.2929 33.381 39.564 33.2094C39.8523 33.0277 40.3063 32.7892 40.8343 32.5214C40.8924 32.4913 40.9511 32.4619 41.0106 32.4319C41.8477 32.009 42.835 31.5194 43.6341 31.0572C43.6708 31.0358 43.7068 31.0144 43.7429 30.9931C44.1221 32.1533 44.5947 33.2828 45.1554 34.3676C46.9499 37.8344 49.8791 41.5523 54.1175 41.7393C56.6275 41.8509 59.0354 40.5824 60.8645 38.8603C64.0301 35.8799 65.7364 31.4286 65.4313 27.0968Z" fill="#021F5A"/>
<path d="M26.716 25.327C27.4875 24.5926 28.3048 23.9108 29.1929 23.3235C30.9446 22.1652 33.0052 21.3883 35.1039 21.452C34.2371 19.7017 32.2388 18.6875 30.2867 18.6605C28.3347 18.6337 26.4496 19.4719 24.8889 20.6454C23.3282 21.819 22.0466 23.3171 20.7786 24.8024C18.6037 27.3499 16.4288 29.8972 14.2541 32.4447C13.6021 33.2084 12.9492 33.973 12.2407 34.6845C11.4207 35.5079 10.5275 36.2584 9.57512 36.924C8.45856 37.7045 7.24467 38.3746 5.9247 38.7106C4.95139 38.9582 3.92956 39.0192 2.93576 38.8744C2.25879 38.7757 1.59456 38.5815 0.971194 38.2993C0.327131 38.0078 -0.461927 37.578 0.337211 38.4607C1.33295 39.5605 3.09183 40.4236 4.44238 40.978C6.33058 41.7532 8.46998 42.043 10.4297 41.4725C12.4625 40.8807 14.1281 39.435 15.6178 37.9298C18.8277 34.6866 21.5441 30.9935 24.5718 27.5794C25.2588 26.8047 25.9658 26.0411 26.716 25.327Z" fill="#021F5A"/>
<path d="M9.80721 29.3694C9.6755 29.2595 9.50974 29.2077 9.33824 29.2233L7.52361 29.3893C7.35292 29.4049 7.19851 29.4861 7.0889 29.6179C6.97928 29.7497 6.92741 29.9163 6.94303 30.0871L7.10899 31.9029C7.12454 32.0736 7.20565 32.2281 7.33736 32.3378C7.45372 32.4347 7.59718 32.4864 7.74684 32.4864C7.76647 32.4864 7.78643 32.4855 7.80632 32.4837L9.62089 32.3177C9.79165 32.3021 9.94599 32.2209 10.0557 32.0891C10.1652 31.9574 10.2171 31.7908 10.2015 31.6199L10.0356 29.8042C10.02 29.6336 9.93885 29.4791 9.80721 29.3694Z" fill="#F5AA36"/>
<path d="M12.7294 26.8479C12.7139 26.6773 12.6328 26.5228 12.5011 26.4131C12.3693 26.3034 12.2037 26.251 12.0321 26.2671L10.2173 26.4332C10.0468 26.4487 9.89242 26.5299 9.78274 26.6617C9.67313 26.7935 9.62132 26.9601 9.63695 27.1309L9.80283 28.9466C9.81846 29.1173 9.8995 29.2718 10.0312 29.3815C10.1476 29.4785 10.2912 29.5302 10.4407 29.5302C10.4603 29.5302 10.4803 29.5294 10.5002 29.5275L12.3148 29.3616C12.4854 29.3459 12.6397 29.2648 12.7494 29.133C12.8591 29.0011 12.9109 28.8345 12.8953 28.6637L12.7294 26.8479Z" fill="#F5AA36"/>
<path d="M28.7941 17.4901C27.1237 17.775 25.6844 18.5243 24.6111 19.2578C23.1758 18.1204 21.7841 16.9343 20.5035 15.6281C18.8579 13.9497 17.3729 12.0133 16.7599 9.74327C16.2292 7.77904 16.4246 5.63913 17.245 3.78104C17.5177 3.16371 18.4998 1.40789 18.1625 3.0416C17.9523 4.05798 17.9869 5.05052 18.3292 6.03811C18.7973 7.39188 19.6881 8.55522 20.6156 9.64701C23.0676 12.5294 25.8679 15.0822 28.7941 17.4901Z" fill="#021F5A"/>
</svg>
