<svg width="65" height="66" viewBox="0 0 65 66" fill="none" xmlns="http://www.w3.org/2000/svg">
<g clip-path="url(#clip0_188_131)">
<path d="M17.3853 58.2035V63.476H13.2881C12.6565 63.5348 12.0251 63.3622 11.5097 62.9902C11.3473 62.8238 11.2223 62.6242 11.1433 62.405C11.0642 62.1858 11.033 61.952 11.0517 61.7195C11.0648 61.1978 11.1767 60.6834 11.3816 60.204H12.3592C12.1688 60.6209 12.0689 61.0738 12.0661 61.5326C12.0661 62.4876 12.5585 62.9651 13.5434 62.9651H16.3699V58.2025L17.3853 58.2035ZM15.6149 61.4216H13.1887V60.9027H13.6428C13.5092 60.8103 13.3987 60.6879 13.3201 60.5453C13.2414 60.4026 13.1968 60.2436 13.1895 60.0806C13.1823 59.9177 13.2127 59.7552 13.2785 59.6061C13.3442 59.457 13.4434 59.3252 13.5683 59.2212C13.8905 58.9852 14.2842 58.8693 14.682 58.8933C14.9349 58.8972 15.1873 58.9196 15.437 58.9603V59.4002C15.2872 59.3729 15.1353 59.3589 14.983 59.3582C14.4909 59.3582 14.2448 59.5865 14.2448 60.043C14.2371 60.1672 14.2589 60.2916 14.3085 60.4056C14.3581 60.5197 14.434 60.6202 14.53 60.6988C14.7418 60.8447 14.9961 60.9151 15.2523 60.8988H15.6159L15.6149 61.4216Z" fill="#021F5A"/>
<path d="M22.486 62.9662V63.477H18.2139V62.9662H21.0563V58.2035H22.0756V62.9662H22.486ZM19.5194 62.9202C19.4757 62.8735 19.4358 62.8233 19.4001 62.7702L19.2353 62.5213C19.165 62.4055 19.1029 62.2849 19.0495 62.1604C18.9853 62.0062 18.9302 61.8483 18.8845 61.6875C18.8291 61.4911 18.7892 61.2905 18.7653 61.0877C18.7316 60.8483 18.715 60.6067 18.7157 60.3649V59.0283H19.8085V60.4109C19.8062 60.7522 19.8242 61.0934 19.8621 61.4326C19.8845 61.6783 19.9217 61.9223 19.9734 62.1634C20.0094 62.3244 20.0576 62.4825 20.1175 62.6363C20.1482 62.7252 20.1867 62.8112 20.2327 62.8932L20.2824 62.9681H19.5641L19.5194 62.9202Z" fill="#021F5A"/>
<path d="M26.302 60.9388C26.6425 61.3261 26.8183 61.8325 26.7913 62.349C26.7644 62.8655 26.5369 63.3506 26.1579 63.6999C25.7763 63.9743 25.3141 64.1117 24.8455 64.0898C24.5561 64.1152 24.2648 64.0731 23.9943 63.9666C23.7238 63.8601 23.4813 63.6922 23.2857 63.476H22.0767V62.9652H23.0135C22.9367 62.7153 22.8992 62.4549 22.9023 62.1934C22.897 61.9601 22.9376 61.7281 23.0218 61.5107C23.1061 61.2933 23.2323 61.0949 23.3931 60.9268C23.7898 60.5587 24.3103 60.3553 24.8499 60.3575C25.3895 60.3597 25.9083 60.5674 26.302 60.9388M25.7367 62.2754C25.7464 61.951 25.6975 61.6275 25.5927 61.3206C25.547 61.1571 25.4495 61.013 25.315 60.9104C25.1805 60.8079 25.0163 60.7524 24.8475 60.7524C24.6788 60.7524 24.5146 60.8079 24.3801 60.9104C24.2456 61.013 24.148 61.1571 24.1024 61.3206C23.9996 61.6296 23.9522 61.9546 23.9623 62.2803C23.9623 63.2347 24.2581 63.7123 24.8495 63.713C25.441 63.7137 25.739 63.236 25.7437 62.2803" fill="#021F5A"/>
<path d="M31.4762 58.2035V63.476H27.6144V62.9651H30.4568V58.2025L31.4762 58.2035ZM29.6114 58.6104H27.7426V58.1875H28.0566C27.9562 58.1139 27.8751 58.0169 27.8204 57.9047C27.7657 57.7925 27.739 57.6686 27.7426 57.5437C27.7393 57.4267 27.7621 57.3103 27.8092 57.2033C27.8563 57.0962 27.9265 57.0011 28.0148 56.9249C28.2481 56.7374 28.5425 56.644 28.8404 56.6629C29.0491 56.6661 29.2572 56.6842 29.4633 56.7169V57.0818C29.3395 57.0581 29.2138 57.0457 29.0878 57.0448C28.7275 57.0448 28.5473 57.2114 28.5473 57.5447C28.5473 57.9739 28.8016 58.1885 29.3103 58.1885H29.6084L29.6114 58.6104ZM28.9228 62.9202C28.8788 62.8735 28.8387 62.8233 28.8027 62.7702L28.6377 62.5212C28.5672 62.4056 28.5051 62.285 28.4519 62.1604C28.3876 62.0062 28.3326 61.8483 28.287 61.6875C28.2316 61.491 28.1917 61.2905 28.1678 61.0877C28.1341 60.8483 28.1174 60.6067 28.1181 60.3649V59.0283H29.211V60.4109C29.2088 60.7522 29.2267 61.0934 29.2647 61.4326C29.287 61.6782 29.3241 61.9223 29.3759 62.1634C29.412 62.3244 29.4601 62.4825 29.5199 62.6363C29.5506 62.7256 29.5892 62.8119 29.6352 62.8942L29.6849 62.9691H28.9666L28.9228 62.9202Z" fill="#021F5A"/>
<path d="M33.3211 58.2035H32.3018V63.476H33.3211V58.2035Z" fill="#021F5A"/>
<path d="M36.394 62.9412C36.0852 62.5869 35.9269 62.125 35.9529 61.6545C35.9476 61.4213 35.9882 61.1893 36.0725 60.9719C36.1567 60.7545 36.2829 60.556 36.4437 60.3879C36.8405 60.02 37.3609 59.8168 37.9005 59.819C38.4401 59.8212 38.9589 60.0287 39.3527 60.3999C39.6748 60.7359 39.8513 61.1868 39.8434 61.6536C39.8633 61.9284 39.8157 62.2038 39.7049 62.4558C39.594 62.7077 39.4232 62.9283 39.2076 63.0982C38.8226 63.3643 38.3618 63.497 37.8952 63.476C37.6215 63.4969 37.3465 63.4599 37.0879 63.3677C36.8292 63.2754 36.5925 63.1298 36.393 62.9402M36.8381 59.2492C36.7862 59.2013 36.7449 59.1428 36.7172 59.0777C36.6894 59.0125 36.6758 58.9422 36.6772 58.8713C36.676 58.7989 36.6901 58.7271 36.7185 58.6606C36.747 58.5941 36.789 58.5344 36.842 58.4854C36.9566 58.3795 37.1078 58.3228 37.2633 58.3275C37.3404 58.3247 37.4173 58.3372 37.4895 58.3643C37.5618 58.3914 37.6281 58.4326 37.6846 58.4854C37.7355 58.5356 37.7757 58.5957 37.8027 58.662C37.8297 58.7284 37.8429 58.7996 37.8416 58.8713C37.8435 58.9429 37.83 59.014 37.8023 59.0799C37.7745 59.1458 37.733 59.2049 37.6806 59.2532C37.5619 59.3511 37.4133 59.4046 37.2598 59.4046C37.1064 59.4046 36.9577 59.3511 36.8391 59.2532M38.5886 62.6912C38.7348 62.3967 38.8033 62.0693 38.7873 61.7405C38.7969 61.4161 38.7482 61.0927 38.6433 60.7858C38.5977 60.6222 38.5002 60.4783 38.3657 60.3757C38.2311 60.2731 38.067 60.2175 37.8982 60.2175C37.7294 60.2175 37.5652 60.2731 37.4307 60.3757C37.2961 60.4783 37.1987 60.6222 37.1531 60.7858C37.0504 61.0945 37.0029 61.4191 37.0129 61.7445C36.9966 62.076 37.065 62.406 37.2116 62.7032C37.2817 62.8257 37.3828 62.9273 37.5046 62.9977C37.6264 63.068 37.7645 63.1046 37.9049 63.1038C38.0453 63.103 38.1831 63.0648 38.304 62.993C38.425 62.9213 38.5249 62.8185 38.5936 62.6953M38.1237 59.2572C38.0718 59.2093 38.0305 59.1508 38.0028 59.0857C37.975 59.0205 37.9614 58.9502 37.9627 58.8793C37.9615 58.8069 37.9756 58.7351 38.0041 58.6686C38.0325 58.602 38.0746 58.5424 38.1276 58.4934C38.2422 58.3875 38.3934 58.3308 38.5489 58.3355C38.626 58.3327 38.7029 58.3452 38.7751 58.3723C38.8474 58.3994 38.9137 58.4406 38.9702 58.4934C39.0211 58.5436 39.0613 58.6037 39.0883 58.67C39.1153 58.7364 39.1285 58.8076 39.1272 58.8793C39.1291 58.9509 39.1156 59.022 39.0879 59.0879C39.0601 59.1538 39.0186 59.2129 38.9662 59.2612C38.8476 59.3593 38.6989 59.4129 38.5454 59.4129C38.392 59.4129 38.2432 59.3593 38.1247 59.2612" fill="#021F5A"/>
<path d="M40.2607 64.9146C40.4274 64.8512 40.5879 64.7718 40.7396 64.6776C40.8623 64.6002 40.9783 64.5126 41.0863 64.4157C41.3603 64.1399 41.5273 63.7747 41.5573 63.386C41.5765 63.214 41.5874 63.0772 41.59 62.9752C41.59 62.8979 41.59 62.7456 41.59 62.5183V59.907H42.6054V62.4234C42.6054 62.6446 42.6001 62.8231 42.5895 62.9591C42.5854 63.2862 42.5066 63.6082 42.3591 63.8997C42.2117 64.1913 41.9995 64.4448 41.7391 64.6406C41.5679 64.7547 41.387 64.8535 41.1986 64.9356C40.9613 65.0348 40.7173 65.1166 40.4684 65.1805L40.2607 64.9146Z" fill="#021F5A"/>
<path d="M44.4493 58.2035H43.43V63.476H44.4493V58.2035Z" fill="#021F5A"/>
<path d="M45.2739 62.9652H46.9629C47.6669 62.9652 48.019 62.5249 48.019 61.6445C48.019 60.8254 47.6669 60.4158 46.9629 60.4158H45.6843V59.816H47.0046C47.5624 59.771 48.1178 59.93 48.5684 60.2639C48.8959 60.6484 49.076 61.1381 49.076 61.6445C49.076 62.1509 48.8959 62.6406 48.5684 63.0251C48.1179 63.3594 47.5626 63.5188 47.0046 63.4739H45.272L45.2739 62.9652Z" fill="#021F5A"/>
<path d="M53.7655 58.2035V63.476H49.9036V62.9651H52.7461V58.2025L53.7655 58.2035ZM51.5042 65.4154H51.8022V65.8434H49.9335V65.4154H50.2474C50.1471 65.3419 50.066 65.2449 50.0113 65.1327C49.9566 65.0205 49.9299 64.8965 49.9335 64.7716C49.9301 64.6546 49.9529 64.5383 50 64.4312C50.0471 64.3241 50.1174 64.229 50.2057 64.1528C50.4391 63.9653 50.7333 63.872 51.0313 63.8909C51.2399 63.8941 51.4481 63.9121 51.6543 63.9449V64.3078C51.5305 64.284 51.4047 64.2716 51.2787 64.2708C50.9177 64.2708 50.7376 64.4374 50.7383 64.7707C50.7383 65.1999 50.9925 65.4145 51.5012 65.4145M51.2081 62.9152C51.1641 62.8685 51.1239 62.8184 51.0879 62.7652L50.923 62.5163C50.8526 62.4006 50.7905 62.2799 50.7372 62.1554C50.6729 62.0012 50.6179 61.8433 50.5723 61.6825C50.5168 61.4861 50.477 61.2855 50.4531 61.0827C50.4193 60.8433 50.4027 60.6017 50.4034 60.3599V59.0233H51.4962V60.4059C51.494 60.7472 51.512 61.0884 51.55 61.4276C51.5725 61.6732 51.6096 61.9172 51.6612 62.1584C51.6973 62.3194 51.7455 62.4775 51.8053 62.6313C51.8358 62.7202 51.8744 62.8063 51.9205 62.8882L51.9702 62.9632H51.2519L51.2081 62.9152Z" fill="#021F5A"/>
<path d="M30.879 44.3964L30.7797 44.4964L30.879 44.5963V44.6273H9.0975C9.08067 44.6273 9.064 44.6307 9.04845 44.6372C9.0329 44.6437 9.01878 44.6531 9.00688 44.6651C8.99498 44.6771 8.98552 44.6913 8.97908 44.707C8.97264 44.7226 8.96934 44.7393 8.96934 44.7563V44.7813C8.96934 44.8155 8.95581 44.8483 8.93178 44.8725C8.90774 44.8966 8.87514 44.9102 8.84115 44.9102H8.22221C8.18822 44.9102 8.15563 44.8966 8.13159 44.8725C8.10756 44.8483 8.09406 44.8155 8.09406 44.7813V44.2064C8.09406 44.1722 8.10756 44.1395 8.13159 44.1153C8.15563 44.0911 8.18822 44.0775 8.22221 44.0775H8.84115C8.87514 44.0775 8.90774 44.0911 8.93178 44.1153C8.95581 44.1395 8.96934 44.1722 8.96934 44.2064V44.2315C8.96934 44.2484 8.97264 44.2652 8.97908 44.2808C8.98552 44.2965 8.99498 44.3106 9.00688 44.3226C9.01878 44.3346 9.0329 44.3441 9.04845 44.3506C9.064 44.3571 9.08067 44.3604 9.0975 44.3604H30.878L30.879 44.3964Z" fill="#F5AA36"/>
<path d="M56.7241 44.2025V44.7773C56.7241 44.8115 56.7106 44.8443 56.6865 44.8685C56.6625 44.8927 56.6299 44.9063 56.5959 44.9063H55.977C55.943 44.9063 55.9104 44.8927 55.8864 44.8685C55.8623 44.8443 55.8488 44.8115 55.8488 44.7773V44.7523C55.8488 44.7181 55.8353 44.6853 55.8113 44.6611C55.7873 44.637 55.7546 44.6234 55.7206 44.6234H33.963V44.5594L34.0374 44.4844L33.963 44.4094V44.3584H55.7206C55.7546 44.3584 55.7873 44.3449 55.8113 44.3207C55.8353 44.2965 55.8488 44.2637 55.8488 44.2294V44.2025C55.8488 44.1683 55.8623 44.1355 55.8864 44.1113C55.9104 44.0871 55.943 44.0735 55.977 44.0735H56.5959C56.6299 44.0735 56.6625 44.0871 56.6865 44.1113C56.7106 44.1355 56.7241 44.1683 56.7241 44.2025Z" fill="#F5AA36"/>
<path d="M33.3549 43.6476C33.3309 43.6236 33.2984 43.6101 33.2645 43.6101C33.2306 43.6101 33.1981 43.6236 33.1741 43.6476L32.9754 43.8476L32.4121 44.4144L32.3346 44.4944L33.1592 45.3242C33.1711 45.3362 33.1853 45.3458 33.2009 45.3523C33.2165 45.3589 33.2332 45.3622 33.2501 45.3622C33.267 45.3622 33.2837 45.3589 33.2993 45.3523C33.3149 45.3458 33.3291 45.3362 33.341 45.3242L34.0365 44.6243L34.0841 44.5764C34.108 44.5522 34.1215 44.5195 34.1215 44.4854C34.1215 44.4513 34.108 44.4186 34.0841 44.3944L33.3549 43.6476ZM33.0569 45.0642L32.9247 44.9313L32.576 44.5824C32.564 44.5704 32.5545 44.5561 32.548 44.5404C32.5416 44.5247 32.5382 44.5079 32.5382 44.4909C32.5382 44.4739 32.5416 44.4571 32.548 44.4414C32.5545 44.4257 32.564 44.4114 32.576 44.3994L32.9227 44.0505L33.0549 43.9176L33.1781 43.7936C33.2021 43.7695 33.2346 43.7561 33.2685 43.7561C33.3024 43.7561 33.3349 43.7695 33.3589 43.7936L34.0384 44.4774L33.964 44.5524L33.3479 45.1742C33.336 45.1863 33.3219 45.1958 33.3063 45.2024C33.2907 45.2089 33.2739 45.2123 33.257 45.2123C33.2401 45.2123 33.2234 45.2089 33.2078 45.2024C33.1922 45.1958 33.178 45.1863 33.1661 45.1742L33.0569 45.0642Z" fill="#F5AA36"/>
<path d="M33.0509 43.9185L32.9784 43.8456L32.4995 43.3637C32.4876 43.3516 32.4734 43.342 32.4578 43.3355C32.4422 43.329 32.4254 43.3256 32.4085 43.3256C32.3916 43.3256 32.375 43.329 32.3594 43.3355C32.3438 43.342 32.3295 43.3516 32.3176 43.3637L31.7722 43.9125L31.3013 44.3884C31.2774 44.4125 31.264 44.4453 31.264 44.4793C31.264 44.5134 31.2774 44.5462 31.3013 44.5703L32.3326 45.6081C32.3445 45.6201 32.3586 45.6297 32.3742 45.6362C32.3898 45.6427 32.4066 45.6461 32.4234 45.6461C32.4403 45.6461 32.4571 45.6427 32.4727 45.6362C32.4883 45.6297 32.5024 45.6201 32.5143 45.6081L32.9803 45.1392L33.0528 45.0662L33.5317 44.5843C33.5437 44.5723 33.5532 44.5581 33.5597 44.5424C33.5662 44.5267 33.5695 44.5098 33.5695 44.4928C33.5695 44.4758 33.5662 44.459 33.5597 44.4433C33.5532 44.4276 33.5437 44.4134 33.5317 44.4014L33.0509 43.9185ZM32.5143 45.3421C32.5024 45.3542 32.4883 45.3637 32.4727 45.3703C32.4571 45.3768 32.4403 45.3802 32.4234 45.3802C32.4066 45.3802 32.3898 45.3768 32.3742 45.3703C32.3586 45.3637 32.3445 45.3542 32.3326 45.3421L31.9788 44.9862L31.9063 44.9132L31.5656 44.5703C31.5417 44.5462 31.5282 44.5134 31.5282 44.4793C31.5282 44.4453 31.5417 44.4125 31.5656 44.3884L31.9044 44.0455L31.9769 43.9725L32.3176 43.6296C32.3295 43.6176 32.3438 43.608 32.3594 43.6014C32.375 43.5949 32.3916 43.5915 32.4085 43.5915C32.4254 43.5915 32.4422 43.5949 32.4578 43.6014C32.4734 43.608 32.4876 43.6176 32.4995 43.6296L32.9197 44.0525L33.2684 44.4014C33.2804 44.4134 33.2899 44.4276 33.2964 44.4433C33.3029 44.459 33.3062 44.4758 33.3062 44.4928C33.3062 44.5098 33.3029 44.5267 33.2964 44.5424C33.2899 44.5581 33.2804 44.5723 33.2684 44.5843L32.5143 45.3421Z" fill="#F5AA36"/>
<path d="M32.414 44.4114L31.9759 43.9705L31.8438 43.8376L31.655 43.6476C31.6431 43.6356 31.6289 43.626 31.6133 43.6194C31.5977 43.6129 31.581 43.6096 31.5641 43.6096C31.5472 43.6096 31.5305 43.6129 31.5149 43.6194C31.4993 43.626 31.4851 43.6356 31.4732 43.6476L30.7778 44.3474L30.73 44.3954C30.7061 44.4196 30.6927 44.4523 30.6927 44.4864C30.6927 44.5205 30.7061 44.5532 30.73 44.5774L30.7648 44.6123L31.4603 45.3121C31.4843 45.3362 31.5168 45.3497 31.5507 45.3497C31.5845 45.3497 31.6171 45.3362 31.6411 45.3121L31.8398 45.1122L31.9719 44.9792L32.3961 44.5523L32.4736 44.4724L32.414 44.4114ZM31.644 45.1752C31.62 45.1993 31.5875 45.2127 31.5536 45.2127C31.5198 45.2127 31.4872 45.1993 31.4632 45.1752L30.7837 44.4914L30.883 44.3914L31.4792 43.7916C31.4911 43.7795 31.5052 43.77 31.5208 43.7634C31.5364 43.7569 31.5532 43.7536 31.5701 43.7536C31.587 43.7536 31.6037 43.7569 31.6193 43.7634C31.6349 43.77 31.6491 43.7795 31.661 43.7916L31.9093 44.0415L32.2521 44.3844C32.2641 44.3964 32.2736 44.4106 32.2801 44.4263C32.2866 44.442 32.2899 44.4589 32.2899 44.4759C32.2899 44.4929 32.2866 44.5097 32.2801 44.5254C32.2736 44.5411 32.2641 44.5554 32.2521 44.5674L31.644 45.1752Z" fill="#F5AA36"/>
<path d="M17.0704 52.1582V53.9797C16.2627 54.4591 15.3361 54.6973 14.3989 54.6665C13.9191 54.6746 13.4427 54.5855 12.9978 54.4045C12.553 54.2235 12.149 53.9543 11.8097 53.6129C11.4704 53.2715 11.2029 52.8649 11.023 52.4173C10.8431 51.9697 10.7546 51.4903 10.7626 51.0075C10.7411 50.0973 11.0709 49.2141 11.6826 48.5433C11.9936 48.2202 12.3679 47.9658 12.7818 47.7961C13.1957 47.6264 13.6401 47.5451 14.0869 47.5575C14.5295 47.5136 14.9763 47.5639 15.3983 47.7054C15.8202 47.8468 16.2079 48.0761 16.5359 48.3783C16.6666 48.5735 16.7434 48.8002 16.7584 49.0351C16.7826 49.2833 16.7926 49.5326 16.7882 49.7819H16.4902C16.4704 49.5263 16.4004 49.2772 16.2842 49.0491C16.1681 48.821 16.008 48.6183 15.8133 48.4529C15.6187 48.2876 15.3933 48.1628 15.1503 48.0858C14.9073 48.0088 14.6516 47.9811 14.3979 48.0044C14.0582 47.9874 13.7203 48.0631 13.4199 48.2234C13.1195 48.3837 12.8676 48.6227 12.691 48.9152C12.322 49.5473 12.1417 50.273 12.1714 51.0056C12.0911 51.9024 12.3217 52.7996 12.8241 53.5448C13.0128 53.7781 13.2537 53.9631 13.527 54.0847C13.8004 54.2063 14.0984 54.2612 14.3969 54.2446C14.8603 54.2649 15.3222 54.178 15.7471 53.9907V52.1842C15.7364 52.0263 15.7632 51.8681 15.8252 51.7226C15.8872 51.5771 15.9827 51.4486 16.1037 51.3474C16.5741 51.0278 17.1419 50.8861 17.7062 50.9475V51.2015C17.2611 51.2015 17.0684 51.5604 17.0684 52.1572" fill="#021F5A"/>
<path d="M23.557 50.7536V47.7544H24.8625V53.3838C24.8625 53.9836 24.9618 54.3995 25.5748 54.3995H25.6642V54.6994H24.4621C24.3304 54.7193 24.1959 54.7051 24.0712 54.6581C23.9465 54.611 23.8358 54.5327 23.7497 54.4305C23.5849 54.1085 23.5179 53.7448 23.557 53.3848V51.1994H20.8258V54.6984H19.5204V49.083C19.5204 48.4712 19.421 48.0673 18.808 48.0673H18.7087V47.7534H19.9257C20.0607 47.7374 20.1977 47.7548 20.3245 47.8043C20.4512 47.8538 20.564 47.9338 20.653 48.0373C20.8043 48.3636 20.8656 48.7247 20.8308 49.083V50.7555L23.557 50.7536Z" fill="#021F5A"/>
<path d="M30.0863 47.7524L32.3426 53.3968C32.58 53.9967 32.9386 54.3676 33.3966 54.4125V54.6665C33.2358 54.703 33.0717 54.7231 32.9069 54.7265C32.542 54.7316 32.1811 54.6497 31.8537 54.4875C31.6285 54.3852 31.4282 54.2347 31.2668 54.0465C31.1053 53.8583 30.9865 53.6369 30.9188 53.3978L30.6814 52.606H28.0089L27.1773 54.7115H26.6428L29.6233 47.7524H30.0863ZM29.3908 49.4999L28.2185 52.1582H30.5036L29.3908 49.4999Z" fill="#021F5A"/>
<path d="M36.2728 48.8721L37.6379 50.9475L39.597 47.7484H40.2498L37.9648 51.4964V54.6955H36.6583V51.7693L34.863 49.081C34.6887 48.8055 34.4789 48.5544 34.2391 48.3342C34.0437 48.1414 33.7957 48.0113 33.5267 47.9604V47.7514H34.6246C34.9881 47.7593 35.3383 47.8908 35.6181 48.1243C35.8746 48.3359 36.0951 48.5881 36.2708 48.8711" fill="#021F5A"/>
<path d="M44.5407 47.7524L46.797 53.3968C47.0344 53.9967 47.393 54.3676 47.8501 54.4125V54.6665C47.6892 54.703 47.5251 54.7231 47.3603 54.7265C46.9951 54.7318 46.6339 54.6499 46.3062 54.4875C46.081 54.3852 45.8806 54.2347 45.7192 54.0465C45.5577 53.8583 45.439 53.6369 45.3713 53.3978L45.1338 52.606H42.4623L41.6307 54.7115H41.0963L44.0768 47.7524H44.5407ZM43.8452 49.4999L42.6729 52.1582H44.958L43.8452 49.4999Z" fill="#021F5A"/>
<path d="M49.3204 47.7525H54.0545V48.2153H51.9473V54.6515H50.6408V48.2153H49.9136C49.2013 48.2153 48.7561 48.5292 48.7561 49.425H48.458V48.5732C48.4483 48.3713 48.5057 48.1719 48.621 48.0064C48.7114 47.9154 48.8205 47.8455 48.9407 47.8016C49.0609 47.7578 49.1891 47.741 49.3164 47.7525" fill="#021F5A"/>
<path d="M33.6052 2.50227C32.4024 2.79486 31.1901 3.07644 29.9681 3.34703C28.746 3.61762 27.5336 3.87821 26.3308 4.12881C25.5022 4.29476 24.7664 4.46138 24.1233 4.62867C23.4801 4.79595 22.8688 4.96257 22.2893 5.12853C21.6826 5.27524 21.0896 5.47425 20.5169 5.72336C20.1723 5.88009 19.8485 6.07958 19.5531 6.31719L19.3047 6.00429C19.4969 5.67425 19.7152 5.36032 19.9575 5.06555C20.1696 4.79122 20.4094 4.53963 20.6728 4.31475C21.0659 4.02095 21.4819 3.75951 21.9167 3.53298C22.2896 3.34503 22.7456 3.14709 23.2848 2.93915C23.9902 2.7312 24.8512 2.49128 25.8678 2.21936C26.8845 1.94743 27.8691 1.68683 28.8216 1.43757C29.9813 1.14632 31.1006 0.87507 32.1795 0.623808C32.9571 0.456918 33.7253 0.248008 34.4805 -0.00201416L34.6047 0.185928L33.6052 2.50227Z" fill="#F5AA36"/>
<path d="M21.5332 21.6668C20.8556 22.3836 20.2237 23.1284 19.6028 23.8612L18.8875 24.703C18.1921 24.0931 17.5145 23.4603 16.8697 22.7975C15.1903 21.2246 13.9383 19.2458 13.2325 17.0491C12.7291 15.1101 12.8952 13.0565 13.7034 11.2248C13.9687 10.625 14.9224 8.90546 14.5976 10.501C14.3824 11.4731 14.4385 12.4861 14.7595 13.4282C15.2761 14.732 16.0295 15.9277 16.981 16.9542C18.4017 18.6178 19.923 20.1917 21.5362 21.6668" fill="#021F5A"/>
<path d="M40.6045 32.2918C40.5774 34.3219 39.7869 36.2663 38.392 37.7333C37.4658 38.6004 36.4422 39.3556 35.3419 39.9836C35.0737 40.1546 34.8064 40.3245 34.5422 40.5025C34.3083 40.7124 34.0513 40.8945 33.7762 41.0454C33.2188 41.2303 33.5695 39.9517 33.5635 39.6548C33.4112 38.1401 32.7564 36.7212 31.7047 35.6269C29.5611 33.2187 27.1625 31.0535 24.5515 29.1697C24.5952 29.1127 24.6369 29.0558 24.6826 28.9998C24.8813 28.7698 25.08 28.5399 25.2787 28.312C25.8092 27.7121 26.2722 27.2123 26.6964 26.7744C26.698 26.7714 26.7004 26.769 26.7034 26.7674C26.8147 26.6614 26.9269 26.5565 27.0412 26.4535C29.0273 27.7553 30.9008 29.2234 32.6416 30.8423C34.3881 32.4695 35.6968 34.5151 36.4457 36.7886C37.0302 36.7538 37.5976 36.577 38.0994 36.2734C38.6012 35.9698 39.0223 35.5483 39.3268 35.045C39.8317 34.2222 40.2036 33.324 40.4286 32.3838C40.4356 32.3618 40.4415 32.3388 40.4475 32.3168C40.4982 32.1369 40.5468 31.9559 40.5955 31.777C40.6025 31.9489 40.6055 32.1219 40.6025 32.2949" fill="#021F5A"/>
<path d="M41.0585 38.4861C40.9947 38.4321 40.9207 38.3913 40.8411 38.3663C40.7615 38.3412 40.6776 38.3323 40.5945 38.3402L38.7983 38.5051C38.7153 38.5128 38.6345 38.5368 38.5607 38.5759C38.4869 38.6149 38.4215 38.6683 38.3681 38.7328C38.3148 38.7973 38.2746 38.8718 38.2499 38.9519C38.2252 39.0321 38.2164 39.1163 38.2241 39.1999L38.388 41.0084C38.4026 41.167 38.4754 41.3144 38.5923 41.4218C38.7091 41.5292 38.8616 41.5889 39.0199 41.5892H39.0785L40.8748 41.4243C40.9584 41.4168 41.0396 41.3927 41.1139 41.3533C41.1882 41.314 41.254 41.2603 41.3075 41.1952C41.361 41.1301 41.4011 41.055 41.4255 40.9742C41.45 40.8934 41.4583 40.8085 41.45 40.7245L41.2861 38.917C41.2786 38.8334 41.2547 38.7521 41.2158 38.6778C41.1769 38.6035 41.1238 38.5376 41.0595 38.4841" fill="#F5AA36"/>
<path d="M43.9516 35.9758C43.944 35.8922 43.9201 35.811 43.8813 35.7367C43.8424 35.6625 43.7895 35.5966 43.7254 35.5429C43.6612 35.4893 43.5872 35.4489 43.5075 35.424C43.4279 35.3991 43.3441 35.3903 43.2611 35.398L41.4639 35.5629C41.3808 35.5706 41.3001 35.5947 41.2263 35.6337C41.1524 35.6728 41.087 35.7261 41.0337 35.7906C40.9803 35.8551 40.9402 35.9296 40.9155 36.0098C40.8908 36.0899 40.882 36.1742 40.8896 36.2578L41.0536 38.0652C41.0679 38.2239 41.1407 38.3714 41.2576 38.4789C41.3745 38.5863 41.5271 38.646 41.6854 38.6461H41.744L43.5403 38.4811C43.6234 38.4736 43.7043 38.4496 43.7782 38.4106C43.8522 38.3716 43.9177 38.3183 43.9711 38.2538C44.0245 38.1892 44.0648 38.1147 44.0896 38.0345C44.1144 37.9543 44.1232 37.87 44.1155 37.7863L43.9516 35.9758Z" fill="#F5AA36"/>
<path d="M33.5963 6.21921C33.5887 6.13564 33.5648 6.0544 33.526 5.98013C33.4871 5.90585 33.4342 5.83999 33.3701 5.78633C33.3059 5.73267 33.232 5.69225 33.1523 5.66738C33.0727 5.64251 32.9889 5.63366 32.9058 5.64137L31.1096 5.80633C31.0265 5.81399 30.9458 5.83803 30.872 5.8771C30.7982 5.91616 30.7327 5.96948 30.6794 6.034C30.6261 6.09853 30.5859 6.173 30.5612 6.25315C30.5365 6.3333 30.5277 6.41756 30.5353 6.50113L30.6993 8.30861C30.7139 8.46719 30.7867 8.61461 30.9035 8.72202C31.0204 8.82944 31.1729 8.88914 31.3312 8.88946H31.3897L33.187 8.72449C33.2705 8.71673 33.3516 8.69244 33.4257 8.65301C33.4998 8.61359 33.5654 8.55981 33.6188 8.49478C33.6721 8.42974 33.7122 8.35472 33.7366 8.27405C33.7611 8.19337 33.7695 8.10863 33.7613 8.0247L33.5963 6.21921Z" fill="#F5AA36"/>
<path d="M56.116 31.1952C55.96 31.2561 55.8071 31.1102 55.6988 30.9822C54.9799 30.129 54.1251 29.402 53.1694 28.8308C52.4943 28.3677 51.691 28.1312 50.8743 28.155C50.5941 28.1723 50.3252 28.2717 50.1004 28.4409C49.5242 28.9138 49.3056 30.5903 49.9862 31.0262C50.2463 31.1692 50.5325 31.2573 50.8276 31.2851C51.0341 31.3521 51.2534 31.3696 51.4678 31.3361C51.6823 31.3026 51.886 31.2191 52.0626 31.0922C52.2106 30.9412 52.2981 30.7143 52.4958 30.6403C52.588 30.619 52.6836 30.6169 52.7767 30.6341C52.8698 30.6513 52.9584 30.6874 53.0372 30.7403C54.5087 31.4978 55.7975 32.5707 56.8125 33.8834C56.9168 34.0193 57.0619 34.1733 57.2268 34.1303C57.3917 34.0873 57.4464 33.8564 57.4474 33.6735C57.4573 31.4441 56.1677 29.3666 56.1627 27.1373C56.1441 26.9846 56.1609 26.8297 56.2116 26.6845C56.2623 26.5394 56.3455 26.408 56.4549 26.3005C56.5832 26.2306 56.7257 26.191 56.8715 26.1848C57.0173 26.1786 57.1625 26.2058 57.2963 26.2645C57.5638 26.3843 57.8572 26.4335 58.1488 26.4075C58.1996 26.3995 58.2474 26.3777 58.2869 26.3445C58.3177 26.3048 58.3399 26.259 58.3523 26.2101C58.3646 26.1612 58.3667 26.1103 58.3584 26.0606C58.3892 25.6119 58.2778 25.165 58.0405 24.784C57.8121 24.5333 57.5202 24.3501 57.196 24.2541C56.8391 24.0874 56.4377 24.0432 56.0534 24.1282C55.8802 24.1922 55.7224 24.2925 55.5905 24.4224C55.4587 24.5524 55.3557 24.709 55.2884 24.8819C55.1546 25.2287 55.0873 25.5977 55.0898 25.9696C55.0829 27.0909 55.2361 28.2073 55.5448 29.2847C55.7127 29.9255 55.9105 30.5603 56.1072 31.1901" fill="#F5AA36"/>
<path d="M26.0109 33.5575C25.5164 33.4519 25.0008 33.5226 24.5524 33.7574C23.7041 34.1088 22.91 34.5801 22.1939 35.1571L22.1879 35.1621C22.0766 35.253 21.9584 35.38 21.9951 35.5179L23.2201 35.1961C23.4464 35.0959 23.694 35.0542 23.9404 35.0748C24.1868 35.0954 24.4242 35.1776 24.6309 35.314C24.723 35.4126 24.7924 35.5302 24.8342 35.6588C24.8761 35.7873 24.8895 35.9235 24.8733 36.0578C24.8389 36.3264 24.7456 36.5838 24.6001 36.8116C24.139 37.5125 23.5431 38.1135 22.8475 38.5791C21.5296 39.5239 20.1575 40.3898 18.7384 41.1723C18.5646 41.2723 18.3719 41.3963 18.3411 41.5952C18.6573 41.4492 18.9854 41.3304 19.3217 41.2403C19.6667 41.107 20.0075 40.9608 20.344 40.8015C20.9967 40.5016 21.6355 40.1726 22.2694 39.8287C23.6262 39.1473 24.8654 38.2508 25.9393 37.1735C26.4652 36.6746 26.8237 36.0233 26.9647 35.31C27.0246 34.9532 26.9632 34.5865 26.7903 34.2691C26.6174 33.9518 26.3431 33.7025 26.0119 33.5615" fill="#F5AA36"/>
<path d="M64.7824 26.9793C64.7565 26.6244 64.7198 26.2705 64.6672 25.9196C64.3025 23.4573 63.0775 20.8701 60.7676 19.9773C59.2649 19.477 57.6296 19.5688 56.1916 20.2342C54.7704 20.9001 53.4385 21.7439 52.2275 22.7455C49.6921 24.67 47.099 26.3445 44.5646 28.272C43.9685 25.2318 45.0186 22.3587 46.2108 19.5015C47.403 16.6443 48.8257 13.8031 49.1406 10.724C49.2172 10.3013 49.17 9.86537 49.0046 9.46931C48.9149 9.27527 48.7567 9.12174 48.5607 9.03858C48.3648 8.95543 48.1451 8.94861 47.9445 9.01944C47.7201 9.16273 47.5479 9.37527 47.4537 9.62526C46.6161 11.3328 46.0628 13.1753 45.1686 14.8538C44.3624 16.6 42.9217 17.9689 41.1429 18.6787C38.7585 19.4475 36.2231 18.3528 33.9708 17.2631C35.177 14.2919 38.3323 12.5854 39.9686 9.82921C41.0167 8.045 41.3706 5.93331 40.9621 3.90189C40.9458 3.76077 40.8892 3.62742 40.7992 3.51799C40.6916 3.43693 40.5575 3.39992 40.4238 3.41439C40.2902 3.42886 40.1669 3.49374 40.0789 3.59598C39.9108 3.80826 39.7917 4.05548 39.7302 4.31977C38.6651 7.54385 35.474 9.5023 33.489 12.2525C32.3574 13.8211 31.654 16.0724 32.7935 17.636C32.8703 17.7414 32.954 17.8416 33.0439 17.9359C34.2995 18.523 35.3245 19.5148 35.9569 20.7541L36.5132 21.8848C36.5738 21.9533 36.6403 22.0162 36.712 22.0727C37.0405 22.302 37.4204 22.4456 37.8177 22.4906C39.2879 22.7518 40.7964 22.6966 42.2438 22.3287C42.1277 23.306 42.1233 24.2935 42.2309 25.2718C42.2964 26.2949 42.4312 27.3123 42.6342 28.317C42.6859 28.5716 42.7419 28.8251 42.8021 29.0777L42.7316 29.1107C41.9623 29.5059 41.13 29.7618 40.2727 29.8665C39.5236 27.5934 38.2149 25.5481 36.4686 23.9212C36.0195 23.4773 35.5515 23.0575 35.0697 22.6526L34.711 22.6416H34.5123C33.0547 22.679 31.6302 23.0869 30.3714 23.8272C30.6555 24.0545 30.9374 24.2854 31.2169 24.52L31.2238 24.515C32.7866 25.7762 34.2285 27.182 35.5307 28.7138C36.5827 29.8084 37.2376 31.2277 37.3895 32.7427C37.3945 33.0426 37.0438 34.3172 37.6021 34.1333C37.8772 33.9819 38.1342 33.7995 38.3681 33.5895C38.6324 33.4115 38.8996 33.2406 39.1629 33.0696C39.448 32.8887 39.8981 32.6517 40.4207 32.3848L40.5956 32.2958C41.4241 31.8749 42.4017 31.3871 43.1936 30.9272L43.3019 30.8632C43.6776 32.0193 44.1453 33.143 44.7007 34.2233C46.4771 37.6753 49.3771 41.3773 53.5737 41.5632C54.82 41.5521 56.0518 41.2932 57.1982 40.8013C58.3447 40.3094 59.3832 39.5943 60.254 38.697C61.811 37.1947 63.0226 35.3678 63.8037 33.3445C64.5847 31.3211 64.9164 29.1503 64.7755 26.9843M63.0467 25.8627C62.916 27.8008 62.3943 29.6918 61.5135 31.4204C60.6326 33.149 59.411 34.6789 57.9232 35.9168C56.3306 37.3415 54.2909 38.1575 52.1609 38.2222C51.1689 38.1246 50.2108 37.8068 49.3555 37.2916C48.5003 36.7764 47.7693 36.0767 47.2152 35.243C46.1168 33.5972 45.2932 31.7818 44.7772 29.8685C44.8497 29.8295 44.9222 29.7925 44.9957 29.7526C47.4208 28.4148 49.7774 26.955 52.0566 25.3788C54.0625 24.0282 56.2223 22.0797 58.6425 21.5929C59.3215 21.4198 60.0352 21.4416 60.7025 21.6559C61.3698 21.8703 61.9641 22.2685 62.4178 22.8055C62.9699 23.7218 63.1926 24.801 63.0487 25.8627" fill="#021F5A"/>
<path d="M26.451 25.2178C27.2082 24.48 28.0287 23.8109 28.903 23.2184C30.6184 22.0092 32.6613 21.3588 34.7557 21.355C34.2817 20.5039 33.5888 19.7968 32.7498 19.3078C31.9108 18.8188 30.9565 18.5659 29.9869 18.5757C28.0384 18.6272 26.1607 19.3216 24.6429 20.5522C23.1388 21.7778 21.7728 23.1657 20.5695 24.691L14.1117 32.3008C13.4659 33.0616 12.8202 33.8224 12.1188 34.5312C11.3064 35.3513 10.4233 36.0974 9.48002 36.7606C8.39125 37.5672 7.16688 38.1697 5.86565 38.5391C4.89929 38.7883 3.89362 38.8437 2.906 38.702C2.23418 38.6034 1.57939 38.4106 0.960714 38.1292C0.322885 37.8393 -0.457997 37.4114 0.332831 38.2901C1.50558 39.3931 2.88819 40.2457 4.39726 40.7964C6.26266 41.6244 8.35035 41.7979 10.3255 41.2893C12.306 40.5686 14.0729 39.3552 15.4619 37.7623C18.6411 34.5332 21.3295 30.8563 24.3269 27.4562C25.0075 26.6844 25.7069 25.9246 26.45 25.2138" fill="#021F5A"/>
<path d="M9.70953 29.2427C9.64561 29.1888 9.57168 29.1482 9.49202 29.1233C9.41237 29.0984 9.32858 29.0897 9.24556 29.0977L7.44932 29.2627C7.36618 29.2702 7.28533 29.2942 7.2114 29.3332C7.13748 29.3722 7.07191 29.4255 7.01848 29.49C6.96505 29.5546 6.9248 29.6291 6.90002 29.7093C6.87524 29.7895 6.86642 29.8738 6.87407 29.9575L7.03801 31.765C7.05238 31.9237 7.12516 32.0712 7.24206 32.1786C7.35896 32.2861 7.51153 32.3457 7.66986 32.3458H7.72847L9.52474 32.1808C9.60834 32.1733 9.68962 32.1492 9.7639 32.1099C9.83817 32.0706 9.90396 32.0168 9.95745 31.9517C10.0109 31.8866 10.0511 31.8116 10.0755 31.7308C10.1 31.65 10.1083 31.5651 10.1 31.4811L9.93902 29.6786C9.93159 29.5949 9.90774 29.5136 9.86886 29.4393C9.82998 29.365 9.77684 29.2992 9.7125 29.2457" fill="#F5AA36"/>
<path d="M12.6036 26.7314C12.596 26.6478 12.5721 26.5666 12.5332 26.4923C12.4944 26.4181 12.4414 26.3522 12.3773 26.2986C12.3132 26.2449 12.2392 26.2044 12.1596 26.1796C12.0799 26.1547 11.9961 26.1459 11.9131 26.1536L10.1168 26.3186C10.0338 26.3262 9.95305 26.3502 9.87924 26.3893C9.80542 26.4284 9.73997 26.4817 9.68665 26.5462C9.63332 26.6108 9.59315 26.6852 9.56843 26.7653C9.54371 26.8455 9.53494 26.9298 9.5426 27.0133L9.70654 28.8209C9.72113 28.9794 9.79395 29.1268 9.9108 29.2342C10.0276 29.3417 10.1801 29.4014 10.3384 29.4017H10.397L12.1933 29.2367C12.3611 29.2213 12.5159 29.1394 12.6238 29.0091C12.7316 28.8788 12.7837 28.7108 12.7685 28.5419L12.6036 26.7314Z" fill="#F5AA36"/>
<path d="M28.5086 17.4151C27.0191 17.698 25.6068 18.2983 24.3667 19.1756C22.9376 18.0575 21.5795 16.8505 20.3003 15.5616C18.5886 13.9583 17.3126 11.9414 16.5935 9.70225C16.0803 7.72593 16.2495 5.6328 17.0734 3.76593C17.3436 3.1511 18.3163 1.4026 17.9824 3.03014C17.7627 4.02078 17.8198 5.05328 18.1474 6.01329C18.6748 7.34154 19.4425 8.55982 20.4116 9.60628C22.8756 12.4452 25.5853 15.0584 28.5086 17.4151" fill="#021F5A"/>
</g>
<defs>
<clipPath id="clip0_188_131">
<rect width="64.8171" height="65.8423" fill="white"/>
</clipPath>
</defs>
</svg>
