<svg width="130" height="130" viewBox="0 0 130 130" fill="none" xmlns="http://www.w3.org/2000/svg">
<rect y="-0.00012207" width="130" height="130" rx="20" fill="#F5F6F8"/>
<g clip-path="url(#clip0_182_2049)">
<path d="M61.214 36.3761L99.8317 31.5749C101.624 31.3449 103.451 31.7474 104.821 32.6961C106.192 33.6736 107 35.0824 107 36.5486V97.1249C107 98.7061 105.419 99.9999 103.486 99.9999H92.066V84.9061C92.066 82.1174 89.3251 79.8749 85.9167 79.8749H77.1319C73.7235 79.8749 70.9826 82.1174 70.9826 84.9061V99.9999H56.0486V41.3499C56.0486 38.8774 58.2272 36.7786 61.214 36.3761ZM87.6736 73.4061H92.9444C94.3992 73.4061 95.5799 72.4401 95.5799 71.2499C95.5799 70.0596 94.3992 69.0936 92.9444 69.0936H87.6736C86.2189 69.0936 85.0382 70.0596 85.0382 71.2499C85.0382 72.4401 86.2189 73.4061 87.6736 73.4061ZM87.6736 64.7811H92.9444C94.3992 64.7811 95.5799 63.8151 95.5799 62.6249C95.5799 61.4346 94.3992 60.4686 92.9444 60.4686H87.6736C86.2189 60.4686 85.0382 61.4346 85.0382 62.6249C85.0382 63.8151 86.2189 64.7811 87.6736 64.7811ZM87.6736 56.1561H92.9444C94.3992 56.1561 95.5799 55.1901 95.5799 53.9999C95.5799 52.8096 94.3992 51.8436 92.9444 51.8436H87.6736C86.2189 51.8436 85.0382 52.8096 85.0382 53.9999C85.0382 55.1901 86.2189 56.1561 87.6736 56.1561ZM87.6736 47.5311H92.9444C94.3992 47.5311 95.5799 46.5651 95.5799 45.3749C95.5799 44.1846 94.3992 43.2186 92.9444 43.2186H87.6736C86.2189 43.2186 85.0382 44.1846 85.0382 45.3749C85.0382 46.5651 86.2189 47.5311 87.6736 47.5311ZM70.1042 73.4061H75.375C76.8298 73.4061 78.0104 72.4401 78.0104 71.2499C78.0104 70.0596 76.8298 69.0936 75.375 69.0936H70.1042C68.6494 69.0936 67.4688 70.0596 67.4688 71.2499C67.4688 72.4401 68.6494 73.4061 70.1042 73.4061ZM70.1042 64.7811H75.375C76.8298 64.7811 78.0104 63.8151 78.0104 62.6249C78.0104 61.4346 76.8298 60.4686 75.375 60.4686H70.1042C68.6494 60.4686 67.4688 61.4346 67.4688 62.6249C67.4688 63.8151 68.6494 64.7811 70.1042 64.7811ZM70.1042 56.1561H75.375C76.8298 56.1561 78.0104 55.1901 78.0104 53.9999C78.0104 52.8096 76.8298 51.8436 75.375 51.8436H70.1042C68.6494 51.8436 67.4688 52.8096 67.4688 53.9999C67.4688 55.1901 68.6494 56.1561 70.1042 56.1561ZM70.1042 47.5311H75.375C76.8298 47.5311 78.0104 46.5651 78.0104 45.3749C78.0104 44.1846 76.8298 43.2186 75.375 43.2186H70.1042C68.6494 43.2186 67.4688 44.1846 67.4688 45.3749C67.4688 46.5651 68.6494 47.5311 70.1042 47.5311Z" fill="#021F5A"/>
<path d="M27.5158 62.1707L52.5347 57.884V99.9999H28.8159C25.425 99.9999 22.6666 97.743 22.6666 94.9687V67.0869C22.6666 64.7122 24.6449 62.691 27.5158 62.1707ZM35.8437 91.3749H41.1145C42.5693 91.3749 43.7499 90.4089 43.7499 89.2187C43.7499 88.0284 42.5693 87.0624 41.1145 87.0624H35.8437C34.3889 87.0624 33.2083 88.0284 33.2083 89.2187C33.2083 90.4089 34.3889 91.3749 35.8437 91.3749ZM35.8437 82.7499H41.1145C42.5693 82.7499 43.7499 81.7839 43.7499 80.5937C43.7499 79.4034 42.5693 78.4374 41.1145 78.4374H35.8437C34.3889 78.4374 33.2083 79.4034 33.2083 80.5937C33.2083 81.7839 34.3889 82.7499 35.8437 82.7499ZM35.8437 74.1249H41.1145C42.5693 74.1249 43.7499 73.1589 43.7499 71.9687C43.7499 70.7784 42.5693 69.8124 41.1145 69.8124H35.8437C34.3889 69.8124 33.2083 70.7784 33.2083 71.9687C33.2083 73.1589 34.3889 74.1249 35.8437 74.1249Z" fill="#F5AA36"/>
</g>
<defs>
<clipPath id="clip0_182_2049">
<rect width="84.3333" height="69" fill="white" transform="matrix(-1 0 0 1 107 30.9999)"/>
</clipPath>
</defs>
</svg>
