<svg width="130" height="130" viewBox="0 0 130 130" fill="none" xmlns="http://www.w3.org/2000/svg">
<rect width="130" height="130" rx="20" fill="#F5F6F8"/>
<path d="M35 21H23C21.8954 21 21 21.8954 21 23V107C21 108.105 21.8954 109 23 109H35C36.1046 109 37 108.105 37 107V23C37 21.8954 36.1046 21 35 21Z" fill="#F5AA36"/>
<path d="M59.48 78.14L61 77V43C61 42.4696 60.7893 41.9609 60.4142 41.5858C60.0391 41.2107 59.5304 41 59 41H47C46.4696 41 45.9609 41.2107 45.5858 41.5858C45.2107 41.9609 45 42.4696 45 43V107C45 107.53 45.2107 108.039 45.5858 108.414C45.9609 108.789 46.4696 109 47 109H59C59.5304 109 60.0391 108.789 60.4142 108.414C60.7893 108.039 61 107.53 61 107V94.64C59.8329 94.2274 58.822 93.4639 58.1059 92.4541C57.3898 91.4444 57.0035 90.2379 57 89V83C56.9998 82.0516 57.2245 81.1166 57.6556 80.2718C58.0867 79.427 58.7119 78.6964 59.48 78.14Z" fill="#F5AA36"/>
<path d="M83 59H71C70.4696 59 69.9609 59.2107 69.5858 59.5858C69.2107 59.9609 69 60.4696 69 61V71.22L81.46 62.16C82.487 61.4075 83.7268 61.0013 85 61C85 60.4696 84.7893 59.9609 84.4142 59.5858C84.0391 59.2107 83.5304 59 83 59Z" fill="#F5AA36"/>
<path d="M108.18 81.3799L86.18 65.3799C85.8375 65.1296 85.4242 64.9948 85 64.9948C84.5758 64.9948 84.1625 65.1296 83.82 65.3799L61.82 81.3799C61.5652 81.5661 61.3581 81.81 61.2156 82.0915C61.0731 82.3731 60.9992 82.6844 61 82.9999V88.9999C61 89.5304 61.2107 90.0391 61.5858 90.4142C61.9609 90.7892 62.4696 90.9999 63 90.9999L83.8 75.3999C84.1462 75.1403 84.5673 74.9999 85 74.9999C85.4328 74.9999 85.8538 75.1403 86.2 75.3999L107 90.9999C107.53 90.9999 108.039 90.7892 108.414 90.4142C108.789 90.0391 109 89.5304 109 88.9999V82.9999C109.001 82.6844 108.927 82.3731 108.784 82.0915C108.642 81.81 108.435 81.5661 108.18 81.3799Z" fill="#021F5A"/>
<path d="M103 107V93L85 79.5L67 93V107C67 107.53 67.2107 108.039 67.5858 108.414C67.9609 108.789 68.4696 109 69 109H77V93C77 92.4696 77.2107 91.9609 77.5858 91.5858C77.9609 91.2107 78.4696 91 79 91H91C91.5304 91 92.0391 91.2107 92.4142 91.5858C92.7893 91.9609 93 92.4696 93 93V109H101C101.53 109 102.039 108.789 102.414 108.414C102.789 108.039 103 107.53 103 107Z" fill="#021F5A"/>
<path d="M81 95H89V109H81V95Z" fill="#021F5A"/>
</svg>
