<svg width="130" height="130" viewBox="0 0 130 130" fill="none" xmlns="http://www.w3.org/2000/svg">
<rect y="-0.00012207" width="130" height="130" rx="20" fill="#F5F6F8"/>
<path d="M23.5164 86.9999V76.4999C23.5164 75.0065 23.7264 73.6299 24.1464 72.3699C24.5664 71.1099 25.2431 69.9432 26.1764 68.8699C27.1564 67.7499 28.4397 66.6765 30.0264 65.6499C31.6597 64.5765 33.6897 63.4799 36.1164 62.3599C38.5897 61.1932 41.5064 59.9332 44.8664 58.5799V54.6599C44.1197 54.4732 43.2331 54.3565 42.2064 54.3099C41.1797 54.2165 39.8964 54.1699 38.3564 54.1699C36.5831 54.1699 34.5997 54.2865 32.4064 54.5199C30.2597 54.7532 28.1831 55.0799 26.1764 55.4999L24.2864 44.4399C27.2264 43.7399 30.2364 43.2032 33.3164 42.8299C36.3964 42.4099 39.2431 42.1999 41.8564 42.1999C48.0164 42.1999 52.5664 43.2265 55.5064 45.2799C58.4464 47.3332 59.9164 50.5065 59.9164 54.7999C59.9164 56.5265 59.7297 58.0665 59.3564 59.4199C59.0297 60.7732 58.3997 62.0099 57.4664 63.1299C56.5797 64.2499 55.2731 65.3465 53.5464 66.4199C51.8664 67.4932 49.6497 68.6599 46.8964 69.9199C44.1897 71.1332 40.8297 72.5332 36.8164 74.1199V75.4499H59.2164V86.9999H23.5164Z" fill="#F5AA36"/>
<path d="M65.4973 65.1599C65.4973 60.8199 65.8473 57.1799 66.5473 54.2399C67.2473 51.2532 68.3906 48.8965 69.9773 47.1699C71.6106 45.3965 73.7573 44.1365 76.4173 43.3899C79.0773 42.5965 82.3906 42.1999 86.3573 42.1999C90.3239 42.1999 93.6373 42.5965 96.2973 43.3899C98.9573 44.1365 101.081 45.3965 102.667 47.1699C104.254 48.8965 105.397 51.2299 106.097 54.1699C106.797 57.1099 107.147 60.7732 107.147 65.1599C107.147 68.6599 106.914 71.6932 106.447 74.2599C106.027 76.8265 105.327 78.9965 104.347 80.7699C103.414 82.5432 102.131 83.9665 100.497 85.0399C98.9106 86.1132 96.9506 86.8832 94.6173 87.3499C92.2839 87.8165 89.5306 88.0499 86.3573 88.0499C83.1839 88.0499 80.4306 87.7932 78.0973 87.2799C75.7639 86.8132 73.7806 86.0432 72.1473 84.9699C70.5606 83.8965 69.2773 82.4732 68.2973 80.6999C67.3173 78.9265 66.5939 76.7565 66.1273 74.1899C65.7073 71.6232 65.4973 68.6132 65.4973 65.1599ZM80.5473 54.1699V72.3699C80.5473 73.8632 80.8273 74.8665 81.3873 75.3799C81.9473 75.8465 83.1373 76.0799 84.9573 76.0799H92.0973V57.8799C92.0973 56.3865 91.7706 55.4065 91.1173 54.9399C90.4639 54.4265 89.1806 54.1699 87.2673 54.1699H80.5473Z" fill="#021F5A"/>
</svg>
