<svg width="130" height="130" viewBox="0 0 130 130" fill="none" xmlns="http://www.w3.org/2000/svg">
<rect width="130" height="130" rx="20" fill="#F5F6F8"/>
<g clip-path="url(#clip0_182_2084)">
<path d="M68.0615 52.6218C67.2325 52.4572 66.3764 52.3691 65.5 52.3691C58.2595 52.3691 52.3691 58.2595 52.3691 65.5C52.3691 72.7405 58.2595 78.6309 65.5 78.6309C72.7405 78.6309 78.6309 72.7405 78.6309 65.5C78.6309 64.6236 78.5428 63.7675 78.3782 62.9385L70.6584 70.6584C69.2804 72.0363 67.4485 72.7949 65.5 72.7949C63.5515 72.7949 61.7196 72.0363 60.3416 70.6584C58.9637 69.2804 58.2051 67.4485 58.2051 65.5C58.2051 63.5515 58.9637 61.7196 60.3416 60.3416L68.0615 52.6218Z" fill="#F5AA36"/>
<path d="M103.286 48.3468L98.0542 53.5786C97.5305 54.1023 96.9404 54.5367 96.3033 54.8736C97.4558 58.2063 98.084 61.781 98.084 65.5C98.084 83.4669 83.4669 98.084 65.5 98.084C47.5331 98.084 32.916 83.4669 32.916 65.5C32.916 47.5331 47.5331 32.916 65.5 32.916C69.2203 32.916 72.7968 33.5448 76.1302 34.698C76.4677 34.0603 76.8989 33.4676 77.422 32.9451L82.6532 27.714C77.422 25.3298 71.6139 24 65.5 24C42.6166 24 24 42.6166 24 65.5C24 88.3834 42.6166 107 65.5 107C88.3834 107 107 88.3834 107 65.5C107 59.3861 105.67 53.578 103.286 48.3468Z" fill="#F5AA36"/>
<path d="M75.8281 44.8551L75.3849 39.6018C72.313 38.4246 68.9809 37.7793 65.5 37.7793C50.2149 37.7793 37.7793 50.2149 37.7793 65.5C37.7793 80.7851 50.2149 93.2207 65.5 93.2207C80.7851 93.2207 93.2207 80.7851 93.2207 65.5C93.2207 62.0191 92.5754 58.687 91.3982 55.6151L86.1449 55.1719L82.2891 59.027C83.0667 61.0369 83.4941 63.2191 83.4941 65.5C83.4941 75.4222 75.4222 83.4941 65.5 83.4941C55.5778 83.4941 47.5059 75.4222 47.5059 65.5C47.5059 55.5778 55.5778 47.5059 65.5 47.5059C67.7809 47.5059 69.9631 47.9333 71.973 48.7109L75.8281 44.8551Z" fill="#021F5A"/>
<path d="M80.1563 38.3081L80.8643 46.6972L63.7808 63.7808C62.8309 64.73 62.8309 66.2701 63.7808 67.2193C64.2551 67.6942 64.8775 67.9317 65.5 67.9317C66.1225 67.9317 66.7449 67.6942 67.2192 67.2193L84.3028 50.1357L92.6919 50.8431C92.7603 50.8488 92.8281 50.8519 92.8965 50.8519C93.5386 50.8519 94.1579 50.5974 94.6157 50.1395L104.932 39.8228C105.601 39.1541 105.822 38.1574 105.497 37.2683C105.171 36.3792 104.36 35.7599 103.417 35.6808L95.9487 35.0507L95.3193 27.5829C95.2395 26.6394 94.6202 25.8282 93.7317 25.5033C92.8427 25.1779 91.8459 25.3989 91.1766 26.0676L80.8605 36.3843C80.3539 36.8909 80.0962 37.5944 80.1563 38.3081Z" fill="#021F5A"/>
</g>
<defs>
<clipPath id="clip0_182_2084">
<rect width="83" height="83" fill="white" transform="translate(24 24)"/>
</clipPath>
</defs>
</svg>
